<?xml version="1.0" encoding="UTF-8"?><svg version="1.1" width="206px" height="83px" viewBox="0 0 206.0 83.0" xmlns="http://www.w3.org/2000/svg" xmlns:xlink="http://www.w3.org/1999/xlink"><defs><clipPath id="i0"><path d="M1400,0 L1400,6092 L0,6092 L0,0 L1400,0 Z"></path></clipPath><clipPath id="i1"><path d="M14.5555241,0 L14.5555241,2.323332 L8.60839766,2.323332 L8.60839766,17.95302 L5.94712646,17.95302 L5.94712646,2.323332 L0,2.323332 L0,0 L14.5555241,0 Z"></path></clipPath><clipPath id="i2"><path d="M9.17867006,0 L17.271107,18.0850275 L14.4740566,18.0850275 L12.4373695,13.3327575 L4.80658166,13.3327575 L2.76989451,18.0850275 L0,18.0850275 L8.06528109,0 L9.17867006,0 Z M8.66270931,4.435452 L8.60839766,4.435452 L5.75703566,11.1150315 L11.5140713,11.1150315 L8.66270931,4.435452 Z"></path></clipPath><clipPath id="i3"><path d="M3.06860863,0 L8.06528109,8.2636695 L13.1162652,0 L16.0219389,0 L9.34160503,10.771812 L9.34160503,17.95302 L6.68033383,17.95302 L6.68033383,10.7454105 L0,0 L3.06860863,0 Z"></path></clipPath><clipPath id="i4"><path d="M2.6612712,0 L2.6612712,15.629688 L10.292059,15.629688 L9.83040994,17.95302 L0,17.95302 L0,0 L2.6612712,0 Z"></path></clipPath><clipPath id="i5"><path d="M9.3144492,0 C14.5555241,0 18.6560542,3.960225 18.6560542,9.2669265 C18.6560542,14.573628 14.5555241,18.48105 9.3144492,18.48105 C4.10053011,18.48105 0,14.573628 0,9.2669265 C0,3.960225 4.10053011,0 9.3144492,0 Z M9.3144492,2.376135 C5.94712646,2.376135 2.74273869,4.910679 2.74273869,9.2669265 C2.74273869,13.570371 5.94712646,16.104915 9.3144492,16.104915 C12.7360836,16.104915 15.8861597,13.570371 15.8861597,9.2669265 C15.8861597,4.910679 12.7360836,2.376135 9.3144492,2.376135 Z"></path></clipPath><clipPath id="i6"><path d="M5.53978903,0 C9.61316331,0 11.8399413,2.376135 11.8399413,5.385906 C11.8399413,7.7884425 10.4278382,9.5837445 8.28252771,10.4285925 L14.1481867,17.95302 L10.9166431,17.95302 L5.62125651,10.9566225 L2.6612712,10.9566225 L2.6612712,17.95302 L0,17.95302 L0,0 Z M5.40400989,2.323332 L2.6612712,2.323332 L2.6612712,8.712495 L5.3225424,8.712495 C7.63078783,8.712495 9.09720257,7.5772305 9.09720257,5.544315 C9.09720257,3.432195 7.57647617,2.323332 5.40400989,2.323332 Z"></path></clipPath><clipPath id="i7"><path d="M2.6612712,0 L2.6612712,7.8412455 L12.3830578,7.8412455 L12.3830578,0 L15.044329,0 L15.044329,17.95302 L12.3830578,17.95302 L12.3830578,10.1645775 L2.6612712,10.1645775 L2.6612712,17.95302 L0,17.95302 L0,0 L2.6612712,0 Z"></path></clipPath><clipPath id="i8"><path d="M9.17867006,0 L17.271107,18.0850275 L14.4740566,18.0850275 L12.4373695,13.3327575 L4.80658166,13.3327575 L2.76989451,18.0850275 L0,18.0850275 L8.06528109,0 L9.17867006,0 Z M8.66270931,4.435452 L8.60839766,4.435452 L5.75703566,11.1150315 L11.5140713,11.1150315 L8.66270931,4.435452 Z"></path></clipPath><clipPath id="i9"><path d="M13.3878235,0 L18.4931193,12.8575305 L18.6017426,12.8575305 L22.973831,0.0792045 L25.6894138,0.0792045 L19.0633917,18.164232 L18.0857818,18.164232 L12.8718627,5.2538985 L7.65794366,18.164232 L6.653178,18.164232 L0,0.0792045 L2.76989451,0.0792045 L7.27776206,12.8575305 L7.35922954,12.8575305 L12.4645253,0 L13.3878235,0 Z"></path></clipPath><clipPath id="i10"><path d="M2.6612712,0 L2.6612712,8.712495 L10.8080198,0 L14.093875,0 L6.95189211,7.603632 L14.8270824,17.95302 L11.6498505,17.95302 L5.1324516,9.398934 L2.6612712,12.0126825 L2.6612712,17.95302 L0,17.95302 L0,0 L2.6612712,0 Z"></path></clipPath><clipPath id="i11"><path d="M10.4278382,0 L10.8623314,2.323332 L2.6612712,2.323332 L2.6612712,7.762041 L9.8847216,7.762041 L9.8847216,9.979767 L2.6612712,9.979767 L2.6612712,15.629688 L11.1610455,15.629688 L10.6722406,17.95302 L0,17.95302 L0,0 L10.4278382,0 Z"></path></clipPath><clipPath id="i12"><path d="M6.49024303,0 C7.87519029,0 9.53169583,0.3432195 10.7265523,0.9768555 L11.1338897,3.9866265 C9.55885166,2.851362 7.84803446,2.3497335 6.38161971,2.3497335 C4.34493257,2.3497335 3.25869943,3.432195 3.25869943,4.7258685 C3.25869943,6.4683675 5.24107491,7.1548065 7.2234504,8.026056 C9.80325411,9.1085175 11.9757204,10.4285925 11.9757204,13.306356 C11.9757204,16.5537405 9.28729337,18.428247 5.91997063,18.428247 C4.01906263,18.428247 2.14531046,17.95302 0.407337429,16.738551 L0,13.5967725 C1.62934971,15.1808625 4.10053011,16.0785135 6.02859394,16.0785135 C7.9838136,16.0785135 9.3144492,15.048855 9.3144492,13.464765 C9.3144492,11.722266 7.65794366,11.035827 5.59410069,10.138176 C2.68842703,8.8973055 0.5702724,7.656435 0.5702724,4.857876 C0.5702724,2.006514 2.851362,0 6.49024303,0 Z"></path></clipPath><clipPath id="i13"><path d="M14.8962857,35.6225 C15.3334286,35.6225 15.6882857,35.9675 15.6882857,36.3925 L15.6882857,52.9625 L26.8457143,52.9625 L26.8457143,47.55 C26.8457143,47.125 27.2005714,46.7825 27.6377143,46.7825 C28.0748571,46.7825 28.4271429,47.125 28.4271429,47.55 L28.4271429,53.7325 C28.4271429,54.1575 28.0748571,54.5025 27.6377143,54.5025 L14.8962857,54.5025 C14.4591429,54.5025 14.1042857,54.1575 14.1042857,53.7325 L14.1042857,36.3925 C14.1042857,35.9675 14.4591429,35.6225 14.8962857,35.6225 Z M55.1468571,17.965 C55.584,17.965 55.9362857,18.31 55.9362857,18.7325 L55.9362857,53.615 C55.9362857,54.0375 55.584,54.3825 55.1468571,54.3825 L42.4285714,54.3825 C41.9914286,54.3825 41.6391429,54.0375 41.6391429,53.615 L41.6391429,33.3125 C41.6391429,32.8875 41.9914286,32.545 42.4285714,32.545 C42.8657143,32.545 43.2205714,32.8875 43.2205714,33.3125 L43.2205714,52.845 L54.3548571,52.845 L54.3548571,18.7325 C54.3548571,18.31 54.7097143,17.965 55.1468571,17.965 Z M39.2631429,32.545 C39.6977143,32.545 40.0525714,32.8875 40.0525714,33.3125 C40.0525714,33.7375 39.6977143,34.0825 39.2631429,34.0825 L25.2257143,34.0825 L25.2257143,50.6425 C25.2257143,51.0675 24.8708571,51.41 24.4337143,51.41 L18.0745714,51.41 C17.6374286,51.41 17.2851429,51.0675 17.2851429,50.6425 L17.2851429,42.5475 C17.2851429,42.1225 17.6374286,41.7775 18.0745714,41.7775 C18.5117143,41.7775 18.8665714,42.1225 18.8665714,42.5475 L18.8665714,49.8725 L23.6442857,49.8725 L23.6442857,33.3125 C23.6442857,32.8875 23.9965714,32.545 24.4337143,32.545 Z M45.6094286,43.2775 C46.044,43.2775 46.3988571,43.6225 46.3988571,44.0475 L46.3988571,49.755 L51.966,49.755 C52.4031429,49.755 52.758,50.0975 52.758,50.5225 C52.758,50.9475 52.4031429,51.2925 51.966,51.2925 L45.6094286,51.2925 C45.1722857,51.2925 44.8174286,50.9475 44.8174286,50.5225 L44.8174286,44.0475 C44.8174286,43.6225 45.1722857,43.2775 45.6094286,43.2775 Z M21.2554286,29.4525 C21.6925714,29.4525 22.0448571,29.7975 22.0448571,30.2225 L22.0448571,47.55 C22.0448571,47.975 21.6925714,48.32 21.2554286,48.32 C20.8182857,48.32 20.4634286,47.975 20.4634286,47.55 L20.4634286,30.9925 L13.2634286,30.9925 C12.8262857,30.9925 12.4714286,30.6475 12.4714286,30.2225 C12.4714286,29.7975 12.8262857,29.4525 13.2634286,29.4525 Z M51.966,26.55 C52.4031429,26.55 52.758,26.8925 52.758,27.3175 L52.758,47.4325 C52.758,47.8575 52.4031429,48.2 51.966,48.2 C51.5314286,48.2 51.1765714,47.8575 51.1765714,47.4325 L51.1765714,27.3175 C51.1765714,26.8925 51.5314286,26.55 51.966,26.55 Z M48.7877143,39.66 C49.2248571,39.66 49.5797143,40.005 49.5797143,40.43 L49.5797143,47.4325 C49.5797143,47.8575 49.2248571,48.2 48.7877143,48.2 C48.3505714,48.2 47.9957143,47.8575 47.9957143,47.4325 L47.9957143,40.43 C47.9957143,40.005 48.3505714,39.66 48.7877143,39.66 Z M27.612,35.6225 C28.0491429,35.6225 28.404,35.9675 28.404,36.3925 L28.404,44.4725 C28.404,44.895 28.0491429,45.24 27.612,45.24 C27.1774286,45.24 26.8225714,44.895 26.8225714,44.4725 L26.8225714,36.3925 C26.8225714,35.9675 27.1774286,35.6225 27.612,35.6225 Z M45.6094286,29.4525 C46.044,29.4525 46.3988571,29.7975 46.3988571,30.2225 L46.3988571,40.9675 C46.3988571,41.3925 46.044,41.7375 45.6094286,41.7375 C45.1722857,41.7375 44.8174286,41.3925 44.8174286,40.9675 L44.8174286,30.9925 L32.6391429,30.9925 C32.202,30.9925 31.8497143,30.6475 31.8497143,30.2225 C31.8497143,29.7975 32.202,29.4525 32.6391429,29.4525 Z M3.97028571,20.18 C4.40742857,20.18 4.76228571,20.525 4.76228571,20.95 C4.76228571,21.375 4.40742857,21.7175 3.97028571,21.7175 L1.58142857,21.7175 L1.58142857,32.545 L18.0745714,32.545 C18.5117143,32.545 18.8665714,32.8875 18.8665714,33.3125 L18.8665714,39.39 C18.8665714,39.815 18.5117143,40.1575 18.0745714,40.1575 C17.6374286,40.1575 17.2851429,39.815 17.2851429,39.39 L17.2851429,34.0825 L0.792,34.0825 C0.354857143,34.0825 0,33.7375 0,33.3125 L0,20.95 C0,20.525 0.354857143,20.18 0.792,20.18 Z M48.7877143,12.065 C49.2248571,12.065 49.5797143,12.4075 49.5797143,12.8325 L49.5797143,37.34 C49.5797143,37.765 49.2248571,38.1075 48.7877143,38.1075 C48.3505714,38.1075 47.9957143,37.765 47.9957143,37.34 L47.9957143,12.8325 C47.9957143,12.4075 48.3505714,12.065 48.7877143,12.065 Z M24.4337143,3.0925 C24.8708571,3.0925 25.2257143,3.435 25.2257143,3.86 L25.2257143,6.95 C25.2257143,7.375 24.8708571,7.72 24.4337143,7.72 C23.9965714,7.72 23.6442857,7.375 23.6442857,6.95 L23.6442857,4.63 L18.8665714,4.63 L18.8665714,24.04 C18.8665714,24.465 18.5117143,24.81 18.0745714,24.81 L4.76228571,24.81 L4.76228571,29.4525 L10.0157143,29.4525 C10.4528571,29.4525 10.8077143,29.7975 10.8077143,30.2225 C10.8077143,30.6475 10.4528571,30.9925 10.0157143,30.9925 L3.97028571,30.9925 C3.53314286,30.9925 3.18085714,30.6475 3.18085714,30.2225 L3.18085714,24.04 C3.18085714,23.615 3.53314286,23.2725 3.97028571,23.2725 L17.2851429,23.2725 L17.2851429,3.86 C17.2851429,3.435 17.6374286,3.0925 18.0745714,3.0925 Z M29.4428571,29.4525 C29.88,29.4525 30.2322857,29.7975 30.2322857,30.2225 C30.2322857,30.6475 29.88,30.9925 29.4428571,30.9925 L24.4337143,30.9925 C23.9965714,30.9925 23.6442857,30.6475 23.6442857,30.2225 C23.6442857,29.7975 23.9965714,29.4525 24.4337143,29.4525 Z M37.2342857,26.3625 C37.6714286,26.3625 38.0262857,26.7075 38.0262857,27.1325 C38.0262857,27.555 37.6714286,27.9 37.2342857,27.9 L7.15114286,27.9 C6.714,27.9 6.35914286,27.555 6.35914286,27.1325 C6.35914286,26.7075 6.714,26.3625 7.15114286,26.3625 Z M45.7122857,26.3625 C46.1494286,26.3625 46.5017143,26.7075 46.5017143,27.1325 C46.5017143,27.555 46.1494286,27.9 45.7122857,27.9 L40.4022857,27.9 C39.9651429,27.9 39.6102857,27.555 39.6102857,27.1325 C39.6102857,26.7075 39.9651429,26.3625 40.4022857,26.3625 Z M21.2554286,6.1825 C21.6925714,6.1825 22.0448571,6.5275 22.0448571,6.95 L22.0448571,23.2725 L45.6094286,23.2725 C46.044,23.2725 46.3988571,23.615 46.3988571,24.04 C46.3988571,24.465 46.044,24.81 45.6094286,24.81 L21.2554286,24.81 C20.8182857,24.81 20.4634286,24.465 20.4634286,24.04 L20.4634286,6.95 C20.4634286,6.5275 20.8182857,6.1825 21.2554286,6.1825 Z M51.966,3.0925 C52.4031429,3.0925 52.758,3.435 52.758,3.86 L52.758,23.47 C52.758,23.895 52.4031429,24.2375 51.966,24.2375 C51.5314286,24.2375 51.1765714,23.895 51.1765714,23.47 L51.1765714,4.63 L46.3988571,4.63 L46.3988571,20.925 C46.3988571,21.3475 46.0594286,21.71 45.6222857,21.7175 C45.18,21.7275 44.8174286,21.38 44.8174286,20.95 L44.8174286,3.86 C44.8174286,3.435 45.1722857,3.0925 45.6094286,3.0925 Z M14.8962857,12.065 C15.3334286,12.065 15.6882857,12.4075 15.6882857,12.8325 L15.6882857,20.95 C15.6882857,21.375 15.3334286,21.7175 14.8962857,21.7175 L7.15114286,21.7175 C6.714,21.7175 6.35914286,21.375 6.35914286,20.95 C6.35914286,20.525 6.714,20.18 7.15114286,20.18 L14.1042857,20.18 L14.1042857,12.8325 C14.1042857,12.4075 14.4591429,12.065 14.8962857,12.065 Z M42.4285714,14 C42.8657143,14 43.2205714,14.3425 43.2205714,14.7675 L43.2205714,20.95 C43.2205714,21.375 42.8657143,21.7175 42.4285714,21.7175 L27.6377143,21.7175 C27.2005714,21.7175 26.8457143,21.375 26.8457143,20.95 C26.8457143,20.525 27.2005714,20.18 27.6377143,20.18 L41.6391429,20.18 L41.6391429,14.7675 C41.6391429,14.3425 41.9914286,14 42.4285714,14 Z M24.4337143,9.2625 C24.8708571,9.2625 25.2257143,9.605 25.2257143,10.03 L25.2257143,20.95 C25.2257143,21.375 24.8708571,21.7175 24.4337143,21.7175 C23.9965714,21.7175 23.6442857,21.375 23.6442857,20.95 L23.6442857,10.03 C23.6442857,9.605 23.9965714,9.2625 24.4337143,9.2625 Z M27.612,0 C28.0491429,0 28.404,0.345 28.404,0.77 L28.404,17.92 C28.404,18.3425 28.0491429,18.6875 27.612,18.6875 C27.1774286,18.6875 26.8225714,18.3425 26.8225714,17.92 L26.8225714,1.5375 L15.6882857,1.5375 L15.6882857,9.7525 C15.6882857,10.1775 15.3334286,10.5225 14.8962857,10.5225 C14.4591429,10.5225 14.1042857,10.1775 14.1042857,9.7525 L14.1042857,0.77 C14.1042857,0.345 14.4591429,0 14.8962857,0 Z M55.1468571,0 C55.584,0 55.9362857,0.345 55.9362857,0.77 L55.9362857,15.655 C55.9362857,16.08 55.584,16.4225 55.1468571,16.4225 C54.7097143,16.4225 54.3548571,16.08 54.3548571,15.655 L54.3548571,1.5375 L43.2205714,1.5375 L43.2205714,11.6575 C43.2205714,12.0825 42.8657143,12.4275 42.4285714,12.4275 C41.9914286,12.4275 41.6391429,12.0825 41.6391429,11.6575 L41.6391429,0.77 C41.6391429,0.345 41.9914286,0 42.4285714,0 Z M48.7877143,6.1825 C49.2248571,6.1825 49.5797143,6.5275 49.5797143,6.95 L49.5797143,9.7525 C49.5797143,10.1775 49.2248571,10.5225 48.7877143,10.5225 C48.3505714,10.5225 47.9957143,10.1775 47.9957143,9.7525 L47.9957143,6.95 C47.9957143,6.5275 48.3505714,6.1825 48.7877143,6.1825 Z"></path></clipPath></defs><g transform="translate(-596.0 -5233.0)"><g clip-path="url(#i0)"><g transform="translate(596.0893360160969 5233.624401913876)"><g transform="translate(0.5702724000002064 63.02573807909725)"><g transform="translate(0.0 0.26401499999998634)"><g clip-path="url(#i1)"><polygon points="0,0 14.5555241,0 14.5555241,17.95302 0,17.95302 0,0" stroke="none" fill="#FFFFFF"></polygon></g></g><g transform="translate(11.622694628571676 0.1320075000000287)"><g clip-path="url(#i2)"><polygon points="0,0 17.271107,0 17.271107,18.0850275 0,18.0850275 0,0" stroke="none" fill="#FFFFFF"></polygon></g></g><g transform="translate(25.87950462857136 0.26401499999998634)"><g clip-path="url(#i3)"><polygon points="0,0 16.0219389,0 16.0219389,17.95302 0,17.95302 0,0" stroke="none" fill="#FFFFFF"></polygon></g></g><g transform="translate(44.725649657142505 0.26401499999998634)"><g clip-path="url(#i4)"><polygon points="0,0 10.292059,0 10.292059,17.95302 0,17.95302 0,0" stroke="none" fill="#FFFFFF"></polygon></g></g><g transform="translate(54.93624120000024 0.0)"><g clip-path="url(#i5)"><polygon points="0,0 18.6560542,0 18.6560542,18.48105 0,18.48105 0,0" stroke="none" fill="#FFFFFF"></polygon></g></g><g transform="translate(77.4212672571434 0.26401499999998634)"><g clip-path="url(#i6)"><polygon points="0,0 14.1481867,0 14.1481867,17.95302 0,17.95302 0,0" stroke="none" fill="#FFFFFF"></polygon></g></g><g transform="translate(99.87913748571398 0.26401499999998634)"><g clip-path="url(#i7)"><polygon points="0,0 15.044329,0 15.044329,17.95302 0,17.95302 0,0" stroke="none" fill="#FFFFFF"></polygon></g></g><g transform="translate(117.5847377142857 0.1320075000000287)"><g clip-path="url(#i8)"><polygon points="0,0 17.271107,0 17.271107,18.0850275 0,18.0850275 0,0" stroke="none" fill="#FFFFFF"></polygon></g></g><g transform="translate(133.28080662857127 0.1848105000000544)"><g clip-path="url(#i9)"><polygon points="0,0 25.6894138,0 25.6894138,18.164232 0,18.164232 0,0" stroke="none" fill="#FFFFFF"></polygon></g></g><g transform="translate(161.76727079999986 0.26401499999998634)"><g clip-path="url(#i10)"><polygon points="0,0 14.8270824,0 14.8270824,17.95302 0,17.95302 0,0" stroke="none" fill="#FFFFFF"></polygon></g></g><g transform="translate(179.0655336000004 0.26401499999998634)"><g clip-path="url(#i11)"><polygon points="0,0 11.1610455,0 11.1610455,17.95302 0,17.95302 0,0" stroke="none" fill="#FFFFFF"></polygon></g></g><g transform="translate(192.67060371428516 7.105427357601002e-14)"><g clip-path="url(#i12)"><polygon points="0,0 11.9757204,0 11.9757204,18.428247 0,18.428247 0,0" stroke="none" fill="#FFFFFF"></polygon></g></g></g><g transform="translate(71.80405714285722 0.0)"><g clip-path="url(#i13)"><polygon points="0,0 55.9362857,0 55.9362857,54.5025 0,54.5025 0,0" stroke="none" fill="#000000"></polygon></g></g></g></g></g></svg>