<?xml version="1.0" encoding="UTF-8"?>
<svg width="248px" height="26px" viewBox="0 0 248 26" version="1.1" xmlns="http://www.w3.org/2000/svg" xmlns:xlink="http://www.w3.org/1999/xlink">
    <title>for the right</title>
    <g id="Case-studies" stroke="none" stroke-width="1" fill="none" fill-rule="evenodd">
        <g id="Annotation-Copy" transform="translate(-1438.000000, -4931.000000)" fill="#000000" fill-rule="nonzero">
            <g id="for-the-right" transform="translate(1438.920000, 4931.850000)">
                <polygon id="Path" points="0 24.15 3.43 24.15 3.43 14.07 12.145 14.07 12.145 11.025 3.43 11.025 3.43 3.43 13.475 3.43 12.95 0.35 0 0.35"></polygon>
                <path d="M28.21,24.5 C34.965,24.5 40.25,19.32 40.25,12.285 C40.25,5.25 34.965,0 28.21,0 C21.49,0 16.205,5.25 16.205,12.285 C16.205,19.32 21.49,24.5 28.21,24.5 Z M19.74,12.285 C19.74,6.51 23.87,3.15 28.21,3.15 C32.62,3.15 36.68,6.51 36.68,12.285 C36.68,17.99 32.62,21.35 28.21,21.35 C23.87,21.35 19.74,17.99 19.74,12.285 Z" id="Shape"></path>
                <path d="M45.185,24.15 L48.615,24.15 L48.615,14.875 L52.15,14.875 L52.43,14.875 L59.255,24.15 L63.42,24.15 L55.86,14.175 C58.625,13.055 60.445,10.675 60.445,7.49 C60.445,3.5 57.575,0.35 52.325,0.35 L45.185,0.35 L45.185,24.15 Z M48.615,11.9 L48.615,3.43 L52.15,3.43 C54.95,3.43 56.91,4.9 56.91,7.7 C56.91,10.395 55.02,11.9 52.045,11.9 L48.615,11.9 Z" id="Shape"></path>
                <polygon id="Path" points="79.975 24.15 83.405 24.15 83.405 3.43 91.07 3.43 91.07 0.35 72.31 0.35 72.31 3.43 79.975 3.43"></polygon>
                <polygon id="Path" points="111.02 24.15 114.45 24.15 114.45 0.35 111.02 0.35 111.02 10.745 98.49 10.745 98.49 0.35 95.06 0.35 95.06 24.15 98.49 24.15 98.49 13.825 111.02 13.825"></polygon>
                <polygon id="Path" points="120.96 24.15 134.715 24.15 135.345 21.07 124.39 21.07 124.39 13.58 133.7 13.58 133.7 10.64 124.39 10.64 124.39 3.43 134.96 3.43 134.4 0.35 120.96 0.35"></polygon>
                <path d="M148.4,24.15 L151.83,24.15 L151.83,14.875 L155.365,14.875 L155.645,14.875 L162.47,24.15 L166.635,24.15 L159.075,14.175 C161.84,13.055 163.66,10.675 163.66,7.49 C163.66,3.5 160.79,0.35 155.54,0.35 L148.4,0.35 L148.4,24.15 Z M151.83,11.9 L151.83,3.43 L155.365,3.43 C158.165,3.43 160.125,4.9 160.125,7.7 C160.125,10.395 158.235,11.9 155.26,11.9 L151.83,11.9 Z" id="Shape"></path>
                <polygon id="Path" points="169.785 24.15 173.215 24.15 173.215 0.35 169.785 0.35"></polygon>
                <path d="M190.68,24.5 C194.145,24.5 197.015,23.625 199.185,22.33 L199.185,12.11 L191.03,12.11 L190.33,15.085 L196.175,15.085 L196.175,20.23 C194.495,21.07 192.675,21.42 190.855,21.42 C185.605,21.42 181.685,17.71 181.685,12.215 C181.685,6.615 185.815,3.08 190.925,3.08 C193.795,3.08 196.28,3.955 198.52,5.67 L198.03,1.68 C196.21,0.665 193.725,0 190.89,0 C183.47,0 178.15,5.25 178.15,12.25 C178.15,19.11 183.295,24.5 190.68,24.5 Z" id="Path"></path>
                <polygon id="Path" points="220.5 24.15 223.93 24.15 223.93 0.35 220.5 0.35 220.5 10.745 207.97 10.745 207.97 0.35 204.54 0.35 204.54 24.15 207.97 24.15 207.97 13.825 220.5 13.825"></polygon>
                <polygon id="Path" points="235.585 24.15 239.015 24.15 239.015 3.43 246.68 3.43 246.68 0.35 227.92 0.35 227.92 3.43 235.585 3.43"></polygon>
            </g>
        </g>
    </g>
</svg>