<?xml version="1.0" encoding="UTF-8"?><svg version="1.1" width="25px" height="41px" viewBox="0 0 25.0 41.0" xmlns="http://www.w3.org/2000/svg" xmlns:xlink="http://www.w3.org/1999/xlink"><defs><clipPath id="i0"><path d="M1400,0 L1400,6092 L0,6092 L0,0 L1400,0 Z"></path></clipPath></defs><g transform="translate(-687.0 -857.0)"><g clip-path="url(#i0)"><g transform="translate(688.0 858.0000000000001)"><path d="M15.4218536,0.685100978 C19.8422694,2.28646418 23,6.5172231 23,11.4843957 L23,27.1556043 C23,33.4980593 17.8513271,38.64 11.5,38.64 L11.5,38.64 C5.14867286,38.64 0,33.4980593 0,27.1556043 L0,11.4843957 C0,5.14168665 5.14867286,0 11.5,0 L11.5,0 L11.5,26.6163127" stroke="#9FACAB" stroke-width="2" fill="none" stroke-linecap="round" stroke-linejoin="round"></path><g transform="translate(5.643292413184098 20.739736509940492)"><path d="M0,0.0307368255 L5.85378235,5.87657621 L11.7383433,0" stroke="#9FACAB" stroke-width="2" fill="none" stroke-linecap="round" stroke-linejoin="round"></path></g></g></g></g></svg>