<svg version="1.1" id="Layer_1" xmlns="http://www.w3.org/2000/svg" xmlns:xlink="http://www.w3.org/1999/xlink" x="0" y="0" viewBox="0 0 55 55" style="enable-background:new 0 0 55 55" xml:space="preserve"><g transform="translate(-41 -32)"><defs><path id="SVGID_1_" d="M0 0h1400v6092H0z"/></defs><clipPath id="SVGID_2_"><use xlink:href="#SVGID_1_" style="overflow:visible"/></clipPath><g transform="translate(41 32)" style="clip-path:url(#SVGID_2_)"><defs><path id="SVGID_3_" d="M14.5 35.6c.4 0 .8.3.8.8V53h10.8v-5.4c0-.4.3-.8.8-.8.4 0 .8.3.8.8v6.2c0 .4-.3.8-.8.8H14.5c-.4 0-.8-.3-.8-.8V36.4c0-.4.4-.8.8-.8zM53.6 18c.4 0 .8.3.8.8v34.9c0 .4-.3.8-.8.8H41.3c-.4 0-.8-.3-.8-.8V33.3c0-.4.3-.8.8-.8s.8.3.8.8v19.5h10.8V18.7c-.1-.4.3-.7.7-.7zM38.2 32.5c.4 0 .8.3.8.8s-.3.8-.8.8H24.5v16.6c0 .4-.3.8-.8.8h-6.2c-.4 0-.8-.3-.8-.8v-8.1c0-.4.3-.8.8-.8.4 0 .8.3.8.8v7.3H23V33.3c0-.4.3-.8.8-.8h14.4zm6.1 10.8c.4 0 .8.3.8.8v5.7h5.4c.4 0 .8.3.8.8s-.3.8-.8.8h-6.2c-.4 0-.8-.3-.8-.8V44c.1-.4.4-.7.8-.7zM20.7 29.5c.4 0 .8.3.8.8v17.3c0 .4-.3.8-.8.8-.4 0-.8-.3-.8-.8V31h-7c-.4 0-.8-.3-.8-.8s.3-.8.8-.8h7.8zm29.8-3c.4 0 .8.3.8.8v20.1c0 .4-.3.8-.8.8-.4 0-.8-.3-.8-.8V27.3c.1-.4.4-.8.8-.8zm-3.1 13.2c.4 0 .8.3.8.8v7c0 .4-.3.8-.8.8s-.8-.3-.8-.8v-7c.1-.5.4-.8.8-.8zm-20.6-4.1c.4 0 .8.3.8.8v8.1c0 .4-.3.8-.8.8-.4 0-.8-.3-.8-.8v-8.1c.1-.4.4-.8.8-.8zm17.5-6.1c.4 0 .8.3.8.8V41c0 .4-.3.8-.8.8-.4 0-.8-.3-.8-.8V31H31.7c-.4 0-.8-.3-.8-.8s.3-.8.8-.8h12.6zM3.9 20.2c.4 0 .8.3.8.8 0 .4-.3.8-.8.8H1.5v10.8h16c.4 0 .8.3.8.8v6.1c0 .4-.3.8-.8.8-.4 0-.8-.3-.8-.8v-5.3H.7c-.4 0-.8-.3-.8-.8V21c0-.4.3-.8.8-.8h3.2zm43.5-8.1c.4 0 .8.3.8.8v24.5c0 .4-.3.8-.8.8s-.8-.3-.8-.8V12.8c.1-.4.4-.7.8-.7zm-23.6-9c.4 0 .8.3.8.8V7c0 .4-.3.8-.8.8-.4 0-.8-.3-.8-.8V4.6h-4.6V24c0 .4-.3.8-.8.8h-13v4.6h5.1c.4 0 .8.3.8.8s-.3.8-.8.8H3.9c-.4 0-.8-.3-.8-.8V24c0-.4.3-.8.8-.8h12.9V3.9c0-.4.3-.8.8-.8h6.2zm4.8 26.4c.4 0 .8.3.8.8s-.4.7-.8.7h-4.9c-.4 0-.8-.3-.8-.8s.3-.8.8-.8h4.9zm7.6-3.1c.4 0 .8.3.8.8 0 .4-.3.8-.8.8H7c-.4 0-.8-.3-.8-.8 0-.4.3-.8.8-.8h29.2zm8.2 0c.4 0 .8.3.8.8 0 .4-.3.8-.8.8h-5.2c-.4 0-.8-.3-.8-.8 0-.4.3-.8.8-.8h5.2zM20.7 6.2c.4 0 .8.3.8.8v16.3h22.9c.4 0 .8.3.8.8 0 .4-.3.8-.8.8H20.7c-.4 0-.8-.3-.8-.8V6.9c0-.4.3-.7.8-.7zm29.8-3.1c.4 0 .8.3.8.8v19.6c0 .4-.3.8-.8.8-.4 0-.8-.3-.8-.8V4.6h-4.6v16.3c0 .4-.3.8-.8.8-.4 0-.8-.3-.8-.8v-17c0-.4.3-.8.8-.8h6.2zm-36 9c.4 0 .8.3.8.8V21c0 .4-.3.8-.8.8H7c-.4 0-.8-.3-.8-.8 0-.4.3-.8.8-.8h6.8v-7.3c-.1-.5.3-.8.7-.8zM41.3 14c.4 0 .8.3.8.8V21c0 .4-.3.8-.8.8H26.9c-.4 0-.8-.3-.8-.8 0-.4.3-.8.8-.8h13.6v-5.4c0-.5.3-.8.8-.8zM23.8 9.3c.4 0 .8.3.8.8V21c0 .4-.3.8-.8.8-.4 0-.8-.3-.8-.8V10c0-.4.3-.7.8-.7zm3-9.3c.4 0 .8.3.8.8v17.1c0 .4-.3.8-.8.8-.4 0-.8-.3-.8-.8V1.5H15.3v8.2c0 .4-.3.8-.8.8s-.8-.3-.8-.8v-9c0-.4.3-.8.8-.8h12.3zm26.8 0c.4 0 .8.3.8.8v14.9c0 .4-.3.8-.8.8-.4 0-.8-.3-.8-.8V1.5H42v10.1c0 .4-.3.8-.8.8s-.8-.3-.8-.8V.8c0-.4.3-.8.8-.8h12.4zm-6.2 6.2c.4 0 .8.3.8.8v2.8c0 .4-.3.8-.8.8s-.8-.3-.8-.8V6.9c.1-.4.4-.7.8-.7z"/></defs><use xlink:href="#SVGID_3_" style="fill:#ffc200;overflow:visible"/><clipPath id="SVGID_4_"><use xlink:href="#SVGID_3_" style="overflow:visible"/></clipPath><g style="clip-path:url(#SVGID_4_)"><path style="fill:#ffc200" d="M0 0h54.4v54.5H0z"/></g></g></g></svg>