<?xml version="1.0" encoding="UTF-8"?><svg version="1.1" width="55px" height="55px" viewBox="0 0 55.0 55.0" xmlns="http://www.w3.org/2000/svg" xmlns:xlink="http://www.w3.org/1999/xlink"><defs><clipPath id="i0"><path d="M1400,0 L1400,6092 L0,6092 L0,0 L1400,0 Z"></path></clipPath><clipPath id="i1"><path d="M14.4825,35.6225 C14.9075,35.6225 15.2525,35.9675 15.2525,36.3925 L15.2525,52.9625 L26.1,52.9625 L26.1,47.55 C26.1,47.125 26.445,46.7825 26.87,46.7825 C27.295,46.7825 27.6375,47.125 27.6375,47.55 L27.6375,53.7325 C27.6375,54.1575 27.295,54.5025 26.87,54.5025 L14.4825,54.5025 C14.0575,54.5025 13.7125,54.1575 13.7125,53.7325 L13.7125,36.3925 C13.7125,35.9675 14.0575,35.6225 14.4825,35.6225 Z M53.615,17.965 C54.04,17.965 54.3825,18.31 54.3825,18.7325 L54.3825,53.615 C54.3825,54.0375 54.04,54.3825 53.615,54.3825 L41.25,54.3825 C40.825,54.3825 40.4825,54.0375 40.4825,53.615 L40.4825,33.3125 C40.4825,32.8875 40.825,32.545 41.25,32.545 C41.675,32.545 42.02,32.8875 42.02,33.3125 L42.02,52.845 L52.845,52.845 L52.845,18.7325 C52.845,18.31 53.19,17.965 53.615,17.965 Z M38.1725,32.545 C38.595,32.545 38.94,32.8875 38.94,33.3125 C38.94,33.7375 38.595,34.0825 38.1725,34.0825 L24.525,34.0825 L24.525,50.6425 C24.525,51.0675 24.18,51.41 23.755,51.41 L17.5725,51.41 C17.1475,51.41 16.805,51.0675 16.805,50.6425 L16.805,42.5475 C16.805,42.1225 17.1475,41.7775 17.5725,41.7775 C17.9975,41.7775 18.3425,42.1225 18.3425,42.5475 L18.3425,49.8725 L22.9875,49.8725 L22.9875,33.3125 C22.9875,32.8875 23.33,32.545 23.755,32.545 Z M44.3425,43.2775 C44.765,43.2775 45.11,43.6225 45.11,44.0475 L45.11,49.755 L50.5225,49.755 C50.9475,49.755 51.2925,50.0975 51.2925,50.5225 C51.2925,50.9475 50.9475,51.2925 50.5225,51.2925 L44.3425,51.2925 C43.9175,51.2925 43.5725,50.9475 43.5725,50.5225 L43.5725,44.0475 C43.5725,43.6225 43.9175,43.2775 44.3425,43.2775 Z M20.665,29.4525 C21.09,29.4525 21.4325,29.7975 21.4325,30.2225 L21.4325,47.55 C21.4325,47.975 21.09,48.32 20.665,48.32 C20.24,48.32 19.895,47.975 19.895,47.55 L19.895,30.9925 L12.895,30.9925 C12.47,30.9925 12.125,30.6475 12.125,30.2225 C12.125,29.7975 12.47,29.4525 12.895,29.4525 Z M50.5225,26.55 C50.9475,26.55 51.2925,26.8925 51.2925,27.3175 L51.2925,47.4325 C51.2925,47.8575 50.9475,48.2 50.5225,48.2 C50.1,48.2 49.755,47.8575 49.755,47.4325 L49.755,27.3175 C49.755,26.8925 50.1,26.55 50.5225,26.55 Z M47.4325,39.66 C47.8575,39.66 48.2025,40.005 48.2025,40.43 L48.2025,47.4325 C48.2025,47.8575 47.8575,48.2 47.4325,48.2 C47.0075,48.2 46.6625,47.8575 46.6625,47.4325 L46.6625,40.43 C46.6625,40.005 47.0075,39.66 47.4325,39.66 Z M26.845,35.6225 C27.27,35.6225 27.615,35.9675 27.615,36.3925 L27.615,44.4725 C27.615,44.895 27.27,45.24 26.845,45.24 C26.4225,45.24 26.0775,44.895 26.0775,44.4725 L26.0775,36.3925 C26.0775,35.9675 26.4225,35.6225 26.845,35.6225 Z M44.3425,29.4525 C44.765,29.4525 45.11,29.7975 45.11,30.2225 L45.11,40.9675 C45.11,41.3925 44.765,41.7375 44.3425,41.7375 C43.9175,41.7375 43.5725,41.3925 43.5725,40.9675 L43.5725,30.9925 L31.7325,30.9925 C31.3075,30.9925 30.965,30.6475 30.965,30.2225 C30.965,29.7975 31.3075,29.4525 31.7325,29.4525 Z M3.86,20.18 C4.285,20.18 4.63,20.525 4.63,20.95 C4.63,21.375 4.285,21.7175 3.86,21.7175 L1.5375,21.7175 L1.5375,32.545 L17.5725,32.545 C17.9975,32.545 18.3425,32.8875 18.3425,33.3125 L18.3425,39.39 C18.3425,39.815 17.9975,40.1575 17.5725,40.1575 C17.1475,40.1575 16.805,39.815 16.805,39.39 L16.805,34.0825 L0.77,34.0825 C0.345,34.0825 0,33.7375 0,33.3125 L0,20.95 C0,20.525 0.345,20.18 0.77,20.18 Z M47.4325,12.065 C47.8575,12.065 48.2025,12.4075 48.2025,12.8325 L48.2025,37.34 C48.2025,37.765 47.8575,38.1075 47.4325,38.1075 C47.0075,38.1075 46.6625,37.765 46.6625,37.34 L46.6625,12.8325 C46.6625,12.4075 47.0075,12.065 47.4325,12.065 Z M23.755,3.0925 C24.18,3.0925 24.525,3.435 24.525,3.86 L24.525,6.95 C24.525,7.375 24.18,7.72 23.755,7.72 C23.33,7.72 22.9875,7.375 22.9875,6.95 L22.9875,4.63 L18.3425,4.63 L18.3425,24.04 C18.3425,24.465 17.9975,24.81 17.5725,24.81 L4.63,24.81 L4.63,29.4525 L9.7375,29.4525 C10.1625,29.4525 10.5075,29.7975 10.5075,30.2225 C10.5075,30.6475 10.1625,30.9925 9.7375,30.9925 L3.86,30.9925 C3.435,30.9925 3.0925,30.6475 3.0925,30.2225 L3.0925,24.04 C3.0925,23.615 3.435,23.2725 3.86,23.2725 L16.805,23.2725 L16.805,3.86 C16.805,3.435 17.1475,3.0925 17.5725,3.0925 Z M28.625,29.4525 C29.05,29.4525 29.3925,29.7975 29.3925,30.2225 C29.3925,30.6475 29.05,30.9925 28.625,30.9925 L23.755,30.9925 C23.33,30.9925 22.9875,30.6475 22.9875,30.2225 C22.9875,29.7975 23.33,29.4525 23.755,29.4525 Z M36.2,26.3625 C36.625,26.3625 36.97,26.7075 36.97,27.1325 C36.97,27.555 36.625,27.9 36.2,27.9 L6.9525,27.9 C6.5275,27.9 6.1825,27.555 6.1825,27.1325 C6.1825,26.7075 6.5275,26.3625 6.9525,26.3625 Z M44.4425,26.3625 C44.8675,26.3625 45.21,26.7075 45.21,27.1325 C45.21,27.555 44.8675,27.9 44.4425,27.9 L39.28,27.9 C38.855,27.9 38.51,27.555 38.51,27.1325 C38.51,26.7075 38.855,26.3625 39.28,26.3625 Z M20.665,6.1825 C21.09,6.1825 21.4325,6.5275 21.4325,6.95 L21.4325,23.2725 L44.3425,23.2725 C44.765,23.2725 45.11,23.615 45.11,24.04 C45.11,24.465 44.765,24.81 44.3425,24.81 L20.665,24.81 C20.24,24.81 19.895,24.465 19.895,24.04 L19.895,6.95 C19.895,6.5275 20.24,6.1825 20.665,6.1825 Z M50.5225,3.0925 C50.9475,3.0925 51.2925,3.435 51.2925,3.86 L51.2925,23.47 C51.2925,23.895 50.9475,24.2375 50.5225,24.2375 C50.1,24.2375 49.755,23.895 49.755,23.47 L49.755,4.63 L45.11,4.63 L45.11,20.925 C45.11,21.3475 44.78,21.71 44.355,21.7175 C43.925,21.7275 43.5725,21.38 43.5725,20.95 L43.5725,3.86 C43.5725,3.435 43.9175,3.0925 44.3425,3.0925 Z M14.4825,12.065 C14.9075,12.065 15.2525,12.4075 15.2525,12.8325 L15.2525,20.95 C15.2525,21.375 14.9075,21.7175 14.4825,21.7175 L6.9525,21.7175 C6.5275,21.7175 6.1825,21.375 6.1825,20.95 C6.1825,20.525 6.5275,20.18 6.9525,20.18 L13.7125,20.18 L13.7125,12.8325 C13.7125,12.4075 14.0575,12.065 14.4825,12.065 Z M41.25,14 C41.675,14 42.02,14.3425 42.02,14.7675 L42.02,20.95 C42.02,21.375 41.675,21.7175 41.25,21.7175 L26.87,21.7175 C26.445,21.7175 26.1,21.375 26.1,20.95 C26.1,20.525 26.445,20.18 26.87,20.18 L40.4825,20.18 L40.4825,14.7675 C40.4825,14.3425 40.825,14 41.25,14 Z M23.755,9.2625 C24.18,9.2625 24.525,9.605 24.525,10.03 L24.525,20.95 C24.525,21.375 24.18,21.7175 23.755,21.7175 C23.33,21.7175 22.9875,21.375 22.9875,20.95 L22.9875,10.03 C22.9875,9.605 23.33,9.2625 23.755,9.2625 Z M26.845,0 C27.27,0 27.615,0.345 27.615,0.77 L27.615,17.92 C27.615,18.3425 27.27,18.6875 26.845,18.6875 C26.4225,18.6875 26.0775,18.3425 26.0775,17.92 L26.0775,1.5375 L15.2525,1.5375 L15.2525,9.7525 C15.2525,10.1775 14.9075,10.5225 14.4825,10.5225 C14.0575,10.5225 13.7125,10.1775 13.7125,9.7525 L13.7125,0.77 C13.7125,0.345 14.0575,0 14.4825,0 Z M53.615,0 C54.04,0 54.3825,0.345 54.3825,0.77 L54.3825,15.655 C54.3825,16.08 54.04,16.4225 53.615,16.4225 C53.19,16.4225 52.845,16.08 52.845,15.655 L52.845,1.5375 L42.02,1.5375 L42.02,11.6575 C42.02,12.0825 41.675,12.4275 41.25,12.4275 C40.825,12.4275 40.4825,12.0825 40.4825,11.6575 L40.4825,0.77 C40.4825,0.345 40.825,0 41.25,0 Z M47.4325,6.1825 C47.8575,6.1825 48.2025,6.5275 48.2025,6.95 L48.2025,9.7525 C48.2025,10.1775 47.8575,10.5225 47.4325,10.5225 C47.0075,10.5225 46.6625,10.1775 46.6625,9.7525 L46.6625,6.95 C46.6625,6.5275 47.0075,6.1825 47.4325,6.1825 Z"></path></clipPath></defs><g transform="translate(-41.0 -32.0)"><g clip-path="url(#i0)"><g transform="translate(41.0 32.0)"><g clip-path="url(#i1)"><polygon points="0,0 54.3825,0 54.3825,54.5025 0,54.5025 0,0" stroke="none" fill="#000000"></polygon></g></g></g></g></svg>