<?xml version="1.0" encoding="UTF-8"?>
<svg id="Layer_2" data-name="Layer 2" xmlns="http://www.w3.org/2000/svg" viewBox="0 0 130.55 14.19">
  <defs>
    <style>.cls-1 {
  fill: #fff;
}

</style>
  </defs>
  <g id="Fonts">
    <g>
      <path class="cls-1" d="M6.12,.1h.99l6.14,13.88h-2.53l-1.34-3.24H3.87l-1.34,3.24H0L6.12,.1Zm2.41,8.59l-1.88-4.56h-.04l-1.88,4.56h3.81Z"></path>
      <path class="cls-1" d="M13.74,7.09c0-4.17,3.12-7.09,7.01-7.09,1.38,0,2.67,.32,3.65,.91l.28,2.71c-1.15-.89-2.41-1.46-3.83-1.46-2.82,0-4.6,2.17-4.6,4.92s1.76,4.92,4.68,4.92c1.5,0,3.02-.57,4.13-1.44l-.49,2.61c-1.03,.69-2.31,.99-3.73,.99-4.17,0-7.11-3-7.11-7.09Z"></path>
      <path class="cls-1" d="M26.5,7.09c0-4.17,3.12-7.09,7.01-7.09,1.38,0,2.67,.32,3.65,.91l.28,2.71c-1.16-.89-2.41-1.46-3.83-1.46-2.82,0-4.6,2.17-4.6,4.92s1.76,4.92,4.68,4.92c1.5,0,3.02-.57,4.13-1.44l-.49,2.61c-1.03,.69-2.31,.99-3.73,.99-4.17,0-7.11-3-7.11-7.09Z"></path>
      <path class="cls-1" d="M39.26,7.09c0-4.09,3.12-7.09,7.05-7.09s7.03,3,7.03,7.09-3.1,7.09-7.03,7.09-7.05-2.96-7.05-7.09Zm7.05,4.88c2.37,0,4.5-1.8,4.5-4.88s-2.13-4.88-4.5-4.88-4.54,1.8-4.54,4.88,2.17,4.88,4.54,4.88Z"></path>
      <path class="cls-1" d="M55.81,8.29V.2h2.43V8.27c0,2.55,1.42,3.75,3.34,3.75s3.36-1.21,3.36-3.73V.2h2.41V8.31c0,3.69-2.53,5.86-5.78,5.86s-5.77-2.17-5.77-5.88Z"></path>
      <path class="cls-1" d="M73.08,4.8h-.04l.02,9.18h-2.39V.1h1.05l8.33,9.08h.04l-.04-8.98h2.39V14.08h-.93l-8.43-9.28Z"></path>
      <path class="cls-1" d="M88.94,2.37h-4.34V.2h11.08V2.37h-4.32V13.98h-2.43V2.37Z"></path>
      <path class="cls-1" d="M97.85,.2h2.43V13.98h-2.43V.2Z"></path>
      <path class="cls-1" d="M106.18,4.8h-.04l.02,9.18h-2.39V.1h1.05l8.33,9.08h.04l-.04-8.98h2.39V14.08h-.93l-8.43-9.28Z"></path>
      <path class="cls-1" d="M118.17,7.07c0-4.09,3.16-7.07,7.46-7.07,1.58,0,3.12,.37,4.17,.97l.26,2.7c-1.34-1.01-2.8-1.5-4.42-1.5-2.88,0-4.96,1.97-4.96,4.9s2.11,4.94,4.86,4.94c1.03,0,1.99-.18,2.96-.63v-2.57h-3.24l.43-2.07h4.86v6.1c-1.28,.79-2.96,1.34-5.11,1.34-4.24,0-7.27-3.02-7.27-7.11Z"></path>
    </g>
  </g>
</svg>