<?xml version="1.0" encoding="UTF-8"?>
<svg id="Layer_2" data-name="Layer 2" xmlns="http://www.w3.org/2000/svg" viewBox="0 0 189.12 15.62">
  <defs>
    <style>.cls-1 {
  fill: #fff;
}

</style>
  </defs>
  <g id="Fonts">
    <g>
      <path class="cls-1" d="M1.84,13.18c-.38-.29-.7-.65-.94-1.09-.24-.43-.44-.9-.57-1.38-.14-.49-.23-.99-.28-1.51C0,8.67,0,8.17,0,7.7c.12-.36,.26-.68,.44-.98,.17-.3,.36-.58,.57-.85,.21-.27,.43-.53,.66-.77,.23-.24,.46-.49,.68-.74,.08,0,.15,.02,.22,.06,.05-.14,.13-.27,.24-.38s.22-.2,.34-.29c.12-.09,.24-.17,.36-.26,.12-.09,.22-.19,.3-.31,.33-.08,.62-.19,.88-.34,.26-.14,.5-.3,.74-.47s.48-.33,.73-.47c.25-.15,.54-.26,.87-.34,.12-.13,.27-.24,.45-.34,.18-.09,.36-.18,.53-.26,.18-.08,.35-.17,.51-.26,.16-.09,.3-.22,.41-.38,.08,.11,.19,.14,.34,.11s.28-.07,.4-.11c.08-.01,.15,0,.2,.04,.05,.04,.1,.08,.15,.13,.05,.05,.09,.08,.12,.09,.03,.01,.07-.03,.11-.12,.11,.01,.13,.06,.09,.14-.05,.08-.08,.13-.09,.16,.13-.03,.24,0,.33,.07s.22,.12,.41,.15c.07,.07,.08,.12,.06,.16-.03,.04-.05,.11-.06,.2,.47,.14,.78,.37,.91,.68,.13,.31,.15,.63,.04,.97s-.3,.65-.58,.93c-.28,.28-.6,.47-.94,.56-.41,.11-.79,.21-1.14,.32s-.69,.22-1.01,.36c-.32,.13-.63,.29-.91,.46-.28,.18-.53,.39-.74,.62-.37,.11-.7,.25-1,.44s-.57,.39-.83,.61c-.26,.22-.5,.46-.74,.7-.24,.24-.48,.48-.71,.72,0,.22-.04,.4-.12,.52-.08,.12-.17,.24-.26,.36,.03,.25,.08,.46,.17,.64,.08,.18,.17,.36,.27,.54,1.05,.32,2.17,.51,3.35,.58s2.35,.12,3.51,.13c.12,.16,.25,.31,.41,.45s.29,.28,.42,.43c.12,.15,.22,.31,.3,.5,.07,.19,.09,.42,.05,.68-.22,.22-.47,.44-.73,.64-.26,.21-.53,.41-.79,.6-.12,.01-.26,.01-.42,0-.17-.01-.34-.02-.51-.02s-.36,0-.53,.03-.35,.06-.5,.13c-.83-.03-1.68-.13-2.55-.31s-1.67-.39-2.41-.64c-.14-.17-.3-.33-.46-.48-.16-.15-.37-.26-.63-.33Z"></path>
      <path class="cls-1" d="M12.94,13.2c-.07,.01-.12-.04-.18-.15-.05-.11-.11-.22-.18-.33h.22c-.09-.29-.12-.56-.07-.8,.05-.24,.1-.48,.17-.71,.07-.23,.12-.46,.17-.67,.05-.22,.02-.45-.07-.68,.07,.04,.12,.02,.15-.05,.03-.07,.06-.16,.08-.28,.02-.11,.03-.23,.02-.36,0-.12-.02-.23-.03-.31,.17-.41,.31-.83,.41-1.27s.19-.87,.27-1.3c.08-.43,.17-.84,.27-1.25s.23-.78,.39-1.14c.18-.03,.38,0,.58,.07,.2,.07,.34,.16,.41,.27,.41-.32,.77-.7,1.09-1.15,.32-.45,.64-.89,.96-1.32s.69-.81,1.1-1.14c.41-.33,.92-.53,1.52-.59,.32,.22,.67,.46,1.07,.72,.4,.26,.72,.58,.97,.96,.11,.06,.21,.13,.31,.21s.2,.14,.31,.21v.3c.18,.17,.34,.37,.46,.6s.24,.47,.34,.73c.1,.26,.19,.52,.29,.78,.09,.26,.2,.51,.32,.73-.03,.08-.04,.15-.03,.21,0,.06,.02,.12,.04,.18,.02,.06,.04,.13,.05,.2,.01,.07,.02,.16,.02,.27-.05,.7-.28,1.26-.68,1.69-.4,.43-.89,.78-1.46,1.05-.57,.27-1.18,.5-1.83,.69-.65,.19-1.23,.4-1.76,.62,0,.05,.03,.08,.09,.08s.08,.04,.05,.12c.4,.24,.7,.43,.92,.57s.42,.27,.61,.37c.19,.1,.4,.18,.63,.25,.23,.07,.55,.15,.96,.24s.73,.17,.96,.23c.23,.06,.44,.11,.62,.14s.38,.06,.59,.09c.21,.03,.49,.06,.85,.1,.14,.15,.26,.32,.36,.52,.09,.2,.16,.39,.2,.59,.04,.2,.05,.38,.03,.56-.02,.18-.08,.32-.17,.43,.01,.05,.05,.08,.11,.07,.06,0,.12,0,.19,.01-.09,.06-.17,.14-.24,.24-.07,.09-.13,.19-.2,.28-.07,.09-.14,.18-.23,.26-.09,.08-.19,.12-.33,.14-.47,.18-1.08,.19-1.82,.02-.74-.17-1.68-.47-2.83-.91-.57-.21-1.03-.4-1.38-.57s-.67-.34-.93-.5c-.26-.17-.51-.34-.73-.54-.22-.19-.48-.42-.77-.68-.04,.01-.06,.04-.07,.08s-.03,.07-.07,.08c-.07,.53-.17,.96-.31,1.29-.14,.33-.34,.67-.6,1.01-.21-.04-.35-.02-.42,.06-.07,.08-.16,.15-.27,.22-.13,.03-.23,.02-.3-.01-.07-.03-.13-.07-.18-.11-.05-.04-.11-.08-.18-.12-.07-.04-.17-.05-.32-.04-.04-.12-.08-.23-.12-.35-.04-.11-.15-.16-.32-.15,.04-.12,.05-.22,.04-.31-.01-.08-.03-.16-.06-.24s-.05-.15-.07-.23c-.02-.08,0-.17,.03-.28Zm6.61-9.04c-.17,.25-.36,.48-.57,.68s-.42,.42-.62,.63-.39,.46-.54,.71c-.16,.26-.27,.56-.34,.92,.55-.07,1.13-.22,1.74-.46s1.18-.48,1.72-.7c-.07-.49-.24-.88-.51-1.18-.28-.3-.57-.5-.87-.6Z"></path>
      <path class="cls-1" d="M26.6,14.22c-.11-.11-.18-.23-.23-.38-.05-.14-.16-.26-.33-.36-.03-.2-.06-.43-.11-.68-.05-.26-.09-.52-.14-.79s-.08-.54-.1-.81c-.02-.27,0-.52,.03-.74,.03-.12,.07-.23,.13-.34s.12-.21,.18-.31c.06-.1,.11-.2,.14-.31,.03-.11,.04-.21,0-.32,.08-.01,.13-.05,.15-.13s.08-.1,.19-.07c.09-.29,.19-.56,.3-.81s.22-.49,.34-.73c.12-.24,.24-.48,.37-.72,.12-.24,.24-.52,.35-.82-.22-.21-.39-.44-.48-.68-.1-.24-.17-.49-.23-.74-.05-.25-.09-.51-.12-.76-.03-.26-.08-.52-.16-.78,.16-.24,.35-.43,.57-.58,.22-.15,.47-.28,.74-.38,.27-.1,.56-.18,.88-.24,.32-.06,.65-.13,1.01-.21,.63-.2,1.2-.35,1.7-.46,.5-.11,.99-.2,1.46-.28,.47-.07,.97-.14,1.48-.2,.51-.06,1.11-.15,1.78-.27,.01,.04,.04,.06,.07,.06h.13c.04,.09,.11,.14,.22,.14,0-.04,0-.08,0-.11,0-.03,0-.06,0-.09,.03,0,.06,0,.11,.02,.05,.01,.09,.03,.12,.04,.03,.01,.06,0,.09,0,.03-.02,.03-.06,.02-.13,.16,.28,.36,.5,.61,.68,.25,.18,.53,.33,.83,.46,.01,.12,.02,.21,0,.26s-.02,.1-.03,.15c-.01,.05-.02,.1-.02,.16s.01,.14,.04,.25c-.21,.36-.45,.63-.72,.83s-.56,.35-.86,.46-.62,.19-.96,.24c-.34,.05-.68,.11-1.03,.17-.35,.06-.7,.14-1.06,.25-.36,.11-.71,.27-1.05,.48-.11-.04-.2-.06-.29-.05-.09,0-.17,.02-.27,.05-.09,.03-.19,.05-.31,.08-.11,.03-.25,.03-.41,0-.11,.09-.23,.16-.37,.2-.14,.04-.28,.08-.42,.12,.07,.14,.09,.29,.09,.44,0,.14,0,.27,.05,.38,.55,.05,1.17,.05,1.84,0,.67-.06,1.33-.1,1.98-.13,.01,.06,0,.11-.02,.14-.03,.03-.04,.07-.04,.14,.12,.08,.23,.18,.34,.3s.21,.23,.33,.35c.11,.11,.23,.2,.35,.28,.12,.07,.26,.1,.42,.09,.07,.13,.11,.27,.14,.42,.03,.14,0,.3-.06,.46-.26,.17-.52,.35-.77,.52s-.51,.34-.78,.48c-.27,.15-.56,.26-.88,.36-.32,.09-.66,.13-1.03,.12h-.17s-.1-.03-.17-.08c-.13,.07-.31,.09-.52,.07-.22-.02-.4,0-.54,.07-.19-.07-.4-.1-.64-.1s-.46-.03-.64-.1c-.24,.34-.46,.7-.67,1.08-.21,.38-.4,.78-.55,1.2,.54,.08,.99,.11,1.34,.1,.36-.01,.69-.04,1.01-.08,.32-.04,.64-.08,.98-.12,.34-.04,.75-.05,1.24-.04,.33-.16,.71-.27,1.14-.33,.43-.06,.83-.15,1.2-.27,.13,.04,.24,.12,.34,.23,.09,.11,.18,.22,.27,.34,.09,.11,.17,.21,.27,.29,.09,.08,.21,.11,.36,.08,.07,.07,.11,.14,.13,.24,.02,.09,.04,.18,.06,.26,.02,.08,.05,.14,.09,.19,.04,.05,.11,.06,.22,.05-.25,.52-.53,.91-.84,1.19-.31,.28-.66,.49-1.05,.64-.39,.15-.82,.27-1.31,.34s-1.02,.16-1.61,.27c-.15,.03-.27,.02-.37,0-.1-.03-.2-.05-.31-.05-.37,.07-.81,.13-1.32,.2-.51,.07-1.02,.09-1.53,.08-.51-.01-1.01-.08-1.48-.2-.47-.12-.87-.33-1.19-.63Z"></path>
      <path class="cls-1" d="M37.67,13.02l.26-.2,.02-.42c.33-.8,.67-1.57,1.02-2.31,.35-.74,.72-1.5,1.1-2.28,.12-.25,.24-.5,.37-.75,.13-.25,.25-.51,.37-.77-.01-.05-.02-.11-.02-.17s.01-.13,.04-.21c.18-.26,.33-.5,.45-.71s.22-.43,.33-.65c.12-.26,.25-.53,.39-.79,.14-.26,.31-.52,.52-.77l.14-.2,.22,.02c.05-.03,.11-.05,.17-.07,.06-.02,.14-.03,.23-.03l.36,.06c.44-.2,.82-.48,1.16-.86,.34-.38,.68-.83,1.02-1.36l.24-.34,.32,.2c.07,.04,.17,.08,.32,.12,.14,.04,.3,.09,.46,.14,.28,.06,.55,.14,.81,.23,.26,.09,.47,.2,.61,.35l.1,.18c.03,.14,.05,.28,.07,.39,.02,.12,.04,.24,.07,.36,.05,.28,.1,.55,.14,.82,.04,.27,.07,.57,.08,.9,.07,.26,.13,.53,.19,.8s.12,.54,.17,.8c.07,.38,.14,.75,.22,1.1,.08,.35,.18,.68,.32,1,.13,0,.21,0,.24,.02,.16-.07,.34-.11,.55-.12l.26-.02,.08,.24s.06,.08,.1,.12c.04,.04,.09,.08,.14,.12,.21,.01,.37,.06,.46,.13s.18,.14,.25,.21c.03,.03,.06,.06,.1,.09,.04,.03,.07,.06,.1,.07l.36,.14-.2,.38c-.15,.28-.37,.55-.66,.81s-.63,.48-1,.65c.03,.09,.04,.18,.05,.26,0,.08,.02,.17,.05,.28,.05,.26,.09,.54,.13,.82,.03,.29,.03,.58,0,.88-.13,.34-.29,.65-.46,.92-.18,.27-.39,.52-.63,.73-.24,.22-.52,.4-.82,.53-.3,.14-.62,.21-.95,.23-.19-.04-.32-.09-.41-.14s-.16-.11-.23-.16c-.11-.08-.19-.13-.26-.16l-.26-.12,.08-.3c.04-.11,.04-.2-.01-.28-.05-.08-.14-.18-.29-.32-.05-.04-.1-.08-.14-.13-.04-.04-.09-.09-.14-.15l-.4-.46,.65-.18c.4-.11,.66-.24,.79-.4,.13-.17,.18-.46,.16-.88-.33-.07-.6-.08-.81-.03-.21,.04-.42,.1-.63,.15-.3,.08-.6,.15-.89,.21s-.61,.09-.95,.09c-.22,0-.46-.02-.71-.06l-.22-.02-.06-.22s-.02-.06-.05-.09-.06-.06-.09-.09c-.07-.08-.15-.19-.24-.32-.09-.13-.11-.29-.06-.49-.09-.14-.15-.3-.16-.46-.05,.11-.1,.21-.13,.31-.03,.1-.06,.2-.09,.29l-.08,.26-.26,.04s-.05,.07-.07,.12-.02,.09,0,.12l.08,.22-.2,.18s-.06,.07-.1,.1c-.04,.03-.07,.05-.1,.08-.03,.15-.06,.29-.11,.42-.05,.13-.1,.26-.15,.4-.07,.21-.13,.41-.19,.61-.06,.2-.09,.39-.09,.59l-.08,.26c-.07,.11-.15,.19-.25,.24-.1,.05-.19,.1-.29,.14-.13,.05-.22,.11-.28,.16l-.06,.26-.3,.04c-.17,.04-.29,.06-.37,.08-.07,.01-.16,.02-.25,.02l-.26-.02c-.16-.16-.29-.28-.39-.37s-.21-.16-.35-.23l-.12-.16c-.05-.11-.09-.2-.1-.29-.01-.08-.03-.17-.06-.27-.03-.17-.07-.29-.12-.36l-.3-.3Zm6.31-5.14c-.18,.26-.36,.54-.53,.83,.09-.01,.18-.02,.27-.02s.17,0,.27-.02c.46-.03,.89-.06,1.29-.1,.4-.04,.82-.11,1.29-.2-.11-.49-.22-.99-.35-1.49s-.26-1.02-.41-1.53l-.1,.2c-.33,.36-.65,.74-.95,1.15s-.55,.8-.75,1.17l-.02,.02Z"></path>
      <path class="cls-1" d="M51.84,3.74c-.01-.11-.04-.2-.07-.29-.03-.09-.07-.18-.11-.29-.07-.16-.12-.33-.18-.51-.05-.19-.08-.4-.08-.65,.03-.13,.06-.23,.1-.29,.04-.06,.08-.11,.12-.15l.08-.36h.3c.11,.01,.21,.02,.33,.02h.33c.5,0,1.02-.02,1.54-.06,.53-.04,1.07-.09,1.62-.14,.61-.08,1.26-.14,1.96-.18,.07-.14,.11-.24,.13-.28l.07-.14,.22-.12c.3-.01,.51,.02,.63,.11,.12,.09,.21,.17,.28,.25,.34-.03,.69-.06,1.05-.11,.36-.05,.72-.1,1.11-.15,.53-.07,1.06-.13,1.6-.2,.54-.07,1.07-.1,1.58-.1,.22,0,.43,0,.63,.02s.39,.03,.57,.06l.24,.18c.05,.09,.12,.18,.2,.26,.08,.08,.17,.16,.28,.24,.2,.16,.39,.36,.58,.59,.19,.24,.26,.59,.21,1.05l-.1,.2c-.05,.05-.12,.11-.2,.16l-.2,.26h-.22c-.13,0-.23,0-.3,.03-.07,.02-.15,.05-.24,.09-.05,.03-.11,.05-.18,.07-.07,.02-.14,.04-.22,.07-.15-.01-.26-.02-.34-.02h-.28c-.4,0-.83,.03-1.29,.08-.46,.05-.91,.11-1.35,.18-.32,.04-.62,.08-.91,.11s-.55,.06-.79,.09c-.13,.34-.25,.65-.36,.91s-.22,.53-.34,.79c-.12,.27-.23,.53-.34,.8-.11,.27-.2,.57-.3,.9-.16,.24-.29,.47-.4,.68s-.19,.46-.26,.74c-.2,.22-.34,.47-.43,.73s-.16,.49-.23,.67l-.08,.3c-.09,.09-.15,.16-.17,.22-.02,.05-.06,.11-.11,.18-.04,.17-.09,.34-.16,.49-.03,.07-.05,.13-.08,.21s-.03,.13-.02,.17c-.03,.15-.07,.26-.12,.34,0,.08,0,.16-.02,.24-.01,.08-.03,.16-.04,.24-.03,.09-.05,.17-.06,.25-.01,.07,0,.14,.02,.21,.04,.05,.08,.11,.12,.16,.04,.05,.07,.12,.1,.2,.03,.03,.06,.05,.1,.06,.04,.01,.07,.03,.1,.06,.11,.09,.2,.14,.3,.16l.2,.24c.08,.47,0,.84-.22,1.11-.24,.3-.63,.46-1.19,.46l-.28-.02c-.09-.09-.15-.15-.16-.18-.12-.05-.22-.1-.3-.13s-.15-.1-.22-.19c-.03-.03-.06-.04-.1-.05-.04,0-.07-.02-.1-.05-.13-.04-.24-.08-.32-.14l-.22-.12c.01-.13,.02-.22,.02-.28-.11-.14-.19-.3-.25-.47s-.11-.35-.15-.54c-.04-.14-.08-.28-.11-.39-.03-.12-.08-.22-.15-.32-.03-.92,.06-1.7,.26-2.33,.2-.62,.42-1.24,.65-1.83,.13-.32,.26-.64,.38-.97,.12-.33,.22-.67,.32-1.01l.22-.22c.09-.08,.15-.12,.18-.14,0-.17,.03-.34,.1-.5,.07-.16,.14-.33,.22-.5,.05-.11,.1-.21,.15-.32s.08-.2,.09-.28c-.09,0-.17,0-.25,0-.07,0-.15,.02-.23,.03-.17,.04-.34,.06-.49,.06-.12,0-.21,0-.26-.02-.11,.05-.2,.08-.3,.09-.09,0-.18,0-.28,0h-.48c-.16,0-.28,.02-.38,.06h-1.01c-.11,0-.22,0-.36-.03-.13-.02-.27-.07-.42-.15l-.14-.16c-.08-.14-.15-.22-.22-.24l-.22-.06v-.22Z"></path>
      <path class="cls-1" d="M64.05,15.13c-.18-.12-.33-.27-.44-.46-.11-.18-.21-.38-.28-.59-.07-.21-.13-.43-.18-.66-.05-.23-.1-.45-.15-.66,0-.19,.04-.32,.12-.41s.17-.17,.26-.25c.32-.01,.6-.04,.85-.08,.25-.04,.49-.08,.73-.12s.48-.08,.71-.11c.24-.03,.49-.05,.77-.05,.2-.41,.38-.8,.55-1.18,.17-.38,.34-.73,.49-1.08,.08-.33,.18-.63,.31-.92,.12-.28,.25-.55,.37-.81,.12-.26,.22-.51,.32-.77,.09-.26,.15-.53,.18-.82,.16-.46,.3-.89,.42-1.28,.13-.39,.22-.85,.29-1.39-.5,.08-.9,.16-1.21,.23s-.52,.14-.65,.21c-.26-.01-.47-.07-.62-.16-.15-.09-.27-.21-.37-.34-.09-.13-.17-.28-.24-.46-.07-.17-.15-.35-.24-.54,.05-.12,.07-.29,.04-.52s-.11-.4-.24-.5c.11-.03,.18-.12,.24-.27,.05-.15,.06-.27,.02-.35,.22-.07,.46-.11,.71-.13,.25-.02,.5-.04,.74-.06s.48-.04,.7-.08c.22-.03,.42-.1,.57-.21,.69-.03,1.4-.05,2.15-.08,.75-.03,1.43-.06,2.07-.1,.24,.08,.51,.12,.82,.12s.62,.02,.93,.06c.31,.04,.59,.13,.83,.26,.24,.13,.41,.36,.5,.69,.2,.03,.35,.08,.45,.16,.1,.08,.16,.17,.19,.29,.03,.11,.04,.24,.03,.38s0,.27,0,.41c-.21,.16-.48,.29-.8,.38-.32,.1-.68,.18-1.06,.24-.38,.06-.78,.1-1.2,.12-.42,.02-.82,.04-1.22,.05-.07,.44-.18,.95-.35,1.53-.17,.59-.33,1.16-.5,1.72s-.32,1.06-.45,1.5c-.12,.44-.18,.73-.17,.86-.13,.3-.24,.56-.33,.77s-.17,.41-.24,.59c-.07,.18-.15,.37-.22,.54s-.16,.38-.27,.6h1.35c.03,.14,.09,.24,.18,.3,.09,.05,.19,.1,.3,.14s.2,.09,.29,.15,.13,.15,.13,.29c.25,.07,.41,.16,.47,.3s.08,.27,.05,.43c-.03,.15-.1,.31-.2,.46s-.19,.29-.29,.41c-.12-.03-.23,0-.34,.09s-.21,.18-.3,.29c-.38-.05-.76-.06-1.13-.02-.37,.04-.71,.07-1.03,.1-.07,.01-.09,.05-.08,.11,.01,.06,0,.1-.04,.13-.41-.13-.83-.19-1.26-.16-.43,.03-.86,.09-1.31,.19-.44,.1-.89,.21-1.36,.32-.46,.11-.93,.17-1.41,.19Z"></path>
      <path class="cls-1" d="M75.72,7.46c-.07-.37-.09-.75-.06-1.15,.03-.4,.04-.78,.04-1.15s-.02-.73-.07-1.14-.09-.79-.12-1.16c-.03-.37-.05-.71-.04-1.02,0-.31,.05-.55,.13-.72,.11-.2,.24-.35,.4-.46,.16-.11,.31-.24,.46-.39,.17,.03,.33,.08,.46,.15s.26,.16,.36,.28c.1,.11,.17,.23,.22,.35,.05,.12,.06,.24,.03,.36,.33,.2,.6,.46,.8,.8,.2,.34,.36,.71,.47,1.11,.11,.4,.19,.83,.24,1.28,.05,.45,.09,.89,.12,1.33,.03,.44,.07,.85,.1,1.24,.03,.39,.1,.73,.19,1.02,.58-.84,1.07-1.59,1.47-2.25s.81-1.28,1.22-1.88c.41-.6,.87-1.21,1.38-1.83,.51-.62,1.16-1.32,1.95-2.1,.17,.03,.3,.06,.4,.1,.09,.04,.18,.08,.28,.12,.09,.04,.19,.07,.3,.09,.11,.02,.25,.02,.43,0,.07,.16,.12,.27,.15,.35s.06,.14,.09,.21c.03,.06,.06,.15,.1,.26,.04,.11,.1,.26,.18,.47,.04,.05,.06,.12,.05,.21,0,.09-.02,.16-.03,.23-.01,.07-.02,.12,0,.16s.05,.04,.13,0c-.05,.22-.14,.43-.26,.6-.12,.18-.17,.39-.16,.64-.36,.47-.75,.96-1.19,1.46s-.87,1.03-1.31,1.57c-.44,.55-.85,1.12-1.26,1.7-.4,.59-.74,1.21-1.02,1.87-.08,0-.14,.02-.18,.06-.04,.04-.08,.09-.11,.14s-.07,.11-.1,.16-.09,.08-.17,.08c-.03,.42-.18,.82-.46,1.2-.28,.38-.57,.7-.86,.96,.03,.11,.04,.19,.04,.26s0,.13-.02,.2c-.01,.06-.02,.13-.03,.21s0,.16,0,.27c-.12,.32-.27,.58-.46,.79s-.4,.37-.62,.47-.46,.15-.69,.13-.46-.1-.67-.25c-.09-.05-.17-.12-.24-.22s-.13-.18-.21-.27c-.07-.09-.14-.16-.22-.24-.07-.07-.16-.12-.27-.15,.03-.13,.03-.27,0-.42s-.05-.28-.09-.4c-.04-.12-.09-.22-.14-.3-.05-.08-.11-.12-.16-.12-.05-.33-.12-.69-.21-1.08-.09-.39-.17-.77-.26-1.16s-.16-.76-.21-1.13c-.05-.37-.07-.71-.06-1.03,.01-.16-.02-.3-.09-.43s-.12-.27-.15-.45Z"></path>
      <path class="cls-1" d="M87.1,14.22c-.11-.11-.18-.23-.23-.38-.05-.14-.16-.26-.33-.36-.03-.2-.06-.43-.11-.68-.05-.26-.09-.52-.14-.79s-.08-.54-.1-.81c-.02-.27,0-.52,.03-.74,.03-.12,.07-.23,.13-.34s.12-.21,.18-.31c.06-.1,.11-.2,.14-.31,.03-.11,.04-.21,0-.32,.08-.01,.13-.05,.15-.13s.08-.1,.19-.07c.09-.29,.19-.56,.3-.81s.22-.49,.34-.73c.12-.24,.24-.48,.37-.72,.12-.24,.24-.52,.35-.82-.22-.21-.39-.44-.48-.68-.1-.24-.17-.49-.23-.74-.05-.25-.09-.51-.12-.76-.03-.26-.08-.52-.16-.78,.16-.24,.35-.43,.57-.58,.22-.15,.47-.28,.74-.38,.27-.1,.56-.18,.88-.24,.32-.06,.65-.13,1.01-.21,.63-.2,1.2-.35,1.7-.46,.5-.11,.99-.2,1.46-.28,.47-.07,.97-.14,1.48-.2,.51-.06,1.11-.15,1.78-.27,.01,.04,.04,.06,.07,.06h.13c.04,.09,.11,.14,.22,.14,0-.04,0-.08,0-.11,0-.03,0-.06,0-.09,.03,0,.06,0,.11,.02,.05,.01,.09,.03,.12,.04,.03,.01,.06,0,.09,0,.03-.02,.03-.06,.02-.13,.16,.28,.36,.5,.61,.68,.25,.18,.53,.33,.83,.46,.01,.12,.02,.21,0,.26s-.02,.1-.03,.15c-.01,.05-.02,.1-.02,.16s.01,.14,.04,.25c-.21,.36-.45,.63-.72,.83s-.56,.35-.86,.46-.62,.19-.96,.24c-.34,.05-.68,.11-1.03,.17-.35,.06-.7,.14-1.06,.25-.36,.11-.71,.27-1.05,.48-.11-.04-.2-.06-.29-.05-.09,0-.17,.02-.27,.05-.09,.03-.19,.05-.31,.08-.11,.03-.25,.03-.41,0-.11,.09-.23,.16-.37,.2-.14,.04-.28,.08-.42,.12,.07,.14,.09,.29,.09,.44,0,.14,0,.27,.05,.38,.55,.05,1.17,.05,1.84,0,.67-.06,1.33-.1,1.98-.13,.01,.06,0,.11-.02,.14-.03,.03-.04,.07-.04,.14,.12,.08,.23,.18,.34,.3s.21,.23,.33,.35c.11,.11,.23,.2,.35,.28,.12,.07,.26,.1,.42,.09,.07,.13,.11,.27,.14,.42,.03,.14,0,.3-.06,.46-.26,.17-.52,.35-.77,.52s-.51,.34-.78,.48c-.27,.15-.56,.26-.88,.36-.32,.09-.66,.13-1.03,.12h-.17s-.1-.03-.17-.08c-.13,.07-.31,.09-.52,.07-.22-.02-.4,0-.54,.07-.19-.07-.4-.1-.64-.1s-.46-.03-.64-.1c-.24,.34-.46,.7-.67,1.08-.21,.38-.4,.78-.55,1.2,.54,.08,.99,.11,1.34,.1,.36-.01,.69-.04,1.01-.08,.32-.04,.64-.08,.98-.12,.34-.04,.75-.05,1.24-.04,.33-.16,.71-.27,1.14-.33,.43-.06,.83-.15,1.2-.27,.13,.04,.24,.12,.34,.23,.09,.11,.18,.22,.27,.34,.09,.11,.17,.21,.27,.29,.09,.08,.21,.11,.36,.08,.07,.07,.11,.14,.13,.24,.02,.09,.04,.18,.06,.26,.02,.08,.05,.14,.09,.19,.04,.05,.11,.06,.22,.05-.25,.52-.53,.91-.84,1.19-.31,.28-.66,.49-1.05,.64-.39,.15-.82,.27-1.31,.34s-1.02,.16-1.61,.27c-.15,.03-.27,.02-.37,0-.1-.03-.2-.05-.31-.05-.37,.07-.81,.13-1.32,.2-.51,.07-1.02,.09-1.53,.08-.51-.01-1.01-.08-1.48-.2-.47-.12-.87-.33-1.19-.63Z"></path>
      <path class="cls-1" d="M111.92,3.8c.24-.17,.5-.45,.77-.84,.28-.39,.57-.78,.88-1.16,.31-.38,.63-.71,.95-1,.32-.28,.65-.4,.98-.37,.21,.47,.32,.95,.34,1.41,.01,.47-.03,1-.14,1.59-.12,.14-.29,.34-.51,.59-.22,.25-.47,.53-.74,.84-.27,.31-.55,.63-.84,.96-.29,.33-.56,.65-.82,.95-.26,.3-.48,.58-.67,.83-.19,.25-.32,.45-.39,.59-.19,.2-.43,.47-.74,.83-.31,.36-.63,.73-.96,1.13-.33,.39-.65,.78-.96,1.16-.31,.38-.56,.69-.76,.94-.01,.06,0,.12,.06,.18,.05,.05,.09,.11,.12,.18-.15,.13-.23,.25-.26,.37-.03,.11-.03,.23-.02,.35,.01,.12,.03,.23,.06,.35,.03,.11,.03,.23,.02,.37-.09,.08-.17,.17-.23,.28-.06,.11-.12,.21-.18,.31s-.13,.2-.22,.29-.19,.17-.33,.24c-.28-.03-.5-.06-.67-.11-.17-.05-.38-.09-.61-.13-.22-.19-.38-.41-.46-.68-.08-.27-.12-.55-.11-.83s.04-.57,.1-.85c.06-.28,.12-.53,.19-.74,.14-.09,.15-.16,.02-.2,.05-.18,.15-.34,.28-.46,.13-.12,.2-.23,.2-.33,.09-.14,.27-.37,.53-.66s.55-.62,.86-.96c.31-.34,.61-.68,.9-1,.29-.32,.51-.58,.67-.76,.08-.21,.26-.48,.54-.82,.28-.34,.58-.68,.89-1.04,.31-.36,.59-.69,.85-1.01,.26-.32,.39-.57,.41-.77Z"></path>
      <path class="cls-1" d="M123.6,15.18c-.13,0-.34-.02-.61-.06-.21-.22-.4-.53-.56-.92s-.29-.8-.38-1.25-.13-.88-.12-1.33c0-.44,.08-.83,.23-1.18,0-.01,.06-.17,.19-.48,.12-.3,.29-.69,.48-1.16,.2-.47,.42-.99,.67-1.56,.25-.57,.5-1.14,.75-1.69,.25-.55,.49-1.06,.72-1.51s.43-.81,.6-1.06c.12-.19,.23-.36,.33-.54,.1-.17,.19-.33,.29-.47,.15-.24,.28-.46,.41-.66,.12-.21,.26-.39,.42-.55,.15-.16,.32-.31,.5-.44,.18-.12,.41-.23,.67-.33,.16,.07,.3,.14,.42,.21,.12,.07,.22,.16,.32,.27l.06,.28c.03,.09,.07,.16,.13,.19,.06,.03,.11,.05,.15,.05,.17,.04,.32,.08,.45,.13,.12,.04,.26,.07,.41,.09,.05,.08,.1,.16,.15,.24,.05,.08,.09,.15,.15,.22,.26,.38,.48,.75,.65,1.11,.17,.36,.17,.75,0,1.17l.02,.22c.07,.09,.1,.18,.1,.26s-.01,.19-.04,.34c-.01,.11-.02,.22-.03,.35,0,.12,0,.26,.05,.4l.14,.16c.21,.11,.42,.16,.61,.16,.26,0,.5-.06,.71-.18s.41-.24,.59-.36c.15-.11,.28-.19,.41-.26,.12-.07,.25-.11,.37-.14,.28-.26,.53-.5,.76-.7,.23-.21,.47-.41,.72-.62,.47-.38,.94-.79,1.38-1.24,.45-.44,.8-.99,1.07-1.65,.14-.09,.31-.14,.49-.14s.37,.04,.55,.11c.18,.07,.37,.16,.55,.25,.04,.03,.08,.05,.11,.06,.03,.01,.07,.03,.11,.06,0,.14,.06,.28,.18,.39,.07,.05,.11,.09,.14,.1s.05,.03,.08,.04c.11,.07,.19,.13,.27,.18,.07,.05,.13,.13,.17,.22,.12,.36,.32,.63,.59,.83-.03,.15-.02,.29,.02,.43,.04,.14,.08,.27,.14,.41,.03,.05,.05,.1,.06,.15,.01,.04,.03,.1,.06,.17l-.44-.04,.06,.43c.04,.22,.02,.48-.05,.75-.07,.28-.15,.5-.25,.65,.03,.39,.04,.71,.04,.94s-.01,.45-.04,.64-.07,.39-.13,.56c-.06,.18-.14,.37-.23,.56,.05,1-.06,1.92-.35,2.75-.28,.83-.59,1.61-.92,2.34-.04,.09-.08,.18-.12,.26-.04,.08-.07,.16-.1,.24-.15,.04-.28,.09-.4,.14s-.23,.11-.34,.18c-.15,.09-.29,.17-.44,.23-.15,.06-.3,.09-.46,.09-.63-.46-.96-1.26-.98-2.39-.02-1.13,.22-2.58,.72-4.33,.09-.07,.13-.16,.12-.3v-.22l-.2-.02c-.07,0-.12,0-.18,.02-.05,.01-.09,.07-.12,.18-.42,.3-.88,.62-1.38,.94-.5,.32-1.01,.62-1.53,.89-.53,.27-1.07,.49-1.61,.67-.55,.18-1.08,.27-1.59,.27-1.32,0-2.32-.67-2.99-2.02l-.18-.36-.2,.32c-.04,.07-.11,.2-.21,.39-.1,.19-.2,.41-.3,.66-.1,.25-.18,.51-.26,.77-.07,.27-.1,.5-.07,.69-.16,.14-.31,.31-.46,.49-.15,.19-.26,.4-.33,.63-.03,.07-.03,.13-.02,.19,.01,.06,.03,.12,.06,.19-.01,.09-.04,.16-.08,.2-.04,.04-.09,.08-.14,.12-.07,.07-.13,.13-.2,.21-.07,.07-.12,.16-.18,.25-.03,.08-.05,.16-.06,.25-.01,.09-.03,.16-.04,.23,0,.14-.02,.24-.06,.3-.13,.28-.25,.5-.35,.68-.1,.18-.19,.31-.29,.41-.09,.09-.19,.15-.29,.19s-.21,.05-.35,.05Z"></path>
      <path class="cls-1" d="M142.65,14.22c-.11-.11-.18-.23-.23-.38-.05-.14-.16-.26-.33-.36-.03-.2-.06-.43-.11-.68-.05-.26-.09-.52-.14-.79s-.08-.54-.1-.81c-.02-.27,0-.52,.03-.74,.03-.12,.07-.23,.13-.34s.12-.21,.18-.31c.06-.1,.11-.2,.14-.31,.03-.11,.04-.21,0-.32,.08-.01,.13-.05,.15-.13s.08-.1,.19-.07c.09-.29,.19-.56,.3-.81s.22-.49,.34-.73c.12-.24,.24-.48,.37-.72,.12-.24,.24-.52,.35-.82-.22-.21-.39-.44-.48-.68-.1-.24-.17-.49-.23-.74-.05-.25-.09-.51-.12-.76-.03-.26-.08-.52-.16-.78,.16-.24,.35-.43,.57-.58,.22-.15,.47-.28,.74-.38,.27-.1,.56-.18,.88-.24,.32-.06,.65-.13,1.01-.21,.63-.2,1.2-.35,1.7-.46,.5-.11,.99-.2,1.46-.28,.47-.07,.97-.14,1.48-.2,.51-.06,1.11-.15,1.78-.27,.01,.04,.04,.06,.07,.06h.13c.04,.09,.11,.14,.22,.14,0-.04,0-.08,0-.11,0-.03,0-.06,0-.09,.03,0,.06,0,.11,.02,.05,.01,.09,.03,.12,.04,.03,.01,.06,0,.09,0,.03-.02,.03-.06,.02-.13,.16,.28,.36,.5,.61,.68,.25,.18,.53,.33,.83,.46,.01,.12,.02,.21,0,.26s-.02,.1-.03,.15c-.01,.05-.02,.1-.02,.16s.01,.14,.04,.25c-.21,.36-.45,.63-.72,.83s-.56,.35-.86,.46-.62,.19-.96,.24c-.34,.05-.68,.11-1.03,.17-.35,.06-.7,.14-1.06,.25-.36,.11-.71,.27-1.05,.48-.11-.04-.2-.06-.29-.05-.09,0-.17,.02-.27,.05-.09,.03-.19,.05-.31,.08-.11,.03-.25,.03-.41,0-.11,.09-.23,.16-.37,.2-.14,.04-.28,.08-.42,.12,.07,.14,.09,.29,.09,.44,0,.14,0,.27,.05,.38,.55,.05,1.17,.05,1.84,0,.67-.06,1.33-.1,1.98-.13,.01,.06,0,.11-.02,.14-.03,.03-.04,.07-.04,.14,.12,.08,.23,.18,.34,.3s.21,.23,.33,.35c.11,.11,.23,.2,.35,.28,.12,.07,.26,.1,.42,.09,.07,.13,.11,.27,.14,.42,.03,.14,0,.3-.06,.46-.26,.17-.52,.35-.77,.52s-.51,.34-.78,.48c-.27,.15-.56,.26-.88,.36-.32,.09-.66,.13-1.03,.12h-.17s-.1-.03-.17-.08c-.13,.07-.31,.09-.52,.07-.22-.02-.4,0-.54,.07-.19-.07-.4-.1-.64-.1s-.46-.03-.64-.1c-.24,.34-.46,.7-.67,1.08-.21,.38-.4,.78-.55,1.2,.54,.08,.99,.11,1.34,.1,.36-.01,.69-.04,1.01-.08,.32-.04,.64-.08,.98-.12,.34-.04,.75-.05,1.24-.04,.33-.16,.71-.27,1.14-.33,.43-.06,.83-.15,1.2-.27,.13,.04,.24,.12,.34,.23,.09,.11,.18,.22,.27,.34,.09,.11,.17,.21,.27,.29,.09,.08,.21,.11,.36,.08,.07,.07,.11,.14,.13,.24,.02,.09,.04,.18,.06,.26,.02,.08,.05,.14,.09,.19,.04,.05,.11,.06,.22,.05-.25,.52-.53,.91-.84,1.19-.31,.28-.66,.49-1.05,.64-.39,.15-.82,.27-1.31,.34s-1.02,.16-1.61,.27c-.15,.03-.27,.02-.37,0-.1-.03-.2-.05-.31-.05-.37,.07-.81,.13-1.32,.2-.51,.07-1.02,.09-1.53,.08-.51-.01-1.01-.08-1.48-.2-.47-.12-.87-.33-1.19-.63Z"></path>
      <path class="cls-1" d="M156.18,15.12c-.38-.09-.68-.25-.88-.46-.21-.22-.36-.47-.46-.77s-.17-.62-.2-.98c-.03-.36-.07-.73-.11-1.11,.05-.17,.12-.32,.21-.43,.08-.12,.12-.29,.11-.5,.14-.42,.28-.83,.4-1.23,.12-.39,.2-.8,.24-1.23,.08-.12,.16-.2,.24-.24,.11-.75,.12-1.52,.04-2.31-.08-.79-.21-1.52-.4-2.2,.01-.14,.03-.25,.06-.33,.03-.07,.03-.13,0-.19-.03-.12,.01-.18,.12-.18h.32c0-.24-.04-.47-.13-.7-.09-.23-.17-.5-.25-.8,.11-.24,.18-.47,.22-.69,.04-.22,.11-.43,.22-.61,.42,.13,.84,.29,1.25,.46,.41,.17,.81,.34,1.21,.51,.4,.16,.79,.32,1.17,.47,.38,.15,.76,.27,1.13,.37,.57,.41,1.15,.81,1.75,1.22s1.15,.84,1.64,1.33c.49,.48,.91,1.03,1.24,1.65,.33,.62,.52,1.35,.57,2.2-.03,.08-.05,.14-.06,.2-.01,.05-.03,.11-.04,.16-.01,.05-.02,.11-.02,.18v.28c-.47,.83-1.08,1.53-1.8,2.1s-1.52,1.07-2.37,1.5-1.75,.83-2.68,1.2c-.93,.36-1.84,.75-2.72,1.16Zm1.94-11.22c-.12,0-.21,.03-.26,.08,.16,.59,.28,1.15,.36,1.68s.12,1.06,.13,1.58c0,.53-.02,1.07-.09,1.62-.07,.55-.16,1.15-.28,1.8,.17-.01,.32-.05,.46-.1s.27-.11,.41-.18,.28-.12,.44-.18,.33-.09,.52-.1c.05-.11,.12-.19,.21-.25,.08-.06,.16-.12,.23-.19,.33-.13,.66-.27,.99-.42,.33-.14,.63-.31,.91-.49,.28-.19,.53-.4,.75-.63,.22-.24,.41-.52,.55-.85-.11-.2-.23-.37-.39-.5-.15-.14-.31-.28-.47-.42s-.32-.28-.47-.44-.27-.33-.37-.52c-.21-.03-.4-.08-.55-.17-.16-.08-.31-.17-.46-.26-.15-.09-.3-.17-.46-.25-.17-.08-.36-.12-.58-.14-.34-.18-.65-.31-.93-.38s-.49-.18-.63-.31Z"></path>
      <path class="cls-1" d="M164.69,15.13c-.18-.12-.33-.27-.44-.46-.11-.18-.21-.38-.28-.59-.07-.21-.13-.43-.18-.66-.05-.23-.1-.45-.15-.66,0-.19,.04-.32,.12-.41s.17-.17,.26-.25c.32-.01,.6-.04,.85-.08,.25-.04,.49-.08,.73-.12s.48-.08,.71-.11c.24-.03,.49-.05,.77-.05,.2-.41,.38-.8,.55-1.18,.17-.38,.34-.73,.49-1.08,.08-.33,.18-.63,.31-.92,.12-.28,.25-.55,.37-.81,.12-.26,.22-.51,.32-.77,.09-.26,.15-.53,.18-.82,.16-.46,.3-.89,.42-1.28,.13-.39,.22-.85,.29-1.39-.5,.08-.9,.16-1.21,.23s-.52,.14-.65,.21c-.26-.01-.47-.07-.62-.16-.15-.09-.27-.21-.37-.34-.09-.13-.17-.28-.24-.46-.07-.17-.15-.35-.24-.54,.05-.12,.07-.29,.04-.52s-.11-.4-.24-.5c.11-.03,.18-.12,.24-.27,.05-.15,.06-.27,.02-.35,.22-.07,.46-.11,.71-.13,.25-.02,.5-.04,.74-.06s.48-.04,.7-.08c.22-.03,.42-.1,.57-.21,.69-.03,1.4-.05,2.15-.08,.75-.03,1.43-.06,2.07-.1,.24,.08,.51,.12,.82,.12s.62,.02,.93,.06c.31,.04,.59,.13,.83,.26,.24,.13,.41,.36,.5,.69,.2,.03,.35,.08,.45,.16,.1,.08,.16,.17,.19,.29,.03,.11,.04,.24,.03,.38s0,.27,0,.41c-.21,.16-.48,.29-.8,.38-.32,.1-.68,.18-1.06,.24-.38,.06-.78,.1-1.2,.12-.42,.02-.82,.04-1.22,.05-.07,.44-.18,.95-.35,1.53-.17,.59-.33,1.16-.5,1.72s-.32,1.06-.45,1.5c-.12,.44-.18,.73-.17,.86-.13,.3-.24,.56-.33,.77s-.17,.41-.24,.59c-.07,.18-.15,.37-.22,.54s-.16,.38-.27,.6h1.35c.03,.14,.09,.24,.18,.3,.09,.05,.19,.1,.3,.14s.2,.09,.29,.15,.13,.15,.13,.29c.25,.07,.41,.16,.47,.3s.08,.27,.05,.43c-.03,.15-.1,.31-.2,.46s-.19,.29-.29,.41c-.12-.03-.23,0-.34,.09s-.21,.18-.3,.29c-.38-.05-.76-.06-1.13-.02-.37,.04-.71,.07-1.03,.1-.07,.01-.09,.05-.08,.11,.01,.06,0,.1-.04,.13-.41-.13-.83-.19-1.26-.16-.43,.03-.86,.09-1.31,.19-.44,.1-.89,.21-1.36,.32-.46,.11-.93,.17-1.41,.19Z"></path>
      <path class="cls-1" d="M174.28,13.02l.26-.2,.02-.42c.33-.8,.67-1.57,1.02-2.31,.35-.74,.72-1.5,1.1-2.28,.12-.25,.24-.5,.37-.75,.13-.25,.25-.51,.37-.77-.01-.05-.02-.11-.02-.17s.01-.13,.04-.21c.18-.26,.33-.5,.45-.71s.22-.43,.33-.65c.12-.26,.25-.53,.39-.79,.14-.26,.31-.52,.52-.77l.14-.2,.22,.02c.05-.03,.11-.05,.17-.07,.06-.02,.14-.03,.23-.03l.36,.06c.44-.2,.82-.48,1.16-.86,.34-.38,.68-.83,1.02-1.36l.24-.34,.32,.2c.07,.04,.17,.08,.32,.12,.14,.04,.3,.09,.46,.14,.28,.06,.55,.14,.81,.23,.26,.09,.47,.2,.61,.35l.1,.18c.03,.14,.05,.28,.07,.39,.02,.12,.04,.24,.07,.36,.05,.28,.1,.55,.14,.82,.04,.27,.07,.57,.08,.9,.07,.26,.13,.53,.19,.8s.12,.54,.17,.8c.07,.38,.14,.75,.22,1.1,.08,.35,.18,.68,.32,1,.13,0,.21,0,.24,.02,.16-.07,.34-.11,.55-.12l.26-.02,.08,.24s.06,.08,.1,.12c.04,.04,.09,.08,.14,.12,.21,.01,.37,.06,.46,.13s.18,.14,.25,.21c.03,.03,.06,.06,.1,.09,.04,.03,.07,.06,.1,.07l.36,.14-.2,.38c-.15,.28-.37,.55-.66,.81s-.63,.48-1,.65c.03,.09,.04,.18,.05,.26,0,.08,.02,.17,.05,.28,.05,.26,.09,.54,.13,.82,.03,.29,.03,.58,0,.88-.13,.34-.29,.65-.46,.92-.18,.27-.39,.52-.63,.73-.24,.22-.52,.4-.82,.53-.3,.14-.62,.21-.95,.23-.19-.04-.32-.09-.41-.14s-.16-.11-.23-.16c-.11-.08-.19-.13-.26-.16l-.26-.12,.08-.3c.04-.11,.04-.2-.01-.28-.05-.08-.14-.18-.29-.32-.05-.04-.1-.08-.14-.13-.04-.04-.09-.09-.14-.15l-.4-.46,.65-.18c.4-.11,.66-.24,.79-.4,.13-.17,.18-.46,.16-.88-.33-.07-.6-.08-.81-.03-.21,.04-.42,.1-.63,.15-.3,.08-.6,.15-.89,.21s-.61,.09-.95,.09c-.22,0-.46-.02-.71-.06l-.22-.02-.06-.22s-.02-.06-.05-.09-.06-.06-.09-.09c-.07-.08-.15-.19-.24-.32-.09-.13-.11-.29-.06-.49-.09-.14-.15-.3-.16-.46-.05,.11-.1,.21-.13,.31-.03,.1-.06,.2-.09,.29l-.08,.26-.26,.04s-.05,.07-.07,.12-.02,.09,0,.12l.08,.22-.2,.18s-.06,.07-.1,.1c-.04,.03-.07,.05-.1,.08-.03,.15-.06,.29-.11,.42-.05,.13-.1,.26-.15,.4-.07,.21-.13,.41-.19,.61-.06,.2-.09,.39-.09,.59l-.08,.26c-.07,.11-.15,.19-.25,.24-.1,.05-.19,.1-.29,.14-.13,.05-.22,.11-.28,.16l-.06,.26-.3,.04c-.17,.04-.29,.06-.37,.08-.07,.01-.16,.02-.25,.02l-.26-.02c-.16-.16-.29-.28-.39-.37s-.21-.16-.35-.23l-.12-.16c-.05-.11-.09-.2-.1-.29-.01-.08-.03-.17-.06-.27-.03-.17-.07-.29-.12-.36l-.3-.3Zm6.31-5.14c-.18,.26-.36,.54-.53,.83,.09-.01,.18-.02,.27-.02s.17,0,.27-.02c.46-.03,.89-.06,1.29-.1,.4-.04,.82-.11,1.29-.2-.11-.49-.22-.99-.35-1.49s-.26-1.02-.41-1.53l-.1,.2c-.33,.36-.65,.74-.95,1.15s-.55,.8-.75,1.17l-.02,.02Z"></path>
    </g>
  </g>
</svg>