<?xml version="1.0" encoding="UTF-8"?>
<svg id="Layer_2" data-name="Layer 2" xmlns="http://www.w3.org/2000/svg" viewBox="0 0 117.85 16.37">
  <defs>
    <style>.cls-1 {
  fill: #fff;
}

</style>
  </defs>
  <g id="Fonts">
    <g>
      <path class="cls-1" d="M0,0H9.6l2.61,3.28H7.44V13.66l-3.53,2.63V3.28H0V0Z"></path>
      <path class="cls-1" d="M13.05,0h7.92l2.98,3.24h-7.29v1.52h2.67l2.78,3.22h-5.45v3.04h4.17l2.96,3.16H13.05V0Z"></path>
      <path class="cls-1" d="M24.59,0h9.46c.81,0,1.32,.63,1.52,1.88v3.93h-3.67V3.24h-3.81v7.86h5.35l-2.75,3.24h-4.72c-.77,0-1.23-.57-1.38-1.7V0Z"></path>
      <path class="cls-1" d="M43.44,7.82l-3.75,2.33v3.73h-3.4v-5.51l7.15-4.4V0h3.57V16.37l-3.57-2.31V7.82ZM36.28,0h3.4V5.51l-3.4,2.15V0Z"></path>
      <path class="cls-1" d="M48.09,.02h3.32V2.78l4.07,3.61V.02h3.32V14.16h-3.36v-3.24l-4.03-3.48v6.73h-3.32V.02Z"></path>
      <path class="cls-1" d="M61.28,0h9.18V13.33c-.19,.55-.63,.83-1.34,.83h-7.84c-1.03,0-1.54-.55-1.54-1.66V1.03c.32-.69,.84-1.03,1.54-1.03Zm1.9,3.12v7.92h3.83V3.12h-3.83Z"></path>
      <path class="cls-1" d="M71.39,.02h3.63V11.22h4.07l3.53,2.98h-11.22V.02Z"></path>
      <path class="cls-1" d="M85.15,0h9.18V13.33c-.19,.55-.63,.83-1.34,.83h-7.84c-1.03,0-1.54-.55-1.54-1.66V1.03c.32-.69,.84-1.03,1.54-1.03Zm1.9,3.12v7.92h3.83V3.12h-3.83Z"></path>
      <path class="cls-1" d="M106.03,13.33c-.19,.55-.63,.83-1.34,.83h-7.84c-1.03,0-1.54-.55-1.54-1.66V1.03c.32-.69,.84-1.03,1.54-1.03h9.18V.08l-3.44,3.04h-3.83v7.92h3.83v-3.61h-3.48l3-2.86h3.93V13.33Z"></path>
      <path class="cls-1" d="M106.97,0h3.59V3.65l2.98,1.64v3.97l-6.56-3.46V0Zm7.15,0h3.73V14.06h-9.54l2.25-3.3h3.57V0Z"></path>
    </g>
  </g>
</svg>