<?xml version="1.0" encoding="UTF-8"?>
<svg width="181px" height="52px" viewBox="0 0 181 52" version="1.1" xmlns="http://www.w3.org/2000/svg" xmlns:xlink="http://www.w3.org/1999/xlink">
    <title>time</title>
    <g id="Case-studies" stroke="none" stroke-width="1" fill="none" fill-rule="evenodd">
        <g id="Annotation-Copy" transform="translate(-2017.000000, -4979.000000)" fill="#FFFFFF" fill-rule="nonzero">
            <g id="time" transform="translate(2017.468500, 4979.596400)">
                <path d="M30.186,50.4036 L13.8294,50.4036 C13.221,50.4036 12.9168,50.0994 12.9168,49.491 L12.9168,46.0512 C12.9168,45.4428 13.221,45.1386 13.8294,45.1386 L19.1646,45.1386 L19.1646,5.265 L5.8968,5.265 L5.8968,12.7062 C5.8968,13.3614 5.5692,13.689 4.914,13.689 L0.9828,13.689 C0.3276,13.689 0,13.3614 0,12.7062 L0,0.9126 C0,0.3042 0.3276,0 0.9828,0 L43.3134,0 C43.9686,0 44.2962,0.3042 44.2962,0.9126 L44.2962,12.7062 C44.2962,13.3614 43.9686,13.689 43.3134,13.689 L39.312,13.689 C38.7036,13.689 38.3994,13.3614 38.3994,12.7062 L38.3994,5.265 L25.272,5.265 L25.272,45.1386 L30.186,45.1386 C30.8412,45.1386 31.1688,45.4428 31.1688,46.0512 L31.1688,49.491 C31.1688,50.0994 30.8412,50.4036 30.186,50.4036 Z" id="Path"></path>
                <path d="M68.796,50.4036 L51.948,50.4036 C51.3396,50.4036 51.0354,50.1228 51.0354,49.5612 L51.0354,45.981 C51.0354,45.4194 51.3396,45.1386 51.948,45.1386 L57.2832,45.1386 L57.2832,5.265 L51.948,5.265 C51.3396,5.265 51.0354,4.9842 51.0354,4.4226 L51.0354,0.8424 C51.0354,0.2808 51.3396,0 51.948,0 L68.796,0 C69.4044,0 69.7086,0.2808 69.7086,0.8424 L69.7086,4.4226 C69.7086,4.9842 69.4044,5.265 68.796,5.265 L63.3906,5.265 L63.3906,45.1386 L68.796,45.1386 C69.4044,45.1386 69.7086,45.4194 69.7086,45.981 L69.7086,49.5612 C69.7086,50.1228 69.4044,50.4036 68.796,50.4036 Z" id="Path"></path>
                <path d="M133.38,50.4036 L117.1638,50.4036 C116.6022,50.4036 116.3214,50.1228 116.3214,49.5612 L116.3214,45.981 C116.3214,45.4194 116.6022,45.1386 117.1638,45.1386 L121.8672,45.1386 L121.8672,10.179 L121.797,10.179 L108.459,43.3134 C107.8974,44.7174 106.8678,45.4194 105.3702,45.4194 C103.8726,45.4194 102.843,44.7174 102.2814,43.3134 L88.9434,10.179 L88.803,10.179 L88.803,45.1386 L93.5064,45.1386 C94.1148,45.1386 94.419,45.4194 94.419,45.981 L94.419,49.5612 C94.419,50.1228 94.1148,50.4036 93.5064,50.4036 L77.3604,50.4036 C76.752,50.4036 76.4478,50.1228 76.4478,49.5612 L76.4478,45.981 C76.4478,45.4194 76.752,45.1386 77.3604,45.1386 L82.6956,45.1386 L82.6956,5.265 L77.3604,5.265 C76.752,5.265 76.4478,4.9842 76.4478,4.4226 L76.4478,0.8424 C76.4478,0.2808 76.752,0 77.3604,0 L88.1712,0 C89.7624,0 90.8622,0.7956 91.4706,2.3868 L101.9304,27.6588 L105.2298,36.504 L105.5106,36.504 C106.821,32.8536 107.8974,29.952 108.7398,27.7992 L119.2698,2.3868 C119.8782,0.7956 121.0014,0 122.6394,0 L133.38,0 C133.9416,0 134.2224,0.2808 134.2224,0.8424 L134.2224,4.4226 C134.2224,4.9842 133.9416,5.265 133.38,5.265 L127.9746,5.265 L127.9746,45.1386 L133.38,45.1386 C133.9416,45.1386 134.2224,45.4194 134.2224,45.981 L134.2224,49.5612 C134.2224,50.1228 133.9416,50.4036 133.38,50.4036 Z" id="Path"></path>
                <path d="M179.1504,50.4036 L141.8742,50.4036 C141.2658,50.4036 140.9616,50.1228 140.9616,49.5612 L140.9616,45.981 C140.9616,45.4194 141.2658,45.1386 141.8742,45.1386 L147.2094,45.1386 L147.2094,5.265 L141.8742,5.265 C141.2658,5.265 140.9616,4.9842 140.9616,4.4226 L140.9616,0.8424 C140.9616,0.2808 141.2658,0 141.8742,0 L179.1504,0 C179.7588,0 180.063,0.2808 180.063,0.8424 L180.063,12.1446 C180.063,12.753 179.7588,13.0572 179.1504,13.0572 L175.3596,13.0572 C174.798,13.0572 174.5172,12.753 174.5172,12.1446 L174.5172,5.265 L153.3168,5.265 L153.3168,22.6746 L171.0774,22.6746 C171.6858,22.6746 171.99,22.9554 171.99,23.517 L171.99,27.0972 C171.99,27.6588 171.6858,27.9396 171.0774,27.9396 L153.3168,27.9396 L153.3168,45.1386 L174.447,45.1386 L174.447,38.259 C174.447,37.6974 174.7512,37.4166 175.3596,37.4166 L179.1504,37.4166 C179.7588,37.4166 180.063,37.6974 180.063,38.259 L180.063,49.5612 C180.063,50.1228 179.7588,50.4036 179.1504,50.4036 Z" id="Path"></path>
            </g>
        </g>
    </g>
</svg>