<svg width="359" height="53" xmlns="http://www.w3.org/2000/svg"><g id="Case-studies" stroke="none" stroke-width="1" fill="none" fill-rule="evenodd"><g id="Annotation-Copy" transform="translate(-1384 -4979)" fill="#FFF" fill-rule="nonzero"><g id="COMPANY" transform="translate(1384.42 4979.807)"><path d="M23.868 51.246c-7.488 0-13.338-2.223-17.55-6.669C2.106 40.131 0 33.813 0 25.623c0-5.382.924-10.004 2.773-13.865 1.849-3.86 4.446-6.785 7.792-8.774C13.911.993 17.784 0 22.183 0c2.668 0 5.359.772 8.073 2.317 1.03.561 2.06 1.31 3.089 2.246.796-1.217 1.615-2.176 2.457-2.878.842-.609 1.31-.936 1.404-.983h1.755V14.04h-2.808c-.608-2.246-1.521-4.282-2.738-6.107C32.292 6.154 30.9 4.68 29.238 3.51c-1.661-1.17-3.568-1.755-5.721-1.755-3.23 0-5.909 1.872-8.038 5.616-2.13 3.744-3.194 9.828-3.194 18.252 0 8.564 1.158 14.683 3.475 18.357 2.316 3.674 5.487 5.511 9.512 5.511 2.2 0 4.294-.62 6.283-1.86 1.989-1.24 3.603-2.89 4.844-4.95 1.24-2.059 1.86-4.235 1.86-6.528h1.755c0 2.668-.714 5.16-2.141 7.476-1.427 2.317-3.37 4.166-5.827 5.546s-5.183 2.071-8.178 2.071Z" id="Path"/><path d="M68.445 51.246c-4.586 0-8.6-.995-12.04-2.983-3.44-1.99-6.095-4.903-7.967-8.74-1.872-3.838-2.808-8.471-2.808-13.9s.936-10.062 2.808-13.9c1.872-3.837 4.528-6.75 7.968-8.74C59.846.994 63.859 0 68.445 0c4.586 0 8.6.995 12.04 2.983 3.44 1.99 6.095 4.903 7.967 8.74 1.872 3.838 2.808 8.471 2.808 13.9s-.936 10.062-2.808 13.9c-1.872 3.837-4.528 6.75-7.968 8.74-3.44 1.989-7.453 2.983-12.039 2.983Zm0-1.404c1.825 0 3.522-.772 5.09-2.317 1.567-1.544 2.866-4.118 3.896-7.722 1.03-3.603 1.544-8.33 1.544-14.18s-.515-10.577-1.544-14.18c-1.03-3.604-2.329-6.178-3.897-7.722-1.567-1.545-3.264-2.317-5.089-2.317-1.825 0-3.522.772-5.09 2.317-1.567 1.544-2.866 4.118-3.896 7.722-1.03 3.603-1.544 8.33-1.544 14.18s.515 10.577 1.544 14.18c1.03 3.604 2.329 6.178 3.896 7.722 1.568 1.545 3.265 2.317 5.09 2.317Z" id="Shape"/><path d="M104.247 9.828v37.206l5.616 2.106v1.053H96.525V49.14l5.616-2.106V3.159l-4.212-1.053V1.053h8.775c2.434 0 4.364.503 5.792 1.51 1.427 1.005 2.655 2.491 3.685 4.457l15.304 29.273L143.208 7.02c.796-2.06 1.872-3.568 3.23-4.528 1.356-.96 3.439-1.439 6.247-1.439h7.371v1.053l-4.212 1.053v44.928l4.212 1.053v1.053h-20.007V49.14l4.212-1.053V9.828l-16.497 41.067h-2.106L104.247 9.828Z" id="Path"/><path d="m167.076 49.14 4.212-1.053V3.159l-4.212-1.053V1.053h19.656c7.769 0 13.338 1.275 16.708 3.826 3.37 2.55 5.054 6.306 5.054 11.267 0 4.96-1.685 8.716-5.054 11.267-3.37 2.55-8.94 3.826-16.708 3.826h-3.861v16.848l4.212 1.053v1.053h-20.007V49.14Zm19.656-19.656c2.948 0 5.323-1.123 7.125-3.37 1.802-2.246 2.703-5.569 2.703-9.968 0-4.352-.9-7.664-2.703-9.933-1.802-2.27-4.177-3.405-7.125-3.405h-3.861v26.676h3.861ZM209.547 49.14l5.616-2.106L234.468.351h2.106l20.007 47.736 3.51 1.053v1.053h-8.424c-2.434 0-4.423-.55-5.967-1.65-1.544-1.1-2.691-2.539-3.44-4.317l-3.58-8.424h-16.778l-4.633 11.232 5.265 2.106v1.053h-12.987V49.14Zm13.057-15.093h15.374l-7.722-18.463-7.652 18.463Z" id="Shape"/><path d="M268.515 12.987v34.047l5.616 2.106v1.053h-13.338V49.14l5.616-2.106V3.51l-4.914-1.404V1.053h7.371c2.48 0 4.423.445 5.827 1.334s2.737 2.082 4.001 3.58l22.464 26.325V4.212l-5.616-2.106V1.053h13.338v1.053l-5.616 2.106v47.034h-2.106l-32.643-38.259ZM324.324 49.14l4.212-1.053V31.941L314.145 3.159l-3.51-1.053V1.053h8.775c2.434 0 4.387.515 5.862 1.544 1.474 1.03 2.679 2.504 3.615 4.423l10.39 20.709 10.67-23.517-5.265-2.106V1.053h13.338v1.053l-5.616 2.106-12.285 27.027v16.848l4.212 1.053v1.053h-20.007V49.14Z" id="Path"/></g></g></g></svg>