<svg width="227" height="26" xmlns="http://www.w3.org/2000/svg"><g id="Case-studies" stroke="none" stroke-width="1" fill="none" fill-rule="evenodd"><g id="Annotation-Copy" transform="translate(-1993 -4931)" fill="#000" fill-rule="nonzero"><g id="at-the-right" transform="translate(1993.705 4931.85)"><path d="M0 24.15h3.57l2.625-6.3h9.835l2.625 6.3h3.605L11.83.175h-1.435L0 24.15Zm7.42-9.24 3.675-8.855h.07l3.675 8.855H7.42Z" id="Shape"/><path id="Path" d="M30.835 24.15h3.43V3.43h7.665V.35H23.17v3.08h7.665zM59.325 24.15h3.43V3.43h7.665V.35H51.66v3.08h7.665zM90.37 24.15h3.43V.35h-3.43v10.395H77.84V.35h-3.43v23.8h3.43V13.825h12.53zM100.31 24.15h13.755l.63-3.08H103.74v-7.49h9.31v-2.94h-9.31V3.43h10.57l-.56-3.08h-13.44z"/><path d="M127.75 24.15h3.43v-9.275H134.995l6.825 9.275h4.165l-7.56-9.975c2.765-1.12 4.585-3.5 4.585-6.685 0-3.99-2.87-7.14-8.12-7.14h-7.14v23.8Zm3.43-12.25V3.43h3.535c2.8 0 4.76 1.47 4.76 4.27 0 2.695-1.89 4.2-4.865 4.2h-3.43Z" id="Shape"/><path id="Path" d="M149.135 24.15h3.43V.35h-3.43zM170.03 24.5c3.465 0 6.335-.875 8.505-2.17V12.11h-8.155l-.7 2.975h5.845v5.145c-1.68.84-3.5 1.19-5.32 1.19-5.25 0-9.17-3.71-9.17-9.205 0-5.6 4.13-9.135 9.24-9.135 2.87 0 5.355.875 7.595 2.59l-.49-3.99C175.56.665 173.075 0 170.24 0c-7.42 0-12.74 5.25-12.74 12.25 0 6.86 5.145 12.25 12.53 12.25ZM199.85 24.15h3.43V.35h-3.43v10.395h-12.53V.35h-3.43v23.8h3.43V13.825h12.53zM214.935 24.15h3.43V3.43h7.665V.35h-18.76v3.08h7.665z"/></g></g></g></svg>