<?xml version="1.0" encoding="UTF-8"?>
<svg width="176px" height="26px" viewBox="0 0 176 26" version="1.1" xmlns="http://www.w3.org/2000/svg" xmlns:xlink="http://www.w3.org/1999/xlink">
    <title>The right</title>
    <g id="Case-studies" stroke="none" stroke-width="1" fill="none" fill-rule="evenodd">
        <g id="Annotation-Copy" transform="translate(-920.000000, -4931.000000)" fill="#000000" fill-rule="nonzero">
            <g id="The-right" transform="translate(920.815000, 4931.850000)">
                <polygon id="Path" points="7.665 24.15 11.095 24.15 11.095 3.43 18.76 3.43 18.76 0.35 0 0.35 0 3.43 7.665 3.43"></polygon>
                <polygon id="Path" points="38.71 24.15 42.14 24.15 42.14 0.35 38.71 0.35 38.71 10.745 26.18 10.745 26.18 0.35 22.75 0.35 22.75 24.15 26.18 24.15 26.18 13.825 38.71 13.825"></polygon>
                <polygon id="Path" points="48.65 24.15 62.405 24.15 63.035 21.07 52.08 21.07 52.08 13.58 61.39 13.58 61.39 10.64 52.08 10.64 52.08 3.43 62.65 3.43 62.09 0.35 48.65 0.35"></polygon>
                <path d="M76.09,24.15 L79.52,24.15 L79.52,14.875 L83.055,14.875 L83.335,14.875 L90.16,24.15 L94.325,24.15 L86.765,14.175 C89.53,13.055 91.35,10.675 91.35,7.49 C91.35,3.5 88.48,0.35 83.23,0.35 L76.09,0.35 L76.09,24.15 Z M79.52,11.9 L79.52,3.43 L83.055,3.43 C85.855,3.43 87.815,4.9 87.815,7.7 C87.815,10.395 85.925,11.9 82.95,11.9 L79.52,11.9 Z" id="Shape"></path>
                <polygon id="Path" points="97.475 24.15 100.905 24.15 100.905 0.35 97.475 0.35"></polygon>
                <path d="M118.37,24.5 C121.835,24.5 124.705,23.625 126.875,22.33 L126.875,12.11 L118.72,12.11 L118.02,15.085 L123.865,15.085 L123.865,20.23 C122.185,21.07 120.365,21.42 118.545,21.42 C113.295,21.42 109.375,17.71 109.375,12.215 C109.375,6.615 113.505,3.08 118.615,3.08 C121.485,3.08 123.97,3.955 126.21,5.67 L125.72,1.68 C123.9,0.665 121.415,0 118.58,0 C111.16,0 105.84,5.25 105.84,12.25 C105.84,19.11 110.985,24.5 118.37,24.5 Z" id="Path"></path>
                <polygon id="Path" points="148.19 24.15 151.62 24.15 151.62 0.35 148.19 0.35 148.19 10.745 135.66 10.745 135.66 0.35 132.23 0.35 132.23 24.15 135.66 24.15 135.66 13.825 148.19 13.825"></polygon>
                <polygon id="Path" points="163.275 24.15 166.705 24.15 166.705 3.43 174.37 3.43 174.37 0.35 155.61 0.35 155.61 3.43 163.275 3.43"></polygon>
            </g>
        </g>
    </g>
</svg>