<svg width="248" height="26" xmlns="http://www.w3.org/2000/svg"><g id="Case-studies" stroke="none" stroke-width="1" fill="none" fill-rule="evenodd"><g id="Annotation-Copy" transform="translate(-1438 -4931)" fill="#000" fill-rule="nonzero"><g id="for-the-right" transform="translate(1438.92 4931.85)"><path id="Path" d="M0 24.15h3.43V14.07h8.715v-3.045H3.43V3.43h10.045L12.95.35H0z"/><path d="M28.21 24.5c6.755 0 12.04-5.18 12.04-12.215S34.965 0 28.21 0c-6.72 0-12.005 5.25-12.005 12.285S21.49 24.5 28.21 24.5Zm-8.47-12.215c0-5.775 4.13-9.135 8.47-9.135 4.41 0 8.47 3.36 8.47 9.135 0 5.705-4.06 9.065-8.47 9.065-4.34 0-8.47-3.36-8.47-9.065ZM45.185 24.15h3.43v-9.275H52.43l6.825 9.275h4.165l-7.56-9.975c2.765-1.12 4.585-3.5 4.585-6.685 0-3.99-2.87-7.14-8.12-7.14h-7.14v23.8Zm3.43-12.25V3.43h3.535c2.8 0 4.76 1.47 4.76 4.27 0 2.695-1.89 4.2-4.865 4.2h-3.43Z" id="Shape"/><path id="Path" d="M79.975 24.15h3.43V3.43h7.665V.35H72.31v3.08h7.665zM111.02 24.15h3.43V.35h-3.43v10.395H98.49V.35h-3.43v23.8h3.43V13.825h12.53zM120.96 24.15h13.755l.63-3.08H124.39v-7.49h9.31v-2.94h-9.31V3.43h10.57L134.4.35h-13.44z"/><path d="M148.4 24.15h3.43v-9.275H155.645l6.825 9.275h4.165l-7.56-9.975c2.765-1.12 4.585-3.5 4.585-6.685 0-3.99-2.87-7.14-8.12-7.14h-7.14v23.8Zm3.43-12.25V3.43h3.535c2.8 0 4.76 1.47 4.76 4.27 0 2.695-1.89 4.2-4.865 4.2h-3.43Z" id="Shape"/><path id="Path" d="M169.785 24.15h3.43V.35h-3.43zM190.68 24.5c3.465 0 6.335-.875 8.505-2.17V12.11h-8.155l-.7 2.975h5.845v5.145c-1.68.84-3.5 1.19-5.32 1.19-5.25 0-9.17-3.71-9.17-9.205 0-5.6 4.13-9.135 9.24-9.135 2.87 0 5.355.875 7.595 2.59l-.49-3.99C196.21.665 193.725 0 190.89 0c-7.42 0-12.74 5.25-12.74 12.25 0 6.86 5.145 12.25 12.53 12.25ZM220.5 24.15h3.43V.35h-3.43v10.395h-12.53V.35h-3.43v23.8h3.43V13.825h12.53zM235.585 24.15h3.43V3.43h7.665V.35h-18.76v3.08h7.665z"/></g></g></g></svg>