<?xml version="1.0" encoding="UTF-8"?>
<svg width="227px" height="26px" viewBox="0 0 227 26" version="1.1" xmlns="http://www.w3.org/2000/svg" xmlns:xlink="http://www.w3.org/1999/xlink">
    <title>at the right</title>
    <g id="Case-studies" stroke="none" stroke-width="1" fill="none" fill-rule="evenodd">
        <g id="Annotation-Copy" transform="translate(-1993.000000, -4931.000000)" fill="#000000" fill-rule="nonzero">
            <g id="at-the-right" transform="translate(1993.705000, 4931.850000)">
                <path d="M0,24.15 L3.57,24.15 L6.195,17.85 L16.03,17.85 L18.655,24.15 L22.26,24.15 L11.83,0.175 L10.395,0.175 L0,24.15 Z M7.42,14.91 L11.095,6.055 L11.165,6.055 L14.84,14.91 L7.42,14.91 Z" id="Shape"></path>
                <polygon id="Path" points="30.835 24.15 34.265 24.15 34.265 3.43 41.93 3.43 41.93 0.35 23.17 0.35 23.17 3.43 30.835 3.43"></polygon>
                <polygon id="Path" points="59.325 24.15 62.755 24.15 62.755 3.43 70.42 3.43 70.42 0.35 51.66 0.35 51.66 3.43 59.325 3.43"></polygon>
                <polygon id="Path" points="90.37 24.15 93.8 24.15 93.8 0.35 90.37 0.35 90.37 10.745 77.84 10.745 77.84 0.35 74.41 0.35 74.41 24.15 77.84 24.15 77.84 13.825 90.37 13.825"></polygon>
                <polygon id="Path" points="100.31 24.15 114.065 24.15 114.695 21.07 103.74 21.07 103.74 13.58 113.05 13.58 113.05 10.64 103.74 10.64 103.74 3.43 114.31 3.43 113.75 0.35 100.31 0.35"></polygon>
                <path d="M127.75,24.15 L131.18,24.15 L131.18,14.875 L134.715,14.875 L134.995,14.875 L141.82,24.15 L145.985,24.15 L138.425,14.175 C141.19,13.055 143.01,10.675 143.01,7.49 C143.01,3.5 140.14,0.35 134.89,0.35 L127.75,0.35 L127.75,24.15 Z M131.18,11.9 L131.18,3.43 L134.715,3.43 C137.515,3.43 139.475,4.9 139.475,7.7 C139.475,10.395 137.585,11.9 134.61,11.9 L131.18,11.9 Z" id="Shape"></path>
                <polygon id="Path" points="149.135 24.15 152.565 24.15 152.565 0.35 149.135 0.35"></polygon>
                <path d="M170.03,24.5 C173.495,24.5 176.365,23.625 178.535,22.33 L178.535,12.11 L170.38,12.11 L169.68,15.085 L175.525,15.085 L175.525,20.23 C173.845,21.07 172.025,21.42 170.205,21.42 C164.955,21.42 161.035,17.71 161.035,12.215 C161.035,6.615 165.165,3.08 170.275,3.08 C173.145,3.08 175.63,3.955 177.87,5.67 L177.38,1.68 C175.56,0.665 173.075,0 170.24,0 C162.82,0 157.5,5.25 157.5,12.25 C157.5,19.11 162.645,24.5 170.03,24.5 Z" id="Path"></path>
                <polygon id="Path" points="199.85 24.15 203.28 24.15 203.28 0.35 199.85 0.35 199.85 10.745 187.32 10.745 187.32 0.35 183.89 0.35 183.89 24.15 187.32 24.15 187.32 13.825 199.85 13.825"></polygon>
                <polygon id="Path" points="214.935 24.15 218.365 24.15 218.365 3.43 226.03 3.43 226.03 0.35 207.27 0.35 207.27 3.43 214.935 3.43"></polygon>
            </g>
        </g>
    </g>
</svg>