<svg width="181" height="52" xmlns="http://www.w3.org/2000/svg"><g id="Case-studies" stroke="none" stroke-width="1" fill="none" fill-rule="evenodd"><g id="Annotation-Copy" transform="translate(-2017 -4979)" fill="#FFF" fill-rule="nonzero"><g id="time" transform="translate(2017.468 4979.596)"><path d="M30.186 50.404H13.829c-.608 0-.912-.305-.912-.913v-3.44c0-.608.304-.912.912-.912h5.336V5.265H5.897v7.441c0 .655-.328.983-.983.983H.983c-.655 0-.983-.328-.983-.983V.913C0 .304.328 0 .983 0h42.33c.656 0 .983.304.983.913v11.793c0 .655-.327.983-.983.983h-4.001c-.608 0-.913-.328-.913-.983V5.265H25.272v39.874h4.914c.655 0 .983.304.983.912v3.44c0 .608-.328.913-.983.913ZM68.796 50.404H51.948c-.608 0-.913-.281-.913-.843v-3.58c0-.562.305-.842.913-.842h5.335V5.265h-5.335c-.608 0-.913-.28-.913-.842V.843c0-.562.305-.843.913-.843h16.848c.608 0 .913.28.913.842v3.58c0 .562-.305.843-.913.843h-5.405v39.874h5.405c.608 0 .913.28.913.842v3.58c0 .562-.305.843-.913.843ZM133.38 50.404h-16.216c-.562 0-.843-.281-.843-.843v-3.58c0-.562.281-.842.843-.842h4.703v-34.96h-.07l-13.338 33.134c-.562 1.404-1.591 2.106-3.089 2.106-1.497 0-2.527-.702-3.089-2.106L88.943 10.18h-.14v34.96h4.703c.609 0 .913.28.913.842v3.58c0 .562-.304.843-.913.843H77.36c-.608 0-.912-.281-.912-.843v-3.58c0-.562.304-.842.912-.842h5.336V5.265H77.36c-.608 0-.912-.28-.912-.842V.843c0-.562.304-.843.912-.843h10.811c1.591 0 2.691.796 3.3 2.387l10.46 25.272 3.299 8.845h.28c1.311-3.65 2.387-6.552 3.23-8.705l10.53-25.412C119.878.796 121 0 122.64 0h10.74c.562 0 .842.28.842.842v3.58c0 .562-.28.843-.842.843h-5.405v39.874h5.405c.562 0 .842.28.842.842v3.58c0 .562-.28.843-.842.843ZM179.15 50.404h-37.276c-.608 0-.912-.281-.912-.843v-3.58c0-.562.304-.842.912-.842h5.335V5.265h-5.335c-.608 0-.912-.28-.912-.842V.843c0-.562.304-.843.912-.843h37.276c.609 0 .913.28.913.842v11.303c0 .608-.304.912-.913.912h-3.79c-.562 0-.843-.304-.843-.912v-6.88h-21.2v17.41h17.76c.609 0 .913.28.913.842v3.58c0 .562-.304.843-.913.843h-17.76v17.199h21.13v-6.88c0-.562.304-.842.913-.842h3.79c.609 0 .913.28.913.842v11.302c0 .562-.304.843-.913.843Z" id="Path"/></g></g></g></svg>