<svg width="55" height="55" xmlns="http://www.w3.org/2000/svg"><defs><clipPath id="i0"><path d="M1400 0v6092H0V0h1400Z"/></clipPath><clipPath id="i1"><path d="M14.482 35.623a.77.77 0 0 1 .77.77v16.57H26.1V47.55a.768.768 0 0 1 1.537 0v6.183c0 .425-.342.77-.767.77H14.482a.77.77 0 0 1-.77-.77v-17.34a.77.77 0 0 1 .77-.77Zm39.133-17.658c.425 0 .767.345.767.768v34.882a.768.768 0 0 1-.767.767H41.25a.768.768 0 0 1-.767-.767V33.312a.768.768 0 0 1 1.538 0l-.001 19.533h10.825V18.733a.77.77 0 0 1 .77-.768Zm-15.443 14.58a.768.768 0 0 1 0 1.538H24.526v16.56a.768.768 0 0 1-.77.767h-6.182a.766.766 0 0 1-.768-.767v-8.096a.768.768 0 1 1 1.538 0v7.326h4.645v-16.56c0-.425.342-.768.767-.768Zm6.17 10.733a.77.77 0 0 1 .768.77v5.707h5.413a.768.768 0 1 1 0 1.537h-6.18a.77.77 0 0 1-.77-.77v-6.474a.77.77 0 0 1 .77-.77ZM20.666 29.453c.425 0 .768.345.768.77V47.55a.768.768 0 1 1-1.538 0V30.993h-7a.77.77 0 0 1 0-1.54Zm29.858-2.903c.424 0 .77.342.77.767v20.115a.768.768 0 0 1-1.538 0V27.317c0-.425.345-.767.767-.767Zm-3.09 13.11a.77.77 0 0 1 .77.77v7.002a.768.768 0 0 1-.77.768.768.768 0 0 1-.77-.768V40.43a.77.77 0 0 1 .77-.77Zm-20.588-4.037a.77.77 0 0 1 .77.77v8.08a.77.77 0 0 1-1.537 0v-8.08a.77.77 0 0 1 .767-.77Zm17.498-6.17a.77.77 0 0 1 .767.77v10.745a.77.77 0 1 1-1.538 0v-9.976h-11.84a.768.768 0 0 1-.767-.77c0-.425.343-.77.768-.77ZM3.86 20.18a.768.768 0 1 1 0 1.538H1.538v10.827h16.035c.424 0 .77.343.77.767v6.078a.768.768 0 0 1-1.538 0v-5.307H.77a.77.77 0 0 1-.77-.77V20.95a.77.77 0 0 1 .77-.77Zm43.572-8.115c.425 0 .77.343.77.768V37.34a.768.768 0 0 1-.77.767.768.768 0 0 1-.77-.767V12.832c0-.425.346-.767.77-.767ZM23.755 3.092c.425 0 .77.343.77.768v3.09a.768.768 0 1 1-1.537 0V4.63h-4.645v19.41a.77.77 0 0 1-.77.77H4.63v4.643h5.108a.77.77 0 0 1 0 1.54H3.86a.768.768 0 0 1-.768-.77V24.04c0-.425.343-.767.768-.767h12.945V3.86c0-.425.343-.768.768-.768Zm4.87 26.36c.425 0 .767.345.767.77 0 .425-.342.77-.767.77h-4.87a.768.768 0 0 1-.767-.77c0-.425.342-.77.767-.77Zm7.575-3.09a.77.77 0 1 1 0 1.537l-29.247.001a.77.77 0 1 1 0-1.537Zm8.242 0a.768.768 0 0 1 0 1.538H39.28a.77.77 0 1 1 0-1.537ZM20.666 6.183c.425 0 .768.345.768.768v16.323h22.91a.768.768 0 0 1 0 1.537H20.665a.77.77 0 0 1-.77-.77V6.95a.77.77 0 0 1 .77-.768Zm29.858-3.09c.424 0 .77.343.77.768v19.61a.768.768 0 0 1-1.538 0V4.63H45.11v16.295c0 .422-.33.785-.755.793a.766.766 0 0 1-.782-.768V3.86c0-.425.344-.768.77-.768Zm-36.04 8.973c.425 0 .77.343.77.768v8.117a.768.768 0 0 1-.77.768h-7.53a.768.768 0 1 1 0-1.538h6.76v-7.348c0-.425.345-.767.77-.767ZM41.25 14c.425 0 .77.342.77.768v6.182a.768.768 0 0 1-.77.768H26.87a.768.768 0 1 1 0-1.538h13.613v-5.412c0-.426.342-.768.767-.768ZM23.755 9.262c.425 0 .77.343.77.768v10.92a.768.768 0 0 1-1.537 0V10.03c0-.425.342-.768.767-.768ZM26.845 0a.77.77 0 0 1 .77.77v17.15a.77.77 0 0 1-1.537 0V1.537H15.253v8.216a.77.77 0 0 1-1.54 0V.77a.77.77 0 0 1 .77-.77Zm26.77 0c.425 0 .767.345.767.77v14.885a.768.768 0 0 1-1.538 0l.001-14.117H42.02v10.12a.768.768 0 1 1-1.538 0V.77c0-.425.343-.77.768-.77Zm-6.183 6.183a.77.77 0 0 1 .77.767v2.802a.77.77 0 0 1-1.54 0V6.95a.77.77 0 0 1 .77-.768Z"/></clipPath></defs><g clip-path="url('#i0')" transform="translate(-41 -32)"><g clip-path="url('#i1')" transform="translate(41 32)"><path d="M0 0h54.383v54.502H0V0z"/></g></g></svg>