<?xml version="1.0" encoding="utf-8"?>
<!-- Generator: Adobe Illustrator 24.0.2, SVG Export Plug-In . SVG Version: 6.00 Build 0)  -->
<svg version="1.1" id="Layer_1" xmlns="http://www.w3.org/2000/svg" xmlns:xlink="http://www.w3.org/1999/xlink" x="0px" y="0px" viewBox="0 0 55 55" style="enable-background: new 0 0 55 55" xml:space="preserve">
<style>.st0 {
  clip-path: url("#SVGID_2_");
}

.st1 {
  clip-path: url("#SVGID_4_");
}

.st2 {
  fill: #ffc200;
}

</style>
<g transform="translate(-41.0 -32.0)">
	<g>
		<defs>
			<rect id="SVGID_1_" width="1400" height="6092"></rect>
		</defs>
		<clipPath id="SVGID_2_">
			<use xlink:href="#SVGID_1_" style="overflow: visible"></use>
		</clipPath>
		<g class="st0">
			<g transform="translate(41.0 32.0)">
				<g>
					<defs>
						<path id="SVGID_3_" d="M14.5,35.6c0.4,0,0.8,0.3,0.8,0.8V53h10.8v-5.4c0-0.4,0.3-0.8,0.8-0.8c0.4,0,0.8,0.3,0.8,0.8v6.2
							c0,0.4-0.3,0.8-0.8,0.8H14.5c-0.4,0-0.8-0.3-0.8-0.8V36.4C13.7,36,14.1,35.6,14.5,35.6z M53.6,18c0.4,0,0.8,0.3,0.8,0.8v34.9
							c0,0.4-0.3,0.8-0.8,0.8H41.3c-0.4,0-0.8-0.3-0.8-0.8V33.3c0-0.4,0.3-0.8,0.8-0.8s0.8,0.3,0.8,0.8v19.5h10.8V18.7
							C52.8,18.3,53.2,18,53.6,18z M38.2,32.5c0.4,0,0.8,0.3,0.8,0.8s-0.3,0.8-0.8,0.8H24.5v16.6c0,0.4-0.3,0.8-0.8,0.8h-6.2
							c-0.4,0-0.8-0.3-0.8-0.8v-8.1c0-0.4,0.3-0.8,0.8-0.8c0.4,0,0.8,0.3,0.8,0.8v7.3H23V33.3c0-0.4,0.3-0.8,0.8-0.8H38.2z
							 M44.3,43.3c0.4,0,0.8,0.3,0.8,0.8v5.7h5.4c0.4,0,0.8,0.3,0.8,0.8s-0.3,0.8-0.8,0.8h-6.2c-0.4,0-0.8-0.3-0.8-0.8V44
							C43.6,43.6,43.9,43.3,44.3,43.3z M20.7,29.5c0.4,0,0.8,0.3,0.8,0.8v17.3c0,0.4-0.3,0.8-0.8,0.8c-0.4,0-0.8-0.3-0.8-0.8V31h-7
							c-0.4,0-0.8-0.3-0.8-0.8s0.3-0.8,0.8-0.8H20.7z M50.5,26.5c0.4,0,0.8,0.3,0.8,0.8v20.1c0,0.4-0.3,0.8-0.8,0.8
							c-0.4,0-0.8-0.3-0.8-0.8V27.3C49.8,26.9,50.1,26.5,50.5,26.5z M47.4,39.7c0.4,0,0.8,0.3,0.8,0.8v7c0,0.4-0.3,0.8-0.8,0.8
							s-0.8-0.3-0.8-0.8v-7C46.7,40,47,39.7,47.4,39.7z M26.8,35.6c0.4,0,0.8,0.3,0.8,0.8v8.1c0,0.4-0.3,0.8-0.8,0.8
							c-0.4,0-0.8-0.3-0.8-0.8v-8.1C26.1,36,26.4,35.6,26.8,35.6z M44.3,29.5c0.4,0,0.8,0.3,0.8,0.8V41c0,0.4-0.3,0.8-0.8,0.8
							c-0.4,0-0.8-0.3-0.8-0.8V31H31.7c-0.4,0-0.8-0.3-0.8-0.8s0.3-0.8,0.8-0.8H44.3z M3.9,20.2c0.4,0,0.8,0.3,0.8,0.8
							c0,0.4-0.3,0.8-0.8,0.8H1.5v10.8h16c0.4,0,0.8,0.3,0.8,0.8v6.1c0,0.4-0.3,0.8-0.8,0.8c-0.4,0-0.8-0.3-0.8-0.8v-5.3h-16
							c-0.4,0-0.8-0.3-0.8-0.8V21c0-0.4,0.3-0.8,0.8-0.8H3.9z M47.4,12.1c0.4,0,0.8,0.3,0.8,0.8v24.5c0,0.4-0.3,0.8-0.8,0.8
							s-0.8-0.3-0.8-0.8V12.8C46.7,12.4,47,12.1,47.4,12.1z M23.8,3.1c0.4,0,0.8,0.3,0.8,0.8v3.1c0,0.4-0.3,0.8-0.8,0.8
							c-0.4,0-0.8-0.3-0.8-0.8V4.6h-4.6V24c0,0.4-0.3,0.8-0.8,0.8H4.6v4.6h5.1c0.4,0,0.8,0.3,0.8,0.8S10.2,31,9.7,31H3.9
							c-0.4,0-0.8-0.3-0.8-0.8V24c0-0.4,0.3-0.8,0.8-0.8h12.9V3.9c0-0.4,0.3-0.8,0.8-0.8H23.8z M28.6,29.5c0.4,0,0.8,0.3,0.8,0.8
							S29,31,28.6,31h-4.9c-0.4,0-0.8-0.3-0.8-0.8s0.3-0.8,0.8-0.8H28.6z M36.2,26.4c0.4,0,0.8,0.3,0.8,0.8c0,0.4-0.3,0.8-0.8,0.8H7
							c-0.4,0-0.8-0.3-0.8-0.8c0-0.4,0.3-0.8,0.8-0.8H36.2z M44.4,26.4c0.4,0,0.8,0.3,0.8,0.8c0,0.4-0.3,0.8-0.8,0.8h-5.2
							c-0.4,0-0.8-0.3-0.8-0.8c0-0.4,0.3-0.8,0.8-0.8H44.4z M20.7,6.2c0.4,0,0.8,0.3,0.8,0.8v16.3h22.9c0.4,0,0.8,0.3,0.8,0.8
							c0,0.4-0.3,0.8-0.8,0.8H20.7c-0.4,0-0.8-0.3-0.8-0.8V6.9C19.9,6.5,20.2,6.2,20.7,6.2z M50.5,3.1c0.4,0,0.8,0.3,0.8,0.8v19.6
							c0,0.4-0.3,0.8-0.8,0.8c-0.4,0-0.8-0.3-0.8-0.8V4.6h-4.6v16.3c0,0.4-0.3,0.8-0.8,0.8c-0.4,0-0.8-0.3-0.8-0.8V3.9
							c0-0.4,0.3-0.8,0.8-0.8H50.5z M14.5,12.1c0.4,0,0.8,0.3,0.8,0.8V21c0,0.4-0.3,0.8-0.8,0.8H7c-0.4,0-0.8-0.3-0.8-0.8
							c0-0.4,0.3-0.8,0.8-0.8h6.8v-7.3C13.7,12.4,14.1,12.1,14.5,12.1z M41.3,14c0.4,0,0.8,0.3,0.8,0.8V21c0,0.4-0.3,0.8-0.8,0.8
							H26.9c-0.4,0-0.8-0.3-0.8-0.8c0-0.4,0.3-0.8,0.8-0.8h13.6v-5.4C40.5,14.3,40.8,14,41.3,14z M23.8,9.3c0.4,0,0.8,0.3,0.8,0.8
							V21c0,0.4-0.3,0.8-0.8,0.8c-0.4,0-0.8-0.3-0.8-0.8V10C23,9.6,23.3,9.3,23.8,9.3z M26.8,0c0.4,0,0.8,0.3,0.8,0.8v17.1
							c0,0.4-0.3,0.8-0.8,0.8c-0.4,0-0.8-0.3-0.8-0.8V1.5H15.3v8.2c0,0.4-0.3,0.8-0.8,0.8s-0.8-0.3-0.8-0.8v-9
							c0-0.4,0.3-0.8,0.8-0.8H26.8z M53.6,0c0.4,0,0.8,0.3,0.8,0.8v14.9c0,0.4-0.3,0.8-0.8,0.8c-0.4,0-0.8-0.3-0.8-0.8V1.5H42v10.1
							c0,0.4-0.3,0.8-0.8,0.8s-0.8-0.3-0.8-0.8V0.8c0-0.4,0.3-0.8,0.8-0.8H53.6z M47.4,6.2c0.4,0,0.8,0.3,0.8,0.8v2.8
							c0,0.4-0.3,0.8-0.8,0.8s-0.8-0.3-0.8-0.8V6.9C46.7,6.5,47,6.2,47.4,6.2z"></path>
					</defs>
					<use xlink:href="#SVGID_3_" style="fill: #ffc200; overflow: visible"></use>
					<clipPath id="SVGID_4_">
						<use xlink:href="#SVGID_3_" style="overflow: visible"></use>
					</clipPath>
					<g class="st1">
						<polygon class="st2" points="0,0 54.4,0 54.4,54.5 0,54.5 						"></polygon>
					</g>
				</g>
			</g>
		</g>
	</g>
</g>
</svg>
