<?xml version="1.0" encoding="UTF-8"?>
<svg id="Layer_2" data-name="Layer 2" xmlns="http://www.w3.org/2000/svg" viewBox="0 0 84.18 14.79">
  <defs>
    <style>
      .cls-1 {
        fill: #231f20;
      }
    </style>
  </defs>
  <g id="Fonts">
    <g>
      <path class="cls-1" d="M1.82,12.86c-1.22-1.28-1.82-3.11-1.82-5.47,0-1.55,.27-2.89,.8-4,.53-1.11,1.28-1.96,2.25-2.53,.96-.57,2.08-.86,3.35-.86,.77,0,1.55,.22,2.33,.67,.3,.16,.59,.38,.89,.65,.23-.35,.47-.63,.71-.83,.24-.18,.38-.27,.41-.28h.51v3.85h-.81c-.18-.65-.44-1.23-.79-1.76-.32-.51-.73-.94-1.21-1.28-.48-.34-1.03-.51-1.65-.51-.93,0-1.71,.54-2.32,1.62-.62,1.08-.92,2.84-.92,5.27s.33,4.24,1,5.3c.67,1.06,1.58,1.59,2.75,1.59,.63,0,1.24-.18,1.81-.54,.57-.36,1.04-.83,1.4-1.43,.36-.59,.54-1.22,.54-1.88h.51c0,.77-.21,1.49-.62,2.16-.41,.67-.97,1.2-1.68,1.6s-1.5,.6-2.36,.6c-2.16,0-3.85-.64-5.06-1.93Z"/>
      <path class="cls-1" d="M13.27,14.18l1.22-.3V.91l-1.22-.3V.3h5.67c2.24,0,3.85,.37,4.82,1.11,.97,.74,1.46,1.82,1.46,3.25s-.49,2.51-1.46,3.25c-.97,.74-2.58,1.11-4.82,1.11h-1.11v4.86l1.22,.3v.3h-5.77v-.3Zm5.67-5.67c.85,0,1.54-.32,2.06-.97,.52-.65,.78-1.61,.78-2.88s-.26-2.21-.78-2.87c-.52-.66-1.21-.98-2.06-.98h-1.11v7.7h1.11Z"/>
      <path class="cls-1" d="M24.11,14.18l1.62-.61L31.3,.1h.61l5.77,13.78,1.01,.3v.3h-2.43c-.7,0-1.28-.16-1.72-.48-.45-.32-.78-.73-.99-1.24l-1.03-2.43h-4.84l-1.34,3.24,1.52,.61v.3h-3.75v-.3Zm3.77-4.36h4.44l-2.23-5.33-2.21,5.33Z"/>
      <path class="cls-1" d="M47.43,13.38c-1.03-.94-1.54-2.26-1.54-3.96V.91l-1.22-.3V.3h5.77v.3l-1.22,.3V9.42c0,1.74,.27,2.99,.81,3.74,.54,.75,1.32,1.12,2.33,1.12,.62,0,1.21-.2,1.77-.6,.56-.4,1.01-.97,1.36-1.7,.34-.74,.52-1.59,.52-2.56V1.21l-1.62-.61V.3h3.85v.3l-1.62,.61V9.42c0,1.09-.2,2.05-.61,2.86-.4,.81-.96,1.43-1.66,1.86s-1.5,.65-2.39,.65c-2,0-3.51-.47-4.54-1.41Z"/>
      <path class="cls-1" d="M61.63,14.14c-.38-.19-.7-.41-.95-.67-.19,.31-.43,.59-.71,.83-.24,.18-.38,.27-.41,.28h-.51v-3.85h.81c.2,.66,.49,1.26,.85,1.78,.82,1.18,1.89,1.76,3.2,1.76,.77,0,1.38-.23,1.84-.69,.46-.46,.69-1.07,.69-1.84,0-.45-.13-.84-.39-1.2-.26-.35-.59-.66-.98-.93s-.94-.61-1.64-1.01c-.89-.5-1.61-.95-2.17-1.36-.55-.4-1.03-.91-1.42-1.53s-.59-1.34-.59-2.18c0-.66,.18-1.26,.56-1.79,.37-.53,.93-.96,1.67-1.28,.74-.32,1.65-.48,2.73-.48,.78,0,1.57,.22,2.35,.67,.3,.16,.59,.38,.89,.65,.23-.35,.47-.63,.71-.83,.24-.18,.38-.27,.41-.28h.51v3.85h-.81c-.18-.65-.44-1.23-.79-1.76-.32-.51-.73-.94-1.21-1.28-.48-.34-1.03-.51-1.65-.51-.53,0-.98,.21-1.36,.63-.38,.42-.57,.95-.57,1.6,0,.5,.15,.95,.44,1.35,.29,.4,.65,.75,1.07,1.04,.42,.3,1,.66,1.73,1.07,.85,.49,1.54,.92,2.07,1.3,.53,.38,.97,.85,1.34,1.41,.36,.56,.55,1.21,.55,1.93s-.21,1.39-.63,2c-.42,.6-1.05,1.08-1.88,1.43-.84,.35-1.86,.53-3.06,.53-.96,0-1.86-.22-2.69-.65Z"/>
      <path class="cls-1" d="M69.59,14.18l1.62-.61L76.78,.1h.61l5.77,13.78,1.01,.3v.3h-2.43c-.7,0-1.28-.16-1.72-.48-.45-.32-.78-.73-.99-1.24l-1.03-2.43h-4.84l-1.34,3.24,1.52,.61v.3h-3.75v-.3Zm3.77-4.36h4.44l-2.23-5.33-2.21,5.33Z"/>
    </g>
  </g>
</svg>