<svg width="707" height="777" xmlns="http://www.w3.org/2000/svg"><g id="Home-V3.1" stroke="none" stroke-width="1" fill="none" fill-rule="evenodd" stroke-linecap="round" stroke-linejoin="round"><g id="Home-2.1-Copy-21" transform="translate(-693 -1709)" stroke="#FFF" stroke-width="7.779"><g id="Graphic-/-Data-TH" transform="translate(697.222 1713.068)"><g id="Group-2" opacity=".5"><path id="Stroke-1" d="M482.587 202.061V59.638"/><path id="Stroke-2" d="M502.941 181.715v-40.693"/><path id="Stroke-3" d="M502.941 120.677V0"/><path id="Stroke-4" d="M523.296 100.33v101.731"/><path id="Stroke-5" d="M543.65 161.369v40.692h142.478"/><path id="Stroke-6" d="M564.004 181.715V100.33"/><path id="Stroke-7" d="M584.358 222.407h40.709"/><path id="Stroke-8" d="M604.712 242.753h101.77"/><path id="Stroke-9" d="M747.191 364.83H584.358v20.347"/><path id="Stroke-10" d="M584.358 405.523h20.354v-20.347h81.416"/><path id="Stroke-11" d="M645.42 406.771h61.063"/><path id="Stroke-12" d="M340.108 610.079v101.73"/><path id="Stroke-13" d="M360.462 610.079v20.347"/><path id="Stroke-14" d="M319.754 650.771v40.693"/><path id="Stroke-15" d="M299.399 610.079v61.039"/><path id="Stroke-16" d="M584.358 671.118v-61.04h122.125"/><path id="Stroke-17" d="M686.129 589.733H645.42"/><path id="Stroke-18" d="M625.066 589.733h-40.708"/><path id="Stroke-19" d="M564.004 610.079v101.73"/><path id="Stroke-20" d="M543.65 691.464v-81.385h-20.355"/><path id="Stroke-21" d="M523.295 630.425v20.347"/><path id="Stroke-22" d="M482.879 650.771v40.693"/><path id="Stroke-23" d="M502.941 711.81V610.08"/><path id="Stroke-24" d="M604.712 447.31h101.77"/><path id="Stroke-25" d="M767.546 447.31h-40.709"/><path id="Stroke-27" d="M686.129 467.656h-101.77"/><path id="Stroke-28" d="M584.358 283.446v20.346h81.417"/><path id="Stroke-29" d="M686.129 324.138h-81.417"/><path id="Stroke-30" d="M177.274 447.31h-40.708v-20.346H34.796"/><path id="Stroke-31" d="M177.274 426.964H156.92"/><path id="Stroke-32" d="M177.274 405.523h-61.063"/><path id="Stroke-33" d="M156.92 385.177H55.15"/><path id="Stroke-34" d="M95.858 364.83h20.354"/><path id="Stroke-35" d="M136.566 364.83h40.709"/><path id="Stroke-36" d="M156.92 344.484h40.709v-61.039"/><path id="Stroke-37" d="M177.274 324.138h-40.708"/><path id="Stroke-38" d="M238.337 344.484V263.1h-61.063"/><path id="Stroke-39" d="M217.983 344.484v-40.692"/><path id="Stroke-40" d="M279.045 589.733h-40.708v20.346h-40.71"/><path id="Stroke-41" d="M258.702 610.079v20.347"/><path id="Stroke-42" d="M279.045 569.387h-61.063"/><path id="Stroke-43" d="M238.337 549.041h20.354"/><path id="Stroke-44" d="M279.045 528.694H156.921"/><path id="Stroke-45" d="M319.777 630.425v-20.346"/><path id="Stroke-46" d="M319.754 202.061v-101.73"/><path id="Stroke-47" d="m340.108 161.369-.37-41.31"/><path id="Stroke-48" d="m360.565 120.059-.103 61.656"/><path id="Stroke-49" d="M299.4 161.369v40.692h-40.698"/><path id="Stroke-50" d="M279.045 222.407h-61.063"/><path id="Stroke-51" d="M279.045 242.753v101.731"/><path id="Stroke-52" d="M258.691 242.753v61.039"/><path id="Stroke-53" d="M258.691 324.138v20.346"/><path id="Stroke-54" d="M401.17 344.484h61.14v-20.346"/><path id="Stroke-55" d="M462.156 303.792V181.715"/><path id="Stroke-56" d="M441.879 202.061v122.077"/><path id="Stroke-57" d="M421.524 324.138H401.17v-81.385"/><path id="Stroke-58" d="M401.17 222.407v-20.346h-20.177v-101.73"/><path id="Stroke-59" d="M421.524 302.741V263.1"/><path id="Stroke-60" d="M421.536 242.753v-101.73"/><path id="Stroke-61" d="M401.17 467.656v142.423"/><path id="Stroke-62" d="M482.587 630.425V610.08h-20.431v-40.693"/><path id="Stroke-63" d="M462.156 549.041v-81.386"/><path id="Stroke-64" d="M441.879 467.656v40.693"/><path id="Stroke-65" d="M421.524 467.656v61.039h20.355v59.943"/><path id="Stroke-66" d="M421.524 549.041v101.73"/><path id="Stroke-67" d="M747.191 528.694H584.358v-21.44h40.709"/><path id="Stroke-68" d="M584.358 488.002h20.354"/><path id="Stroke-69" d="M625.066 488.002h20.355v20.346h61.063"/><path id="Stroke-70" d="M726.837 488.002h-61.063"/><path id="Stroke-71" d="M584.358 549.041h61.063"/><path id="Stroke-72" d="M665.775 547.946h40.708"/><path id="Stroke-73" d="M665.775 569.387h-81.418"/><path id="Stroke-74" d="M604.712 425.869h-20.354"/><path id="Stroke-75" d="M625.066 406.77v20.193h40.709"/><path id="Stroke-76" d="M584.358 324.138v20.346"/><path id="Stroke-77" d="M604.712 344.484h61.063"/><path id="Stroke-78" d="M604.712 283.446h101.77V263.1h20.355"/><path id="Stroke-79" d="M686.129 263.037h-101.77"/><path id="Stroke-80" d="M279.045 467.656h-81.417v20.346h-61.062"/><path id="Stroke-81" d="M116.212 507.254h162.833v-20.565"/><path id="Stroke-82" d="M258.702 488.002h-40.72"/><path id="Stroke-83" d="M177.274 467.656h-61.063"/><path id="Stroke-84" d="M380.816 610.08v40.692h-20.33v81.384"/><path id="Stroke-86" d="M421.524 671.118H401.17v-40.693"/><path id="Stroke-87" d="M360.485 202.061h-20.378v-20.346"/><path id="Stroke-88" d="M401.17 181.715V59.638"/><path id="Stroke-89" d="M177.274 283.446H95.857"/><path id="Stroke-90" d="M116.212 303.792h61.063"/><path id="Stroke-91" d="M95.858 324.138h20.354"/><path d="M94.69 281.878c0 9.604-7.789 17.39-17.397 17.39-9.609 0-17.398-7.786-17.398-17.39 0-9.604 7.79-17.39 17.398-17.39s17.397 7.786 17.397 17.39Z" id="Stroke-92"/><path d="M217.983 222.407c0 9.604-7.79 17.39-17.397 17.39-9.61 0-17.399-7.786-17.399-17.39 0-9.604 7.79-17.39 17.399-17.39 9.607 0 17.397 7.786 17.397 17.39Z" id="Stroke-94"/><path d="M581.401 729.2c0 9.604-7.79 17.39-17.397 17.39-9.609 0-17.398-7.786-17.398-17.39 0-9.603 7.79-17.39 17.398-17.39s17.397 7.787 17.397 17.39Z" id="Stroke-96"/><path d="M34.795 426.964c0 9.604-7.79 17.39-17.397 17.39C7.79 444.354 0 436.568 0 426.964c0-9.604 7.79-17.39 17.398-17.39s17.397 7.786 17.397 17.39Z" id="Stroke-98"/><path d="M276.1 647.816c0 9.604-7.79 17.39-17.397 17.39-9.609 0-17.398-7.786-17.398-17.39 0-9.604 7.789-17.39 17.398-17.39 9.608 0 17.397 7.786 17.397 17.39Z" id="Stroke-100"/><path d="M337.758 83.107c0 9.604-7.79 17.39-17.397 17.39-9.61 0-17.398-7.786-17.398-17.39 0-9.603 7.789-17.39 17.398-17.39 9.608 0 17.397 7.787 17.397 17.39Z" id="Stroke-102"/><path d="M378.466 751.276c0 9.604-7.79 17.39-17.397 17.39-9.609 0-17.398-7.786-17.398-17.39 0-9.605 7.79-17.39 17.398-17.39s17.397 7.785 17.397 17.39Z" id="Stroke-104"/></g><g id="Group" transform="translate(197.855 224.152)"><path id="Stroke-1" d="M101.794 80.334v62.089"/><path id="Stroke-2" d="M183.21 122.077V0h-81.417v61.038"/><path id="Stroke-4" d="M162.856 61.039v81.385"/><path id="Stroke-5" d="M122.148 162.77V20.345h40.709V40.63"/><path id="Stroke-6" d="M142.502 40.692v122.077"/><path id="Stroke-7" d="M183.211 305.269v-61.192"/><path id="Stroke-8" d="M101.794 244.077v122.155h81.57v-40.693"/><path id="Stroke-10" d="M122.148 264.282v-40.474"/><path id="Stroke-11" d="M162.856 223.808v122.076h-40.708v-60.82"/><path id="Stroke-12" d="M142.502 325.539V203.462"/><path id="Stroke-13" d="M284.959 0v81.259"/><path id="Stroke-15" d="M366.375 101.73V0h-81.417"/><path id="Stroke-17" d="M284.959 223.808V366.23h81.417V122.077"/><path id="Stroke-20" d="M162.856 223.808h101.825"/><path id="Stroke-21" d="M122.148 223.808H0v-81.386h20.354"/><path id="Stroke-23" d="M101.794 142.423H40.709"/><path id="Stroke-24" d="M284.959 101.73v40.694H183.365"/><path id="Stroke-25" d="M223.896 203.462h81.417v81.385"/><path id="Stroke-26" d="M162.856 203.462h40.686"/><path id="Stroke-27" d="M81.417 203.462h61.085"/><path id="Stroke-28" d="M122.148 162.77H20.354v40.692h40.693"/><path id="Stroke-29" d="M305.313 162.769h-162.81"/><path d="M346.021 162.77V20.345s0 0 0 0h-40.708v122.077" id="Stroke-30"/><path id="Stroke-32" d="M346.021 325.539V183.116"/><path id="Stroke-34" d="M305.313 305.192v40.693h40.709"/><path id="Stroke-36" d="M325.667 284.846v40.693"/><path id="Stroke-38" d="M325.667 81.259v183.023"/><path id="Stroke-40" d="M325.667 40.692v20.347"/><path id="Stroke-42" d="M244.25 183.116H40.708"/><path id="Stroke-44" d="M305.973 183.116h-41.445"/></g></g></g></g></svg>