<?xml version="1.0" encoding="UTF-8"?>
<svg width="707px" height="777px" viewBox="0 0 707 777" version="1.1" xmlns="http://www.w3.org/2000/svg" xmlns:xlink="http://www.w3.org/1999/xlink">
    <title>Graphic / Data TH</title>
    <g id="Home-V3.1" stroke="none" stroke-width="1" fill="none" fill-rule="evenodd" stroke-linecap="round" stroke-linejoin="round">
        <g id="Home-2.1-Copy-21" transform="translate(-693.000000, -1709.000000)" stroke="#FFFFFF" stroke-width="7.779">
            <g id="Graphic-/-Data-TH" transform="translate(697.222363, 1713.068250)">
                <g id="Group-2" opacity="0.5">
                    <line x1="482.587045" y1="202.061123" x2="482.587045" y2="59.6382346" id="Stroke-1"></line>
                    <line x1="502.94124" y1="181.71494" x2="502.94124" y2="141.022315" id="Stroke-2"></line>
                    <line x1="502.94124" y1="120.676522" x2="502.94124" y2="0" id="Stroke-3"></line>
                    <line x1="523.295566" y1="100.33034" x2="523.295566" y2="202.060603" id="Stroke-4"></line>
                    <polyline id="Stroke-5" points="543.649501 161.368758 543.649501 202.061383 686.12848 202.061383"></polyline>
                    <line x1="564.003697" y1="181.71494" x2="564.003697" y2="100.329689" id="Stroke-6"></line>
                    <line x1="584.357892" y1="222.407306" x2="625.066544" y2="222.407306" id="Stroke-7"></line>
                    <line x1="604.712088" y1="242.753489" x2="706.482415" y2="242.753489" id="Stroke-8"></line>
                    <polyline id="Stroke-9" points="747.191327 364.830455 584.358023 364.830455 584.358023 385.176767"></polyline>
                    <polyline id="Stroke-10" points="584.357892 405.52269 604.712218 405.52269 604.712218 385.176377 686.12822 385.176377"></polyline>
                    <line x1="645.420479" y1="406.770507" x2="706.483456" y2="406.770507" id="Stroke-11"></line>
                    <line x1="340.107676" y1="610.079187" x2="340.107676" y2="711.80945" id="Stroke-12"></line>
                    <line x1="360.462001" y1="610.079187" x2="360.462001" y2="630.4255" id="Stroke-13"></line>
                    <line x1="319.75361" y1="650.771422" x2="319.75361" y2="691.464048" id="Stroke-14"></line>
                    <line x1="299.399414" y1="610.079187" x2="299.399414" y2="671.118125" id="Stroke-15"></line>
                    <polyline id="Stroke-16" points="584.357892 671.117605 584.357892 610.078666 706.482545 610.078666"></polyline>
                    <line x1="686.12887" y1="589.733004" x2="645.420219" y2="589.733004" id="Stroke-17"></line>
                    <line x1="625.066284" y1="589.733004" x2="584.357632" y2="589.733004" id="Stroke-18"></line>
                    <line x1="564.003697" y1="610.079187" x2="564.003697" y2="711.80945" id="Stroke-19"></line>
                    <polyline id="Stroke-20" points="543.649762 691.463787 543.649762 610.078536 523.295436 610.078536"></polyline>
                    <line x1="523.295436" y1="630.425239" x2="523.295436" y2="650.771552" id="Stroke-21"></line>
                    <line x1="482.87862" y1="650.771422" x2="482.87862" y2="691.464048" id="Stroke-22"></line>
                    <line x1="502.94124" y1="711.80997" x2="502.94124" y2="610.079707" id="Stroke-23"></line>
                    <line x1="604.712088" y1="447.309855" x2="706.482415" y2="447.309855" id="Stroke-24"></line>
                    <line x1="767.545523" y1="447.309855" x2="726.836871" y2="447.309855" id="Stroke-25"></line>
                    <line x1="686.12887" y1="467.656038" x2="584.358543" y2="467.656038" id="Stroke-27"></line>
                    <polyline id="Stroke-28" points="584.357892 283.445854 584.357892 303.792167 665.775195 303.792167"></polyline>
                    <line x1="686.12887" y1="324.138089" x2="604.711567" y2="324.138089" id="Stroke-29"></line>
                    <polyline id="Stroke-30" points="177.274371 447.309855 136.56572 447.309855 136.56572 426.963542 34.7953925 426.963542"></polyline>
                    <line x1="177.274371" y1="426.963673" x2="156.920045" y2="426.963673" id="Stroke-31"></line>
                    <line x1="177.274371" y1="405.52269" x2="116.211394" y2="405.52269" id="Stroke-32"></line>
                    <line x1="156.920176" y1="385.176637" x2="55.1498484" y2="385.176637" id="Stroke-33"></line>
                    <line x1="95.8577189" y1="364.830455" x2="116.212045" y2="364.830455" id="Stroke-34"></line>
                    <line x1="136.56598" y1="364.830455" x2="177.274631" y2="364.830455" id="Stroke-35"></line>
                    <polyline id="Stroke-36" points="156.920176 344.484272 197.628827 344.484272 197.628827 283.445333"></polyline>
                    <line x1="177.274371" y1="324.138089" x2="136.56572" y2="324.138089" id="Stroke-37"></line>
                    <polyline id="Stroke-38" points="238.336958 344.484272 238.336958 263.099021 177.273981 263.099021"></polyline>
                    <line x1="217.982632" y1="344.484272" x2="217.982632" y2="303.791646" id="Stroke-39"></line>
                    <polyline id="Stroke-40" points="279.045219 589.733004 238.336567 589.733004 238.336567 610.079317 197.627916 610.079317"></polyline>
                    <line x1="258.702478" y1="610.079187" x2="258.702478" y2="630.4255" id="Stroke-41"></line>
                    <line x1="279.045219" y1="569.386821" x2="217.982242" y2="569.386821" id="Stroke-42"></line>
                    <line x1="238.336958" y1="549.040639" x2="258.691284" y2="549.040639" id="Stroke-43"></line>
                    <line x1="279.045219" y1="528.694456" x2="156.920566" y2="528.694456" id="Stroke-44"></line>
                    <line x1="319.77652" y1="630.425239" x2="319.77652" y2="610.078926" id="Stroke-45"></line>
                    <line x1="319.75361" y1="202.061123" x2="319.75361" y2="100.33086" id="Stroke-46"></line>
                    <line x1="340.107676" y1="161.368758" x2="339.737739" y2="120.058599" id="Stroke-47"></line>
                    <line x1="360.564573" y1="120.058599" x2="360.462001" y2="181.715461" id="Stroke-48"></line>
                    <polyline id="Stroke-49" points="299.399414 161.368758 299.399414 202.061383 258.702478 202.061383"></polyline>
                    <line x1="279.045219" y1="222.407306" x2="217.982242" y2="222.407306" id="Stroke-50"></line>
                    <line x1="279.045219" y1="242.753489" x2="279.045219" y2="344.483751" id="Stroke-51"></line>
                    <line x1="258.691153" y1="242.753489" x2="258.691153" y2="303.792427" id="Stroke-52"></line>
                    <line x1="258.691153" y1="324.138089" x2="258.691153" y2="344.484402" id="Stroke-53"></line>
                    <polyline id="Stroke-54" points="401.170262 344.484272 462.310038 344.484272 462.310038 324.137959"></polyline>
                    <line x1="462.15579" y1="303.791906" x2="462.15579" y2="181.715331" id="Stroke-55"></line>
                    <line x1="441.878653" y1="202.061123" x2="441.878653" y2="324.137699" id="Stroke-56"></line>
                    <polyline id="Stroke-57" points="421.524458 324.138089 401.170132 324.138089 401.170132 242.752838"></polyline>
                    <polyline id="Stroke-58" points="401.170392 222.407306 401.170392 202.060993 380.993095 202.060993 380.993095 100.33073"></polyline>
                    <line x1="421.524458" y1="302.741086" x2="421.524458" y2="263.099801" id="Stroke-59"></line>
                    <line x1="421.535913" y1="242.753489" x2="421.535913" y2="141.023226" id="Stroke-60"></line>
                    <line x1="401.170262" y1="467.656038" x2="401.170262" y2="610.078926" id="Stroke-61"></line>
                    <polyline id="Stroke-62" points="482.587045 630.425239 482.587045 610.078926 462.15592 610.078926 462.15592 569.386301"></polyline>
                    <line x1="462.15579" y1="549.040639" x2="462.15579" y2="467.655387" id="Stroke-63"></line>
                    <line x1="441.878653" y1="467.656038" x2="441.878653" y2="508.348664" id="Stroke-64"></line>
                    <polyline id="Stroke-65" points="421.524458 467.656038 421.524458 528.694976 441.878784 528.694976 441.878784 588.638334"></polyline>
                    <line x1="421.524458" y1="549.040639" x2="421.524458" y2="650.770901" id="Stroke-66"></line>
                    <polyline id="Stroke-67" points="747.191327 528.694456 584.358023 528.694456 584.358023 507.253864 625.066674 507.253864"></polyline>
                    <line x1="584.357892" y1="488.002091" x2="604.712218" y2="488.002091" id="Stroke-68"></line>
                    <polyline id="Stroke-69" points="625.066284 488.002091 645.420609 488.002091 645.420609 508.348403 706.483587 508.348403"></polyline>
                    <line x1="726.837131" y1="488.002091" x2="665.774154" y2="488.002091" id="Stroke-70"></line>
                    <line x1="584.357892" y1="549.040639" x2="645.42087" y2="549.040639" id="Stroke-71"></line>
                    <line x1="665.774675" y1="547.945839" x2="706.483326" y2="547.945839" id="Stroke-72"></line>
                    <line x1="665.774675" y1="569.386821" x2="584.357372" y2="569.386821" id="Stroke-73"></line>
                    <line x1="604.712088" y1="425.868873" x2="584.357762" y2="425.868873" id="Stroke-74"></line>
                    <polyline id="Stroke-75" points="625.066284 406.770507 625.066284 426.963282 665.774935 426.963282"></polyline>
                    <line x1="584.357892" y1="324.138089" x2="584.357892" y2="344.484402" id="Stroke-76"></line>
                    <line x1="604.712088" y1="344.484272" x2="665.775065" y2="344.484272" id="Stroke-77"></line>
                    <polyline id="Stroke-78" points="604.712088 283.445854 706.482415 283.445854 706.482415 263.099541 726.836741 263.099541"></polyline>
                    <line x1="686.12887" y1="263.036695" x2="584.358543" y2="263.036695" id="Stroke-79"></line>
                    <polyline id="Stroke-80" points="279.045219 467.656038 197.627916 467.656038 197.627916 488.002351 136.56624 488.002351"></polyline>
                    <polyline id="Stroke-81" points="116.211915 507.253603 279.045219 507.253603 279.045219 486.688695"></polyline>
                    <line x1="258.702478" y1="488.002091" x2="217.982111" y2="488.002091" id="Stroke-82"></line>
                    <line x1="177.274371" y1="467.656038" x2="116.211394" y2="467.656038" id="Stroke-83"></line>
                    <polyline id="Stroke-84" points="380.816197 610.079187 380.816197 650.771812 360.485301 650.771812 360.485301 732.155762"></polyline>
                    <polyline id="Stroke-86" points="421.524458 671.117605 401.170132 671.117605 401.170132 630.424979"></polyline>
                    <polyline id="Stroke-87" points="360.484911 202.061123 340.107155 202.061123 340.107155 181.71481"></polyline>
                    <line x1="401.170262" y1="181.71494" x2="401.170262" y2="59.6383647" id="Stroke-88"></line>
                    <line x1="177.274371" y1="283.445854" x2="95.8570681" y2="283.445854" id="Stroke-89"></line>
                    <line x1="116.211915" y1="303.791906" x2="177.274892" y2="303.791906" id="Stroke-90"></line>
                    <line x1="95.8577189" y1="324.138219" x2="116.212045" y2="324.138219" id="Stroke-91"></line>
                    <path d="M94.6902447,281.87795 C94.6902447,291.481847 86.9010086,299.268017 77.2933294,299.268017 C67.6843486,299.268017 59.8951125,291.481847 59.8951125,281.87795 C59.8951125,272.274054 67.6843486,264.487884 77.2933294,264.487884 C86.9010086,264.487884 94.6902447,272.274054 94.6902447,281.87795 Z" id="Stroke-92"></path>
                    <path d="M217.982632,222.407306 C217.982632,232.011203 210.193396,239.797372 200.585717,239.797372 C190.976736,239.797372 183.1875,232.011203 183.1875,222.407306 C183.1875,212.803409 190.976736,205.017239 200.585717,205.017239 C210.193396,205.017239 217.982632,212.803409 217.982632,222.407306 Z" id="Stroke-94"></path>
                    <path d="M581.401133,729.200427 C581.401133,738.804324 573.611897,746.590494 564.004217,746.590494 C554.395237,746.590494 546.606001,738.804324 546.606001,729.200427 C546.606001,719.59653 554.395237,711.81036 564.004217,711.81036 C573.611897,711.81036 581.401133,719.59653 581.401133,729.200427 Z" id="Stroke-96"></path>
                    <path d="M34.7951322,426.963673 C34.7951322,436.567569 27.005896,444.353739 17.3982169,444.353739 C7.78923613,444.353739 0,436.567569 0,426.963673 C0,417.359776 7.78923613,409.573606 17.3982169,409.573606 C27.005896,409.573606 34.7951322,417.359776 34.7951322,426.963673 Z" id="Stroke-98"></path>
                    <path d="M276.099914,647.815826 C276.099914,657.419723 268.310678,665.205893 258.702999,665.205893 C249.094018,665.205893 241.304782,657.419723 241.304782,647.815826 C241.304782,638.211929 249.094018,630.42576 258.702999,630.42576 C268.310678,630.42576 276.099914,638.211929 276.099914,647.815826 Z" id="Stroke-100"></path>
                    <path d="M337.757758,83.1074729 C337.757758,92.7113697 329.968522,100.497539 320.360842,100.497539 C310.751862,100.497539 302.962626,92.7113697 302.962626,83.1074729 C302.962626,73.503576 310.751862,65.7174063 320.360842,65.7174063 C329.968522,65.7174063 337.757758,73.503576 337.757758,83.1074729 Z" id="Stroke-102"></path>
                    <path d="M378.466149,751.276378 C378.466149,760.880275 370.676913,768.666445 361.069234,768.666445 C351.460253,768.666445 343.671017,760.880275 343.671017,751.276378 C343.671017,741.67118 351.460253,733.886311 361.069234,733.886311 C370.676913,733.886311 378.466149,741.67118 378.466149,751.276378 Z" id="Stroke-104"></path>
                </g>
                <g id="Group" transform="translate(197.854928, 224.151777)">
                    <line x1="101.793887" y1="80.33378" x2="101.793887" y2="142.422758" id="Stroke-1"></line>
                    <polyline id="Stroke-2" points="183.21067 122.076966 183.21067 0.000390349418 101.793367 0.000390349418 101.793367 61.0380276"></polyline>
                    <line x1="162.856474" y1="61.0385481" x2="162.856474" y2="142.423799" id="Stroke-4"></line>
                    <polyline id="Stroke-5" points="122.148083 162.769331 122.148083 20.3464429 162.856735 20.3464429 162.856735 40.6289987"></polyline>
                    <line x1="142.502279" y1="40.6923654" x2="142.502279" y2="162.768941" id="Stroke-6"></line>
                    <line x1="183.21067" y1="305.269379" x2="183.21067" y2="244.076903" id="Stroke-7"></line>
                    <polyline id="Stroke-8" points="101.793887 244.076903 101.793887 366.231549 183.364788 366.231549 183.364788 325.538923"></polyline>
                    <line x1="122.148083" y1="264.281909" x2="122.148083" y2="223.80788" id="Stroke-10"></line>
                    <polyline id="Stroke-11" points="162.856474 223.807749 162.856474 345.884325 122.147823 345.884325 122.147823 285.063982"></polyline>
                    <line x1="142.502279" y1="325.538533" x2="142.502279" y2="203.461957" id="Stroke-12"></line>
                    <line x1="284.958608" y1="0" x2="284.958608" y2="81.2590383" id="Stroke-13"></line>
                    <polyline id="Stroke-15" points="366.37526 101.730783 366.37526 0.00052046589 284.957957 0.00052046589"></polyline>
                    <polyline id="Stroke-17" points="284.958608 223.807749 284.958608 366.230638 366.375911 366.230638 366.375911 122.077487"></polyline>
                    <line x1="162.856474" y1="223.807749" x2="264.681472" y2="223.807749" id="Stroke-20"></line>
                    <polyline id="Stroke-21" points="122.148083 223.807749 0 223.807749 0 183.115124 0 142.422498 20.3543258 142.422498"></polyline>
                    <line x1="101.793887" y1="142.423149" x2="40.7087817" y2="142.423149" id="Stroke-23"></line>
                    <polyline id="Stroke-24" points="284.958608 101.730913 284.958608 142.423539 183.365309 142.423539"></polyline>
                    <polyline id="Stroke-25" points="223.896021 203.461567 305.313324 203.461567 305.313324 284.846818"></polyline>
                    <line x1="162.856474" y1="203.461567" x2="203.541696" y2="203.461567" id="Stroke-26"></line>
                    <line x1="81.4167824" y1="203.461567" x2="142.501888" y2="203.461567" id="Stroke-27"></line>
                    <polyline id="Stroke-28" points="122.148083 162.769331 20.3543258 162.769331 20.3543258 203.461957 61.0473571 203.461957"></polyline>
                    <line x1="305.312804" y1="162.769331" x2="142.502929" y2="162.769331" id="Stroke-29"></line>
                    <path d="M346.021195,162.769331 L346.021195,20.3464429 C346.021195,20.3464429 346.021195,20.3464429 346.021195,20.3464429 L305.312543,20.3464429 L305.312543,142.423019" id="Stroke-30"></path>
                    <line x1="346.021325" y1="325.538533" x2="346.021325" y2="183.115644" id="Stroke-32"></line>
                    <polyline id="Stroke-34" points="305.312934 305.19248 305.312934 345.885106 325.66726 345.885106 346.021585 345.885106"></polyline>
                    <line x1="325.666999" y1="284.846298" x2="325.666999" y2="325.538923" id="Stroke-36"></line>
                    <line x1="325.666999" y1="81.2589082" x2="325.666999" y2="264.28204" id="Stroke-38"></line>
                    <line x1="325.666999" y1="40.6923654" x2="325.666999" y2="61.0386782" id="Stroke-40"></line>
                    <line x1="244.250217" y1="183.115514" x2="40.708261" y2="183.115514" id="Stroke-42"></line>
                    <line x1="305.973144" y1="183.115514" x2="264.527744" y2="183.115514" id="Stroke-44"></line>
                </g>
            </g>
        </g>
    </g>
</svg>