<svg width="337" height="138" xmlns="http://www.w3.org/2000/svg"><g id="Case-studies" stroke="none" stroke-width="1" fill="none" fill-rule="evenodd"><g id="Annotation-Copy" transform="translate(-2429 -4908)"><g id="Logo-/-Stacked-/-Black-White" transform="translate(2429.436 4908)"><g id="Group" transform="translate(0 106.443)" fill="#FFF" fill-rule="nonzero"><path id="Path" d="M9.765 30.767h4.37V4.37H23.9V.446H0V4.37h9.765z"/><path d="M19.084 30.767h4.548l3.344-8.027h12.53l3.344 8.027h4.593L34.155.223h-1.828L19.084 30.767Zm9.453-11.772L33.22 7.714h.09l4.681 11.281h-9.453Z" id="Shape"/><path id="Path" d="M53.462 30.767h4.37V18.638L68.802.446H64.03l-8.294 13.956L47.532.446h-5.038l10.968 18.148zM73.438 30.767H89.58l.758-3.924h-12.53V.446h-4.37z"/><path d="M105.498 31.212c8.606 0 15.339-6.599 15.339-15.561C120.837 6.688 114.104 0 105.498 0c-8.561 0-15.294 6.688-15.294 15.65 0 8.963 6.733 15.562 15.294 15.562Zm-10.79-15.561c0-7.357 5.261-11.638 10.79-11.638 5.618 0 10.79 4.28 10.79 11.638 0 7.268-5.172 11.548-10.79 11.548-5.529 0-10.79-4.28-10.79-11.548ZM127.124 30.767h4.37V18.95h4.86l8.695 11.817h5.306l-9.631-12.708c3.522-1.427 5.84-4.46 5.84-8.517 0-5.083-3.656-9.096-10.344-9.096h-9.096v30.32Zm4.37-15.607V4.37h4.503c3.567 0 6.064 1.872 6.064 5.44 0 3.433-2.408 5.35-6.198 5.35h-4.37Z" id="Shape"/><path id="Path" d="M184.332 30.767h4.37V.446h-4.37v13.243h-15.963V.446h-4.37v30.32h4.37V17.614h15.963z"/><path d="M193.071 30.767h4.548l3.345-8.027h12.53l3.343 8.027h4.593L208.142.223h-1.828l-13.243 30.544Zm9.453-11.772 4.682-11.281h.09l4.681 11.281h-9.453Z" id="Shape"/><path id="Path" d="M229.768 30.99h1.65l8.561-21.805 8.561 21.804h1.605L261.025.446h-4.459l-7.179 21.581h-.178L240.826.312h-1.516l-8.383 21.715h-.133L223.392.446h-4.548zM265.618 30.767h4.37V20.734l4.057-4.414 10.702 14.447h5.217l-12.931-17.48L288.76.447h-5.396L269.988 15.16V.446h-4.37zM294.021 30.767h17.524l.802-3.924h-13.956V17.3h11.86v-3.746h-11.86V4.37h13.466l-.714-3.924h-17.122zM326.08 31.123c5.53 0 9.944-3.166 9.944-8.65 0-4.86-3.567-7.09-7.803-8.918-3.255-1.471-6.51-2.63-6.51-5.574 0-2.184 1.784-4.013 5.128-4.013 2.408 0 5.217.848 7.803 2.765l-.669-5.083C332.011.58 329.291 0 327.017 0c-5.975 0-9.72 3.389-9.72 8.204 0 4.727 3.478 6.823 8.249 8.918 3.389 1.516 6.108 2.676 6.108 5.618 0 2.676-2.184 4.415-5.395 4.415-3.166 0-7.223-1.516-9.899-4.192l.67 5.307c2.853 2.05 5.93 2.853 9.05 2.853Z"/></g><path d="M141.423 17.771c.718 0 1.3-.582 1.3-1.3V2.597h18.283v27.668a1.3 1.3 0 0 0 2.597 0V1.3c0-.717-.583-1.3-1.3-1.3h-20.88c-.717 0-1.3.583-1.3 1.3v15.17c0 .719.583 1.301 1.3 1.301Zm11.738-6.033c0-.714-.578-1.296-1.296-1.296a1.3 1.3 0 0 0-1.3 1.296V40.6c0 .718.582 1.3 1.3 1.3h39.989a1.3 1.3 0 0 0 1.296-1.3c0-.718-.583-1.296-1.296-1.296H153.16V11.738Zm50.43-5.219c0-.718-.582-1.296-1.3-1.296h-10.437c-.718 0-1.3.578-1.3 1.296v28.863c0 .726.595 1.313 1.32 1.296.719-.012 1.276-.624 1.276-1.338V7.82h7.845v31.818a1.297 1.297 0 0 0 2.597 0V6.52Zm0 39.617a1.297 1.297 0 0 0-2.596 0v33.972a1.297 1.297 0 0 0 2.597 0V46.136Zm-74.885-9.458h12.717c.718 0 1.3-.578 1.3-1.296v-13.71c0-.717-.582-1.296-1.3-1.296-.717 0-1.3.579-1.3 1.297v12.409h-11.417a1.297 1.297 0 1 0 0 2.597Zm16.64 29.847c0 .718.578 1.297 1.296 1.297.718 0 1.3-.579 1.3-1.297V56.261c0-.718-.582-1.296-1.3-1.296h-27.081V36.678h3.922a1.297 1.297 0 1 0 0-2.596h-5.218c-.718 0-1.3.582-1.3 1.3v20.88c0 .717.582 1.3 1.3 1.3h27.08v8.963Zm36.087-11.56h-24.35c-.717 0-1.296.578-1.296 1.296V84.23h-7.844V71.858a1.297 1.297 0 1 0-2.597 0V85.53c0 .717.578 1.296 1.296 1.296h10.442c.717 0 1.3-.579 1.3-1.296V57.562h23.05a1.3 1.3 0 0 0 1.295-1.3c0-.719-.582-1.297-1.296-1.297ZM207.513 0h-20.882c-.718 0-1.296.583-1.296 1.3v18.388a1.297 1.297 0 1 0 2.596 0V2.597h18.282V26.44c0 .717.583 1.296 1.3 1.296.719 0 1.297-.579 1.297-1.296V1.3c0-.717-.578-1.3-1.296-1.3Zm-45.168 79.01c-.718 0-1.3.579-1.3 1.297v9.14h-18.321V61.464a1.301 1.301 0 0 0-2.601 0v29.285c0 .718.583 1.3 1.3 1.3h20.922c.717 0 1.296-.582 1.296-1.3V80.307c0-.718-.579-1.297-1.296-1.297Zm33.427 1.098c0 .718.583 1.296 1.3 1.296.718 0 1.3-.578 1.3-1.296V68.282a1.301 1.301 0 0 0-2.6 0v11.826Zm-33.47-3.703a1.3 1.3 0 0 0 1.3-1.296V61.463c0-.718-.582-1.3-1.3-1.3a1.3 1.3 0 0 0-1.296 1.3v13.646a1.3 1.3 0 0 0 1.296 1.296Zm45.212-46.064a1.3 1.3 0 0 0-1.3 1.296V89.25H187.93V56.261c0-.718-.582-1.296-1.3-1.296-.718 0-1.296.578-1.296 1.296V90.55c0 .713.578 1.296 1.296 1.296h20.883c.718 0 1.296-.583 1.296-1.296V31.637c0-.713-.578-1.296-1.296-1.296Zm-49.13-23.822c0-.718-.583-1.296-1.3-1.296h-10.442c-.718 0-1.296.578-1.296 1.296v32.786h-21.863c-.718 0-1.296.578-1.296 1.296v10.441c0 .718.578 1.3 1.296 1.3h9.927a1.301 1.301 0 0 0 0-2.6h-8.626v-7.84h21.858c.718 0 1.3-.583 1.3-1.301V7.82h7.845v3.918a1.297 1.297 0 1 0 2.597 0V6.519Zm-1.3 43.223c-.718 0-1.297.583-1.297 1.3 0 .718.579 1.3 1.297 1.3h8.225c.717 0 1.296-.582 1.296-1.3 0-.717-.579-1.3-1.296-1.3h-8.225Zm-5.219 0h-13.123a1.301 1.301 0 0 0 0 2.6h11.823v27.965a1.297 1.297 0 1 0 2.597 0V51.042c0-.717-.58-1.3-1.297-1.3Zm9.18-14.36c0 .718.582 1.296 1.3 1.296h24.286c.718 0 1.3-.578 1.3-1.296V24.941c0-.718-.582-1.297-1.3-1.297-.718 0-1.296.579-1.296 1.297v9.14h-22.99c-.718 0-1.3.583-1.3 1.301Zm18.357 10.442c0-.718-.582-1.3-1.3-1.3h-49.396c-.718 0-1.3.582-1.3 1.3a1.3 1.3 0 0 0 1.3 1.296h49.396a1.3 1.3 0 0 0 1.3-1.296Zm16.37 17.24c0 .717.583 1.295 1.3 1.295.718 0 1.3-.578 1.3-1.296v-41.39c0-.718-.582-1.297-1.3-1.297-.717 0-1.3.579-1.3 1.297v41.39Zm1.3-45.293c.718 0 1.3-.582 1.3-1.3v-4.733a1.3 1.3 0 0 0-2.6 0v4.733c0 .718.583 1.3 1.3 1.3Zm-5.218 68.856h10.437a1.297 1.297 0 1 0 0-2.597h-9.141v-9.639a1.3 1.3 0 0 0-1.296-1.3c-.718 0-1.3.583-1.3 1.3v10.936c0 .718.582 1.3 1.3 1.3Zm.169-39.507a1.297 1.297 0 0 0 0-2.597h-8.72c-.717 0-1.3.583-1.3 1.3a1.3 1.3 0 0 0 1.3 1.297h8.72Zm-34.94-31.477c-.717 0-1.296.579-1.296 1.297v18.442c0 .718.579 1.296 1.297 1.296.717 0 1.3-.578 1.3-1.296V16.94c0-.718-.583-1.297-1.3-1.297Zm13.474 36.7h19.996V69.19c0 .717.583 1.3 1.3 1.3a1.3 1.3 0 0 0 1.297-1.3V51.042a1.3 1.3 0 0 0-1.296-1.3h-21.297c-.718 0-1.296.583-1.296 1.3 0 .718.578 1.3 1.296 1.3Z" id="Fill-2" fill="#000"/></g></g></g></svg>