<?xml version="1.0" encoding="UTF-8"?>
<svg width="337px" height="138px" viewBox="0 0 337 138" version="1.1" xmlns="http://www.w3.org/2000/svg" xmlns:xlink="http://www.w3.org/1999/xlink">
    <title>Logo / Stacked / Black White</title>
    <g id="Case-studies" stroke="none" stroke-width="1" fill="none" fill-rule="evenodd">
        <g id="Annotation-Copy" transform="translate(-2429.000000, -4908.000000)">
            <g id="Logo-/-Stacked-/-Black-White" transform="translate(2429.436373, 4908.000000)">
                <g id="Group" transform="translate(0.000000, 106.443469)" fill="#FFFFFF" fill-rule="nonzero">
                    <polygon id="Path" points="9.7650348 30.766548 14.1347764 30.766548 14.1347764 4.3697416 23.8998112 4.3697416 23.8998112 0.445892 0 0.445892 0 4.3697416 9.7650348 4.3697416"></polygon>
                    <path d="M19.0841776,30.766548 L23.632276,30.766548 L26.976466,22.740492 L39.5060312,22.740492 L42.8502212,30.766548 L47.4429088,30.766548 L34.1553272,0.222946 L32.32717,0.222946 L19.0841776,30.766548 Z M28.537088,18.9949992 L33.218954,7.7139316 L33.3081324,7.7139316 L37.9899984,18.9949992 L28.537088,18.9949992 Z" id="Shape"></path>
                    <polygon id="Path" points="53.4624508 30.766548 57.8321924 30.766548 57.8321924 18.6382856 68.8011356 0.445892 64.0300912 0.445892 55.7365 14.4023116 47.5320872 0.445892 42.4935076 0.445892 53.4624508 18.5936964"></polygon>
                    <polygon id="Path" points="73.4384124 30.766548 89.5797028 30.766548 90.3377192 26.8426984 77.808154 26.8426984 77.808154 0.445892 73.4384124 0.445892"></polygon>
                    <path d="M105.498047,31.21244 C114.103763,31.21244 120.836732,24.6132384 120.836732,15.6508092 C120.836732,6.68838 114.103763,0 105.498047,0 C96.9369208,0 90.2039516,6.68838 90.2039516,15.6508092 C90.2039516,24.6132384 96.9369208,31.21244 105.498047,31.21244 Z M94.7074608,15.6508092 C94.7074608,8.2935912 99.9689864,4.013028 105.498047,4.013028 C111.116286,4.013028 116.288634,8.2935912 116.288634,15.6508092 C116.288634,22.9188488 111.116286,27.199412 105.498047,27.199412 C99.9689864,27.199412 94.7074608,22.9188488 94.7074608,15.6508092 Z" id="Shape"></path>
                    <path d="M127.123809,30.766548 L131.493551,30.766548 L131.493551,18.95041 L135.99706,18.95041 L136.353774,18.95041 L145.048668,30.766548 L150.354782,30.766548 L140.723515,18.058626 C144.246062,16.6317716 146.5647,13.599706 146.5647,9.5420888 C146.5647,4.45892 142.908386,0.445892 136.220006,0.445892 L127.123809,0.445892 L127.123809,30.766548 Z M131.493551,15.160328 L131.493551,4.3697416 L135.99706,4.3697416 C139.564196,4.3697416 142.061191,6.242488 142.061191,9.809624 C142.061191,13.2429924 139.653374,15.160328 135.863292,15.160328 L131.493551,15.160328 Z" id="Shape"></path>
                    <polygon id="Path" points="184.331753 30.766548 188.701494 30.766548 188.701494 0.445892 184.331753 0.445892 184.331753 13.6888844 168.368819 13.6888844 168.368819 0.445892 163.999078 0.445892 163.999078 30.766548 168.368819 30.766548 168.368819 17.612734 184.331753 17.612734"></polygon>
                    <path d="M193.071236,30.766548 L197.619334,30.766548 L200.963524,22.740492 L213.49309,22.740492 L216.83728,30.766548 L221.429967,30.766548 L208.142386,0.222946 L206.314228,0.222946 L193.071236,30.766548 Z M202.524146,18.9949992 L207.206012,7.7139316 L207.295191,7.7139316 L211.977057,18.9949992 L202.524146,18.9949992 Z" id="Shape"></path>
                    <polygon id="Path" points="229.768148 30.989494 231.417948 30.989494 239.979074 9.1853752 248.540201 30.989494 250.145412 30.989494 261.025177 0.445892 256.566257 0.445892 249.387396 22.0270648 249.209039 22.0270648 240.826269 0.3121244 239.310236 0.3121244 230.927467 22.0270648 230.793699 22.0270648 223.391892 0.445892 218.843794 0.445892"></polygon>
                    <polygon id="Path" points="265.617864 30.766548 269.987606 30.766548 269.987606 20.733978 274.045223 16.3196472 284.746631 30.766548 289.963568 30.766548 277.0327 13.2875816 288.759659 0.445892 283.364366 0.445892 269.987606 15.160328 269.987606 0.445892 265.617864 0.445892"></polygon>
                    <polygon id="Path" points="294.021185 30.766548 311.54474 30.766548 312.347346 26.8426984 298.390926 26.8426984 298.390926 17.3006096 310.251654 17.3006096 310.251654 13.5551168 298.390926 13.5551168 298.390926 4.3697416 311.856865 4.3697416 311.143438 0.445892 294.021185 0.445892"></polygon>
                    <path d="M326.08082,31.1232616 C331.60988,31.1232616 336.024211,27.9574284 336.024211,22.4729568 C336.024211,17.612734 332.457075,15.383274 328.221101,13.5551168 C324.96609,12.0836732 321.711078,10.924354 321.711078,7.9814668 C321.711078,5.796596 323.494646,3.9684388 326.838836,3.9684388 C329.246653,3.9684388 332.055772,4.8156336 334.641946,6.7329692 L333.973108,1.6498004 C332.011183,0.5796596 329.291242,1.20002773e-13 327.017193,1.20002773e-13 C321.04224,1.20002773e-13 317.296747,3.3887792 317.296747,8.2044128 C317.296747,12.930868 320.774705,15.0265604 325.545749,17.1222528 C328.934528,18.6382856 331.65447,19.7976048 331.65447,22.740492 C331.65447,25.415844 329.469599,27.1548228 326.259176,27.1548228 C323.093343,27.1548228 319.035726,25.63879 316.360374,22.963438 L317.029212,28.2695528 C319.882921,30.320656 322.959576,31.1232616 326.08082,31.1232616 Z" id="Path"></path>
                </g>
                <path d="M141.423449,17.7713333 C142.141227,17.7713333 142.723893,17.1886667 142.723893,16.4708889 L142.723893,2.59666667 L161.006116,2.59666667 L161.006116,30.2648889 C161.006116,30.9784444 161.588782,31.5611111 162.302338,31.5611111 C163.020116,31.5611111 163.602782,30.9784444 163.602782,30.2648889 L163.602782,1.30044444 C163.602782,0.582666667 163.020116,0 162.302338,0 L141.423449,0 C140.705671,0 140.123005,0.582666667 140.123005,1.30044444 L140.123005,16.4708889 C140.123005,17.1886667 140.705671,17.7713333 141.423449,17.7713333 L141.423449,17.7713333 Z M153.161227,11.7377778 C153.161227,11.0242222 152.582782,10.4415556 151.865005,10.4415556 C151.147227,10.4415556 150.56456,11.0242222 150.56456,11.7377778 L150.56456,40.6008889 C150.56456,41.3186667 151.147227,41.9013333 151.865005,41.9013333 L191.853671,41.9013333 C192.567227,41.9013333 193.149893,41.3186667 193.149893,40.6008889 C193.149893,39.8831111 192.567227,39.3046667 191.853671,39.3046667 L153.161227,39.3046667 L153.161227,11.7377778 Z M203.591449,6.51911111 C203.591449,5.80133333 203.008782,5.22288889 202.291005,5.22288889 L191.853671,5.22288889 C191.135893,5.22288889 190.553227,5.80133333 190.553227,6.51911111 L190.553227,35.3822222 C190.553227,36.1084444 191.14856,36.6953333 191.874782,36.6784444 C192.59256,36.6657778 193.149893,36.0535556 193.149893,35.34 L193.149893,7.81955556 L200.994782,7.81955556 L200.994782,39.6382222 C200.994782,40.356 201.577449,40.9344444 202.291005,40.9344444 C203.008782,40.9344444 203.591449,40.356 203.591449,39.6382222 L203.591449,6.51911111 Z M203.591449,46.1362222 C203.591449,45.4184444 203.008782,44.84 202.291005,44.84 C201.577449,44.84 200.994782,45.4184444 200.994782,46.1362222 L200.994782,80.1082222 C200.994782,80.826 201.577449,81.4044444 202.291005,81.4044444 C203.008782,81.4044444 203.591449,80.826 203.591449,80.1082222 L203.591449,46.1362222 Z M128.706116,36.6784444 L141.423449,36.6784444 C142.141227,36.6784444 142.723893,36.1 142.723893,35.3822222 L142.723893,21.6726667 C142.723893,20.9548889 142.141227,20.3764444 141.423449,20.3764444 C140.705671,20.3764444 140.123005,20.9548889 140.123005,21.6726667 L140.123005,34.0817778 L128.706116,34.0817778 C127.988338,34.0817778 127.405671,34.6644444 127.405671,35.3822222 C127.405671,36.1 127.988338,36.6784444 128.706116,36.6784444 L128.706116,36.6784444 Z M145.345893,66.5253333 C145.345893,67.2431111 145.924338,67.8215556 146.642116,67.8215556 C147.359893,67.8215556 147.94256,67.2431111 147.94256,66.5253333 L147.94256,56.2611111 C147.94256,55.5433333 147.359893,54.9648889 146.642116,54.9648889 L119.560782,54.9648889 L119.560782,36.6784444 L123.483227,36.6784444 C124.201005,36.6784444 124.783671,36.1 124.783671,35.3822222 C124.783671,34.6644444 124.201005,34.0817778 123.483227,34.0817778 L118.26456,34.0817778 C117.546782,34.0817778 116.964116,34.6644444 116.964116,35.3822222 L116.964116,56.2611111 C116.964116,56.9788889 117.546782,57.5615556 118.26456,57.5615556 L145.345893,57.5615556 L145.345893,66.5253333 Z M181.433227,54.9648889 L157.083671,54.9648889 C156.365893,54.9648889 155.787449,55.5433333 155.787449,56.2611111 L155.787449,84.2291111 L147.94256,84.2291111 L147.94256,71.858 C147.94256,71.1402222 147.359893,70.5575556 146.642116,70.5575556 C145.924338,70.5575556 145.345893,71.1402222 145.345893,71.858 L145.345893,85.5295556 C145.345893,86.2473333 145.924338,86.8257778 146.642116,86.8257778 L157.083671,86.8257778 C157.801449,86.8257778 158.384116,86.2473333 158.384116,85.5295556 L158.384116,57.5615556 L181.433227,57.5615556 C182.146782,57.5615556 182.729449,56.9788889 182.729449,56.2611111 C182.729449,55.5433333 182.146782,54.9648889 181.433227,54.9648889 L181.433227,54.9648889 Z M207.513893,0 L186.630782,0 C185.913005,0 185.33456,0.582666667 185.33456,1.30044444 L185.33456,19.6882222 C185.33456,20.406 185.913005,20.9886667 186.630782,20.9886667 C187.34856,20.9886667 187.931227,20.406 187.931227,19.6882222 L187.931227,2.59666667 L206.213449,2.59666667 L206.213449,26.4395556 C206.213449,27.1573333 206.796116,27.7357778 207.513893,27.7357778 C208.231671,27.7357778 208.810116,27.1573333 208.810116,26.4395556 L208.810116,1.30044444 C208.810116,0.582666667 208.231671,0 207.513893,0 L207.513893,0 Z M162.34456,79.0104444 C161.626782,79.0104444 161.044116,79.5888889 161.044116,80.3066667 L161.044116,89.4477778 L142.723893,89.4477778 L142.723893,61.4628889 C142.723893,60.7451111 142.141227,60.1624444 141.423449,60.1624444 C140.705671,60.1624444 140.123005,60.7451111 140.123005,61.4628889 L140.123005,90.7482222 C140.123005,91.466 140.705671,92.0486667 141.423449,92.0486667 L162.34456,92.0486667 C163.062338,92.0486667 163.640782,91.466 163.640782,90.7482222 L163.640782,80.3066667 C163.640782,79.5888889 163.062338,79.0104444 162.34456,79.0104444 L162.34456,79.0104444 Z M195.771893,80.1082222 C195.771893,80.826 196.35456,81.4044444 197.072338,81.4044444 C197.790116,81.4044444 198.372782,80.826 198.372782,80.1082222 L198.372782,68.2817778 C198.372782,67.564 197.790116,66.9813333 197.072338,66.9813333 C196.35456,66.9813333 195.771893,67.564 195.771893,68.2817778 L195.771893,80.1082222 Z M162.302338,76.4053333 C163.020116,76.4053333 163.602782,75.8226667 163.602782,75.1091111 L163.602782,61.4628889 C163.602782,60.7451111 163.020116,60.1624444 162.302338,60.1624444 C161.588782,60.1624444 161.006116,60.7451111 161.006116,61.4628889 L161.006116,75.1091111 C161.006116,75.8226667 161.588782,76.4053333 162.302338,76.4053333 L162.302338,76.4053333 Z M207.513893,30.3408889 C206.796116,30.3408889 206.213449,30.9235556 206.213449,31.6371111 L206.213449,89.2493333 L187.931227,89.2493333 L187.931227,56.2611111 C187.931227,55.5433333 187.34856,54.9648889 186.630782,54.9648889 C185.913005,54.9648889 185.33456,55.5433333 185.33456,56.2611111 L185.33456,90.5497778 C185.33456,91.2633333 185.913005,91.846 186.630782,91.846 L207.513893,91.846 C208.231671,91.846 208.810116,91.2633333 208.810116,90.5497778 L208.810116,31.6371111 C208.810116,30.9235556 208.231671,30.3408889 207.513893,30.3408889 L207.513893,30.3408889 Z M158.384116,6.51911111 C158.384116,5.80133333 157.801449,5.22288889 157.083671,5.22288889 L146.642116,5.22288889 C145.924338,5.22288889 145.345893,5.80133333 145.345893,6.51911111 L145.345893,39.3046667 L123.483227,39.3046667 C122.765449,39.3046667 122.187005,39.8831111 122.187005,40.6008889 L122.187005,51.0424444 C122.187005,51.7602222 122.765449,52.3428889 123.483227,52.3428889 L133.409671,52.3428889 C134.127449,52.3428889 134.710116,51.7602222 134.710116,51.0424444 C134.710116,50.3246667 134.127449,49.742 133.409671,49.742 L124.783671,49.742 L124.783671,41.9013333 L146.642116,41.9013333 C147.359893,41.9013333 147.94256,41.3186667 147.94256,40.6008889 L147.94256,7.81955556 L155.787449,7.81955556 L155.787449,11.7377778 C155.787449,12.4555556 156.365893,13.0382222 157.083671,13.0382222 C157.801449,13.0382222 158.384116,12.4555556 158.384116,11.7377778 L158.384116,6.51911111 Z M157.083671,49.742 C156.365893,49.742 155.787449,50.3246667 155.787449,51.0424444 C155.787449,51.7602222 156.365893,52.3428889 157.083671,52.3428889 L165.30856,52.3428889 C166.026338,52.3428889 166.604782,51.7602222 166.604782,51.0424444 C166.604782,50.3246667 166.026338,49.742 165.30856,49.742 L157.083671,49.742 Z M151.865005,49.742 L138.742338,49.742 C138.02456,49.742 137.441893,50.3246667 137.441893,51.0424444 C137.441893,51.7602222 138.02456,52.3428889 138.742338,52.3428889 L150.56456,52.3428889 L150.56456,80.3066667 C150.56456,81.0244444 151.147227,81.6071111 151.865005,81.6071111 C152.582782,81.6071111 153.161227,81.0244444 153.161227,80.3066667 L153.161227,51.0424444 C153.161227,50.3246667 152.582782,49.742 151.865005,49.742 L151.865005,49.742 Z M161.044116,35.3822222 C161.044116,36.1 161.626782,36.6784444 162.34456,36.6784444 L186.630782,36.6784444 C187.34856,36.6784444 187.931227,36.1 187.931227,35.3822222 L187.931227,24.9406667 C187.931227,24.2228889 187.34856,23.6444444 186.630782,23.6444444 C185.913005,23.6444444 185.33456,24.2228889 185.33456,24.9406667 L185.33456,34.0817778 L162.34456,34.0817778 C161.626782,34.0817778 161.044116,34.6644444 161.044116,35.3822222 L161.044116,35.3822222 Z M179.402338,45.8237778 C179.402338,45.106 178.819671,44.5233333 178.101893,44.5233333 L128.706116,44.5233333 C127.988338,44.5233333 127.405671,45.106 127.405671,45.8237778 C127.405671,46.5373333 127.988338,47.12 128.706116,47.12 L178.101893,47.12 C178.819671,47.12 179.402338,46.5373333 179.402338,45.8237778 L179.402338,45.8237778 Z M195.771893,63.0631111 C195.771893,63.7808889 196.35456,64.3593333 197.072338,64.3593333 C197.790116,64.3593333 198.372782,63.7808889 198.372782,63.0631111 L198.372782,21.6726667 C198.372782,20.9548889 197.790116,20.3764444 197.072338,20.3764444 C196.35456,20.3764444 195.771893,20.9548889 195.771893,21.6726667 L195.771893,63.0631111 Z M197.072338,17.7713333 C197.790116,17.7713333 198.372782,17.1886667 198.372782,16.4708889 L198.372782,11.7377778 C198.372782,11.0242222 197.790116,10.4415556 197.072338,10.4415556 C196.35456,10.4415556 195.771893,11.0242222 195.771893,11.7377778 L195.771893,16.4708889 C195.771893,17.1886667 196.35456,17.7713333 197.072338,17.7713333 L197.072338,17.7713333 Z M191.853671,86.6273333 L202.291005,86.6273333 C203.008782,86.6273333 203.591449,86.0446667 203.591449,85.3268889 C203.591449,84.6091111 203.008782,84.0306667 202.291005,84.0306667 L193.149893,84.0306667 L193.149893,74.3913333 C193.149893,73.6735556 192.567227,73.0908889 191.853671,73.0908889 C191.135893,73.0908889 190.553227,73.6735556 190.553227,74.3913333 L190.553227,85.3268889 C190.553227,86.0446667 191.135893,86.6273333 191.853671,86.6273333 L191.853671,86.6273333 Z M192.02256,47.12 C192.740338,47.12 193.318782,46.5373333 193.318782,45.8237778 C193.318782,45.106 192.740338,44.5233333 192.02256,44.5233333 L183.303671,44.5233333 C182.585893,44.5233333 182.003227,45.106 182.003227,45.8237778 C182.003227,46.5373333 182.585893,47.12 183.303671,47.12 L192.02256,47.12 Z M157.083671,15.6433333 C156.365893,15.6433333 155.787449,16.2217778 155.787449,16.9395556 L155.787449,35.3822222 C155.787449,36.1 156.365893,36.6784444 157.083671,36.6784444 C157.801449,36.6784444 158.384116,36.1 158.384116,35.3822222 L158.384116,16.9395556 C158.384116,16.2217778 157.801449,15.6433333 157.083671,15.6433333 L157.083671,15.6433333 Z M170.556782,52.3428889 L190.553227,52.3428889 L190.553227,69.1895556 C190.553227,69.9073333 191.135893,70.49 191.853671,70.49 C192.567227,70.49 193.149893,69.9073333 193.149893,69.1895556 L193.149893,51.0424444 C193.149893,50.3246667 192.567227,49.742 191.853671,49.742 L170.556782,49.742 C169.839005,49.742 169.26056,50.3246667 169.26056,51.0424444 C169.26056,51.7602222 169.839005,52.3428889 170.556782,52.3428889 L170.556782,52.3428889 Z" id="Fill-2" fill="#000000"></path>
            </g>
        </g>
    </g>
</svg>