<svg width="236" height="84" xmlns="http://www.w3.org/2000/svg" xmlns:xlink="http://www.w3.org/1999/xlink"><defs><path id="path-1" d="M0 .091h1V1.91H0z"/><path id="path-3" d="M0 .213h3v1.574H0z"/><path id="path-5" d="M0 .155h1v1.69H0z"/><path id="path-7" d="M0 .255h1v1.49H0z"/><path id="path-9" d="M.114 0h.772v2H.114z"/></defs><g id="Case-studies" stroke="none" stroke-width="1" fill="none" fill-rule="evenodd"><g id="Annotation-Copy" transform="translate(-885 -4971)"><g id="Group" transform="translate(885.211 4971.584)"><g id="People-Copy-3" fill="#FFF" fill-rule="nonzero"><path d="M.617 32.084c.046-.183.149-.263.308-.24.16.023.309.011.446-.035-.366-.365-.594-.857-.685-1.474-.092-.617-.32-1.13-.686-1.542.091-.229.171-.457.24-.686.068-.228.263-.32.583-.274-.137-1.005-.115-1.942.068-2.81.183-.869.469-1.692.857-2.469.389-.776.846-1.542 1.371-2.296.526-.754 1.04-1.52 1.543-2.297.411-.091.662-.057.754.103.091.16.251.126.48-.103.731-.502 1.234-1.062 1.508-1.68a4.923 4.923 0 0 0 .411-2.022c.412-1.188.88-2.365 1.406-3.53a21.334 21.334 0 0 1 1.816-3.257 17.028 17.028 0 0 1 2.194-2.639 8.85 8.85 0 0 1 2.537-1.748c.64-.548 1.45-1.051 2.433-1.508A15.507 15.507 0 0 1 21.355.514a17.283 17.283 0 0 1 3.462-.411c1.188-.023 2.285.103 3.29.377.229.091.366.034.412-.172.045-.205.16-.308.343-.308 2.285.274 4.33.731 6.135 1.371 1.805.64 3.348 1.531 4.628 2.674a47.489 47.489 0 0 1 2.468 4.422 25.057 25.057 0 0 1 1.816 4.935c.434 1.714.629 3.485.583 5.313-.046 1.829-.434 3.657-1.165 5.485a18.336 18.336 0 0 1-5.828 4.833 41.489 41.489 0 0 1-7.37 3.016 70.82 70.82 0 0 1-8.157 1.954c-2.811.503-5.542 1.051-8.193 1.645a56.63 56.63 0 0 1 0 3.942 28.866 28.866 0 0 1-.445 4.182 24.982 24.982 0 0 1-1.097 4.08 15.108 15.108 0 0 1-1.954 3.701 10.267 10.267 0 0 0-2.845.274c-.982.229-1.862.457-2.64.686-.365-.229-.719-.446-1.062-.651-.343-.206-.765-.332-1.268-.377.137-.549.011-1.12-.377-1.714-.389-.594-.777-1.177-1.166-1.748-.388-.572-.64-1.143-.754-1.714-.114-.572.149-1.086.789-1.543-.366-.32-.549-.822-.549-1.508a.93.93 0 0 0 .686.274c-.092-.822.011-1.805.308-2.948a47.81 47.81 0 0 0 .754-3.393c.206-1.12.24-2.148.103-3.085-.137-.937-.685-1.611-1.645-2.022Zm17.824-16.042c-.183.503-.331.948-.445 1.337-.115.388-.24.742-.377 1.062-.138.32-.286.64-.446.96-.16.32-.331.686-.514 1.097.091.274.274.48.548.617s.457.343.549.617c.64-.32 1.28-.56 1.92-.72.639-.16 1.279-.286 1.919-.377.64-.091 1.28-.206 1.92-.343a9.352 9.352 0 0 0 1.987-.685c.686-.32 1.406-.583 2.16-.789a63.369 63.369 0 0 0 2.228-.651c.731-.229 1.44-.491 2.125-.788a5.693 5.693 0 0 0 1.782-1.2c-.64-.594-1.6-1.12-2.879-1.577-1.28-.457-2.662-.743-4.147-.857a15.435 15.435 0 0 0-4.456.309 8.173 8.173 0 0 0-3.874 1.988Z" id="Shape"/><path d="M80.689 12.82c.046.32.057.56.034.72-.023.16-.046.308-.068.445a2.715 2.715 0 0 0-.035.446c0 .16.046.4.137.72-.96 1.553-2.068 2.616-3.324 3.187a16.614 16.614 0 0 1-4.08 1.234c-1.462.252-2.959.515-4.49.789-1.53.274-3.05.868-4.559 1.782-.594-.228-1.13-.228-1.61 0-.48.229-1.178.297-2.092.206a2.29 2.29 0 0 1-1.028.583c-.411.114-.823.24-1.234.377.183.41.263.834.24 1.268-.023.434.034.788.171 1.062 1.6.138 3.371.115 5.313-.068a82.58 82.58 0 0 1 5.725-.343c.045.229.023.377-.069.446-.091.068-.114.194-.068.377.32.228.64.514.96.857.32.342.64.674.96.994.319.32.65.582.993.788.343.206.743.286 1.2.24.183.366.308.766.377 1.2.068.434.011.88-.171 1.337-.732.502-1.463 1.016-2.194 1.542a18.16 18.16 0 0 1-2.297 1.405c-.8.412-1.645.743-2.536.994-.892.252-1.886.355-2.982.309h-.515c-.114 0-.262-.069-.445-.206-.366.229-.88.297-1.543.206-.662-.091-1.177-.023-1.542.206-.503-.229-1.109-.332-1.817-.309-.708.023-1.337-.057-1.885-.24a23.724 23.724 0 0 0-1.988 3.085 27.067 27.067 0 0 0-1.577 3.496c1.554.229 2.845.32 3.873.275 1.029-.046 2-.126 2.914-.24.914-.115 1.85-.229 2.81-.343.96-.114 2.172-.149 3.634-.103.914-.503 2-.834 3.256-.994 1.257-.16 2.411-.423 3.462-.788.366.137.686.377.96.72.274.342.537.662.789.96.25.296.514.56.788.788.274.228.617.32 1.028.274.183.183.309.4.377.651.069.252.126.491.172.72.045.229.125.423.24.583.114.16.308.217.582.171-.685 1.508-1.474 2.662-2.365 3.462a9.175 9.175 0 0 1-3.05 1.817c-1.143.411-2.411.731-3.805.96a193.32 193.32 0 0 0-4.628.822c-.411.092-.754.08-1.028-.034a2.482 2.482 0 0 0-.96-.171c-1.051.228-2.308.434-3.77.617a28.833 28.833 0 0 1-4.456.205 20.297 20.297 0 0 1-4.32-.582c-1.37-.343-2.49-.949-3.358-1.817a2.242 2.242 0 0 1-.72-1.131c-.115-.435-.423-.766-.926-.994a18.65 18.65 0 0 0-.274-1.988c-.137-.732-.274-1.497-.411-2.297-.137-.8-.24-1.588-.309-2.365-.068-.777-.034-1.486.103-2.125a4.3 4.3 0 0 1 .857-1.851c.434-.549.583-1.143.446-1.783.228-.045.365-.171.41-.377.047-.205.23-.285.55-.24.274-.822.57-1.6.89-2.33.32-.732.652-1.44.995-2.126.342-.685.685-1.382 1.028-2.09.343-.71.674-1.498.994-2.366-.64-.594-1.108-1.245-1.405-1.954a10.794 10.794 0 0 1-.652-2.125 31.48 31.48 0 0 1-.342-2.194 14.185 14.185 0 0 0-.48-2.296 5.88 5.88 0 0 1 1.68-1.68 9.99 9.99 0 0 1 2.159-1.062 18.562 18.562 0 0 1 2.536-.686c.914-.183 1.874-.388 2.88-.617 1.828-.594 3.462-1.051 4.901-1.371 1.44-.32 2.857-.583 4.25-.788 1.395-.206 2.846-.4 4.354-.583a77.942 77.942 0 0 0 5.141-.823c.412.412.8.617 1.166.617.183-.411.4-.537.651-.377.251.16.354.034.309-.377a6.521 6.521 0 0 0 1.748 1.954c.708.525 1.497.971 2.365 1.337Z" id="Path"/><path d="M119.01 30.85c-.045.548 0 1.074.138 1.576.137.503.309.994.514 1.474.206.48.4.971.583 1.474.183.503.32 1.006.411 1.508.092.64.092 1.337 0 2.091a11.723 11.723 0 0 1-.48 2.194 8.228 8.228 0 0 1-.89 1.92c-.366.57-.8.994-1.303 1.268a6.742 6.742 0 0 1-2.331 1.92 13.407 13.407 0 0 0-2.537 1.645 5.203 5.203 0 0 1-1.68.685c-.616.137-1.245.274-1.885.412-.502.274-1.096.56-1.782.857a29.29 29.29 0 0 1-2.125.822c-.731.252-1.463.434-2.194.549-.731.114-1.371.148-1.92.102a18.042 18.042 0 0 1-4.01.995c-1.302.16-2.822.057-4.559-.309-1.645.229-3.165.16-4.559-.206-1.394-.365-2.628-.948-3.702-1.748-1.074-.8-2.01-1.76-2.81-2.88a17.274 17.274 0 0 1-1.954-3.53c-.366-2.605-.274-4.97.274-7.095a23.93 23.93 0 0 1 2.365-5.896 31.268 31.268 0 0 1 3.53-5.004 466.64 466.64 0 0 0 3.84-4.49c.274.09.491.08.651-.035a1.82 1.82 0 0 0 .446-.48c.137-.205.285-.4.445-.582.16-.183.354-.298.583-.343.32-.686.788-1.2 1.405-1.543a3.807 3.807 0 0 0 1.474-1.474c.412-.091.754-.228 1.029-.411a6.68 6.68 0 0 0 .788-.617c.251-.228.514-.446.788-.651.275-.206.594-.354.96-.446v-.754c.823-.366 1.428-.788 1.817-1.268.388-.48.857-1.063 1.405-1.748a9.43 9.43 0 0 1 .994-.069c.252 0 .629-.046 1.131-.137.366-.64.697-1.12.994-1.44.297-.32.743-.662 1.337-1.028a5.806 5.806 0 0 0 1.817.548c.663.092 1.245.389 1.748.892.046.457.183.81.411 1.062.229.252.48.48.754.686.275.205.537.423.789.651.251.229.423.549.514.96.183.046.309.023.377-.069.069-.091.194-.114.377-.068.137.64.297 1.062.48 1.268.183.206.366.606.548 1.2-.228.457-.4.925-.514 1.405-.114.48-.4.834-.857 1.063-.045.32.046.491.275.514.228.023.365.148.41.377.047.411-.022.708-.205.891a45.598 45.598 0 0 1 2.948 5.656 45.598 45.598 0 0 0 2.948 5.656Zm-8.568 6.512c.182-.502.422-.914.72-1.234.296-.32.468-.8.514-1.44-.229-.365-.366-.65-.412-.856-.045-.206-.068-.537-.068-.994a27.082 27.082 0 0 1-2.605-4.56 34.673 34.673 0 0 0-2.468-4.558c-.092.183-.252.366-.48.548-.229.183-.48.137-.754-.137-.092.366-.252.629-.48.789-.229.16-.48.228-.754.205a3.11 3.11 0 0 1-.857-.205 2.943 2.943 0 0 1-.789-.446 233.802 233.802 0 0 1-3.976 3.085 19.846 19.846 0 0 0-3.565 3.496c-.182.092-.297.126-.342.103-.046-.023-.183.012-.412.103a11.325 11.325 0 0 1-1.337 2.365 73.649 73.649 0 0 0-1.542 2.16 14.497 14.497 0 0 0-1.303 2.33c-.365.823-.57 1.783-.617 2.88.777.64 1.691 1.028 2.743 1.165a15.42 15.42 0 0 0 3.256.069c1.12-.092 2.217-.24 3.29-.446a15.93 15.93 0 0 1 2.983-.308c1.92-.457 3.565-1.063 4.936-1.817a180.4 180.4 0 0 1 4.319-2.297ZM149.038 8.912c1.92.229 3.633.617 5.141 1.166 1.509.548 2.788 1.28 3.84 2.193a40.286 40.286 0 0 1 2.09 3.702 19.175 19.175 0 0 1 1.509 4.148c.342 1.44.502 2.913.48 4.422-.023 1.508-.355 3.039-.994 4.593a15.816 15.816 0 0 1-4.834 4.01 31.097 31.097 0 0 1-6.135 2.502 76.284 76.284 0 0 1-6.821 1.646c-2.354.457-4.65.914-6.89 1.37.046 1.052.057 2.16.034 3.326a22.645 22.645 0 0 1-.343 3.496 19.093 19.093 0 0 1-.925 3.393 12.049 12.049 0 0 1-1.645 3.017c-.777 0-1.577.103-2.4.308-.823.206-1.554.377-2.194.515a21.18 21.18 0 0 1-.857-.515c-.25-.16-.605-.262-1.062-.308.091-.457-.023-.926-.343-1.405-.32-.48-.64-.972-.96-1.474-.32-.503-.537-.983-.651-1.44-.114-.457.103-.891.651-1.303-.32-.32-.48-.73-.48-1.234.32-.548.606-1.302.857-2.262.252-.96.457-1.908.617-2.845.16-.937.195-1.794.103-2.57-.091-.778-.548-1.349-1.37-1.715.045-.091.136-.137.273-.137s.275-.023.412-.068c-.366-.274-.583-.663-.652-1.166a2.748 2.748 0 0 0-.514-1.302c.092-.229.16-.434.206-.617.046-.183.206-.252.48-.206-.137-.823-.126-1.6.034-2.33.16-.732.4-1.429.72-2.092.32-.662.708-1.314 1.165-1.953.457-.64.891-1.28 1.303-1.92.32-.046.514 0 .583.137.068.137.217.114.445-.068.594-.457 1.006-.937 1.234-1.44.229-.503.343-1.074.343-1.714.32-.96.708-1.93 1.165-2.914.457-.982.96-1.885 1.509-2.707a13.252 13.252 0 0 1 1.816-2.194c.663-.64 1.36-1.12 2.091-1.44.549-.457 1.234-.88 2.057-1.268a12.249 12.249 0 0 1 2.673-.891c.96-.206 1.931-.32 2.914-.343.983-.023 1.885.08 2.708.308.228.092.354.046.377-.137.023-.182.103-.274.24-.274Zm-2.81 16.385a20.283 20.283 0 0 1 3.667-1.2c1.302-.297 2.388-.857 3.256-1.68-.548-.502-1.348-.948-2.4-1.336a12.51 12.51 0 0 0-3.427-.72 12.23 12.23 0 0 0-3.736.308c-1.257.297-2.342.857-3.257 1.68a51.611 51.611 0 0 1-.685 1.954 26.95 26.95 0 0 1-.754 1.748c.091.228.24.4.445.514a.987.987 0 0 1 .446.514c1.051-.548 2.114-.857 3.188-.925 1.074-.069 2.16-.355 3.256-.857Z" id="Shape"/><path d="M178.105 50.662c-1.28.411-2.674.823-4.182 1.234a17.13 17.13 0 0 1-4.524.617c-2.286 0-4.09-.571-5.416-1.714-.229-.503-.434-.845-.617-1.028a5.087 5.087 0 0 1-.377-.583c-.114-.206-.194-.491-.24-.857a7.428 7.428 0 0 1-1.303-2.228 11.452 11.452 0 0 1-.651-2.605 13.375 13.375 0 0 1-.069-2.708 13.48 13.48 0 0 1 .446-2.605c.091-.183.149-.366.171-.548.023-.183.058-.389.103-.617.183-.732.377-1.44.583-2.126.206-.685.491-1.28.857-1.782-.183-.411-.183-.868 0-1.371a9.52 9.52 0 0 1 .617-1.371 550 550 0 0 0 1.611-4.422c.434-1.211.88-2.41 1.337-3.6a198.62 198.62 0 0 0 2.194-6.1 69.642 69.642 0 0 0 1.85-6.513c.366-.229.64-.389.823-.48.274-.092.503-.16.686-.206a25.56 25.56 0 0 0 2.879 1.2c1.097.388 2.01.583 2.742.583.366.228.594.4.686.514.091.114.183.217.274.308.503.594.937 1.2 1.302 1.817.366.617.48 1.428.343 2.434-.274.411-.48.617-.617.617a19.207 19.207 0 0 1-.72 2.33c-.25.64-.514 1.28-.788 1.92-.32.686-.617 1.371-.891 2.057-.274.685-.503 1.53-.686 2.536a2.355 2.355 0 0 0-.377.617c-.068.183-.148.389-.24.617-.091.229-.194.469-.308.72a1.761 1.761 0 0 1-.514.651c-.137 1.189-.355 2.148-.652 2.88a89.753 89.753 0 0 1-.925 2.193 55.968 55.968 0 0 0-1.474 3.977c-.434 1.325-.697 2.833-.788 4.524.228-.091.445-.137.65-.137h.584c.41 0 .89.069 1.44.206 1.37-.732 2.867-1.166 4.49-1.303a86.842 86.842 0 0 1 4.833-.274h1.92c.64 0 1.233-.046 1.782-.137.411.228.674.354.788.377.114.023.286.034.514.034.32 0 .594.023.823.069.548.502 1.074.868 1.577 1.097.502.228 1.028.434 1.576.617.503.182.994.377 1.474.582.48.206.949.492 1.406.857l.48 2.948c.32.411.457.686.41.823 0 .365-.09.64-.273.822l.137.754c-.686.138-1.154.298-1.406.48a6.053 6.053 0 0 0-.72.617 7.243 7.243 0 0 1-.788.069h-.445c-.64 0-1.417.114-2.331.343a12.06 12.06 0 0 0-3.84-.617c-.502 0-1.028.023-1.576.068l-1.645.137c-.549.092-1.109.16-1.68.206-.571.046-1.154.069-1.748.069l-1.577.41ZM235.691 12.82c.046.32.057.56.034.72-.023.16-.045.308-.068.445a2.715 2.715 0 0 0-.035.446c0 .16.046.4.138.72-.96 1.553-2.068 2.616-3.325 3.187a16.614 16.614 0 0 1-4.08 1.234c-1.462.252-2.959.515-4.49.789-1.53.274-3.05.868-4.559 1.782-.594-.228-1.13-.228-1.61 0-.48.229-1.177.297-2.092.206a2.29 2.29 0 0 1-1.028.583c-.411.114-.822.24-1.234.377.183.41.263.834.24 1.268-.023.434.034.788.172 1.062 1.6.138 3.37.115 5.313-.068a82.58 82.58 0 0 1 5.724-.343c.046.229.023.377-.069.446-.091.068-.114.194-.068.377.32.228.64.514.96.857.32.342.64.674.96.994.32.32.65.582.993.788.343.206.743.286 1.2.24.183.366.308.766.377 1.2.069.434.011.88-.171 1.337-.732.502-1.463 1.016-2.194 1.542a18.16 18.16 0 0 1-2.297 1.405c-.8.412-1.645.743-2.536.994-.891.252-1.885.355-2.982.309h-.514c-.115 0-.263-.069-.446-.206-.366.229-.88.297-1.543.206-.662-.091-1.176-.023-1.542.206-.503-.229-1.108-.332-1.817-.309-.708.023-1.337-.057-1.885-.24a23.724 23.724 0 0 0-1.988 3.085 27.067 27.067 0 0 0-1.577 3.496c1.554.229 2.845.32 3.873.275 1.029-.046 2-.126 2.914-.24.914-.115 1.851-.229 2.81-.343.96-.114 2.172-.149 3.634-.103.914-.503 2-.834 3.257-.994 1.256-.16 2.41-.423 3.462-.788.365.137.685.377.96.72.274.342.536.662.788.96.251.296.514.56.788.788.274.228.617.32 1.028.274.183.183.309.4.377.651.069.252.126.491.172.72.046.229.126.423.24.583.114.16.308.217.582.171-.685 1.508-1.473 2.662-2.365 3.462a9.175 9.175 0 0 1-3.05 1.817c-1.143.411-2.411.731-3.805.96a193.32 193.32 0 0 0-4.628.822c-.41.092-.754.08-1.028-.034a2.482 2.482 0 0 0-.96-.171c-1.05.228-2.308.434-3.77.617a28.833 28.833 0 0 1-4.456.205 20.297 20.297 0 0 1-4.32-.582c-1.37-.343-2.49-.949-3.358-1.817a2.242 2.242 0 0 1-.72-1.131c-.114-.435-.423-.766-.926-.994a18.65 18.65 0 0 0-.274-1.988c-.137-.732-.274-1.497-.411-2.297-.137-.8-.24-1.588-.309-2.365-.068-.777-.034-1.486.103-2.125a4.3 4.3 0 0 1 .857-1.851c.434-.549.583-1.143.446-1.783.228-.045.365-.171.411-.377.046-.205.229-.285.548-.24.275-.822.572-1.6.892-2.33.32-.732.65-1.44.994-2.126.342-.685.685-1.382 1.028-2.09.343-.71.674-1.498.994-2.366-.64-.594-1.108-1.245-1.405-1.954a10.794 10.794 0 0 1-.652-2.125 31.48 31.48 0 0 1-.342-2.194 14.185 14.185 0 0 0-.48-2.296 5.88 5.88 0 0 1 1.68-1.68 9.99 9.99 0 0 1 2.159-1.062 18.562 18.562 0 0 1 2.536-.686c.914-.183 1.874-.388 2.88-.617 1.828-.594 3.462-1.051 4.901-1.371 1.44-.32 2.857-.583 4.25-.788 1.395-.206 2.846-.4 4.354-.583a77.942 77.942 0 0 0 5.142-.823c.41.412.8.617 1.165.617.183-.411.4-.537.651-.377.252.16.354.034.309-.377a6.521 6.521 0 0 0 1.748 1.954c.708.525 1.497.971 2.365 1.337Z" id="Path"/></g><g id="Group-134" transform="translate(86.289 63.416)"><path d="M143.771 9.916c-.151.016-.178.158-.041.222.164.077.168.074.157-.09-.007-.085-.054-.14-.116-.132m-1.133.029a.504.504 0 0 0-.242-.003c-.172.035-.173.037-.026.085.158.053.379-.013.268-.082m-2.454-.201c-.16-.006-.264.127-.108.135.089.005.16-.022.16-.061 0-.04-.022-.072-.052-.074m-2.324-5.052c-.014-.042-.068-.066-.119-.053-.066.021-.056.06.04.145.136.125.312.12.313-.01 0-.04-.046-.058-.104-.037-.058.018-.116 0-.13-.045m-4.712-.466c-.298-.003-.541.048-.541.048s.243.058.54.071c.15-.002.284-.005.383-.008.098-.008.16-.02.16-.04 0-.036-.244-.068-.542-.07m-.664-2.7c-.09-.01-.162.005-.162.04 0 .031.024.06.054.066.03.005.11.018.18.032.07.013.145-.003.167-.038.022-.037.014-.068-.018-.071a6.803 6.803 0 0 0-.22-.03m-.532 4.807c-.147-.003-.067.148.118.222.159.06.215.05.328-.066.139-.146.276-.188.276-.085 0 .032.064.06.146.069.089.008.127-.016.096-.064-.028-.047-.014-.058.037-.026.046.029.063.087.037.127-.03.048.013.055.125.018.099-.018.239-.045.312-.06.256-.016.19-.14-.085-.162-.149-.01-.442-.034-.65-.05-.335-.027-.38-.016-.38.106 0 .11-.02.121-.1.053-.078-.064-.11-.064-.139.008-.029.068-.04.068-.043.002-.003-.05-.04-.09-.078-.092m.007-2.141c-.082-.003-.148.029-.148.066-.001.042.046.074.104.074.057.003.123-.03.148-.069.025-.04-.02-.071-.104-.071m-.096-2.647c-.052-.002-.096.048-.096.106 0 .059.043.109.096.109.053 0 .096-.048.096-.106 0-.058-.043-.109-.096-.109m.187 5.116c-.106-.03-.22-.021-.259.016-.041.04.019.079.158.1.279.048.36-.047.1-.116m-.088-6.185c-.361-.008-.51.019-.415.072.042.024.254.037.456.034.201 0 .393-.037.393-.037 0-.034-.196-.066-.434-.069m.431 8.51c-.838-.015-1.213.038-1.037.149.041.026.127.03.19.005a.258.258 0 0 1 .22.048c.06.048.146.063.199.032.066-.04.458-.056.834-.053.188.008.372.013.51.018.136.014.226.03.226.048 0 .04.04.045.09.013.167-.098 1.146-.05 1.188.058.026.07.063.077.125.027.05-.04.103-.056.12-.037.018.016.22.01.447-.016.228-.024.433-.013.453.018.02.035.069.064.11.067.04 0 .051-.032.027-.072-.026-.042-.013-.071.028-.071.04.002.092.037.117.076a.087.087 0 0 0 .116.035c.128-.074.601-.069.693.008.062.053.09.05.091-.006 0-.045.132-.074.322-.068.257.01.314.034.281.119-.047.116.083.15.154.042.024-.04.108-.069.185-.063.313.013.128-.175-.202-.204-.189-.021-.496-.05-.685-.069-.189-.024-.343-.021-.343.003 0 .026-.154.031-.342.018a220.69 220.69 0 0 1-.955-.042c-.75-.021-1.036-.03-1.73-.048-.298-.005-.942-.021-1.432-.034M131.38 4.18c-.295-.005-.325.008-.24.09.076.077.528.064.528-.016 0-.037-.13-.071-.288-.074m-.287-2.649c-.153-.002-.297.024-.32.058-.02.035.092.067.25.072.16.003.355.029.434.055.169.056.196-.068.028-.135a1.354 1.354 0 0 0-.392-.05m-.705 1.67c-.169-.01-.307 0-.307 0 0 .071.216.159.38.153.32-.01.262-.132-.073-.153m.19 5.83c-.124-.074-.654.002-.536.077a.37.37 0 0 0 .217.023l.284-.029c.12-.005.126-.018.035-.071m-.645-2.869c-.147-.002-.047.31.108.331.038.01.143.037.235.064.092.029.162.018.162-.022 0-.04-.058-.087-.126-.106-.093-.023-.082-.034.04-.04.097-.002.147-.039.12-.081-.026-.043-.142-.064-.257-.045-.115.016-.21 0-.21-.035 0-.037-.032-.066-.072-.066m.012.5c-.033 0-.06.04-.06.088 0 .188.065.27.216.27.127 0 .136-.014.048-.07-.093-.06-.09-.07.017-.07.07.002.127-.035.127-.075 0-.045-.062-.058-.144-.031-.083.023-.145.007-.145-.035s-.027-.077-.06-.077m-.144 2.284c-.173-.003-.2.037-.079.111.043.027.113.013.158-.029.059-.058.038-.08-.08-.082m-.173-7.412c-.152.005-.293.032-.312.06-.044.072.167.067.406-.01.156-.048.142-.055-.094-.05m-.108 5.176c-.093-.05-.357.12-.326.209.022.069.057.064.138-.016.06-.058.139-.087.175-.063.037.023.066.01.066-.032 0-.037-.023-.082-.053-.098m-.49 1.442c-.058 0-.107.032-.107.072 0 .037.05.071.108.071.06 0 .108-.032.108-.069 0-.042-.049-.074-.108-.074m.132-7.02c-.249.018-.452.09-.452.09 0 .071.564.127.666.066.046-.027.156-.021.247.016.091.034.183.037.203.005.02-.032.133-.048.248-.032.211.027.37-.13.224-.222-.039-.024-.07-.005-.07.042 0 .058-.095.072-.307.04a4.2 4.2 0 0 0-.759-.005m-.491 5.427c-.196-.037-.23.01-.1.14.083.082.28.048.28-.047 0-.032-.08-.072-.18-.093m-.223 2.371c-.084-.069-.103-.063-.103.03 0 .134 1.088.208 1.22.084.114-.108-.688-.201-.88-.098-.093.048-.164.045-.237-.016m-.099-7.798c-.314-.03-.373.034-.145.156a.278.278 0 0 0 .29.002c.201-.105.184-.124-.145-.158m-.252 5.443c-.18-.003-.327.021-.326.05.004.09.2.233.319.233.134.003.148-.111.021-.172-.05-.024-.017-.029.073-.01.088.015.18 0 .202-.035.022-.037-.108-.066-.289-.066m-.803-3.435c-.056 0-.102.03-.102.066 0 .106.382.053.42-.058.023-.071-.003-.087-.09-.053a.843.843 0 0 1-.228.045m-.753 5.8c-.375.022-.376.125 0 .125.158.003.288-.029.288-.069 0-.037-.13-.063-.288-.055m.265-7.775c-.16-.063-.816-.003-.714.064.048.031.114.042.144.023.03-.018.192-.01.361.022.288.052.433-.022.209-.109m-1.059 5.899c-.08 0-.144.031-.144.071 0 .04.065.071.144.071.08 0 .144-.031.144-.071 0-.04-.065-.071-.144-.071m.109-1.636c-.45-.018-.537.093-.126.162.406.066.523.055.523-.05 0-.064-.123-.101-.397-.112m-.238-.635c-.233-.08-.307-.021-.14.111.048.04.152.048.23.019.122-.043.111-.061-.09-.13m-.25-1.01c-.11-.003-.198.026-.198.065 0 .085.054.085.253 0 .127-.055.122-.06-.055-.066m-.235 2.898c-.059-.021-.108-.016-.108.016 0 .077.08.153.156.153.102 0 .066-.124-.048-.17m-.147-4.3c-.295.032-.298.112-.004.112.147 0 .25-.03.228-.066-.022-.035-.123-.056-.224-.045m-.292 4.255c-.11 0-.001.185.115.196.172.01.192-.09.03-.154l-.145-.042m-.637.286c-.06 0-.05.09.023.206.035.053.1.077.144.048.077-.048-.06-.254-.167-.254m.14-1.072c-.652-.01-1.033.085-.795.193.099.045.196.056.215.024.07-.114.646-.124.819-.013.137.087.18.087.227.013.031-.05.094-.072.14-.042.044.026.062.079.038.116-.023.037.011.066.076.066s.1-.026.077-.063c-.044-.072.512-.175.613-.111.037.02.105.018.15-.011.118-.071-.309-.236-.443-.17-.169.083-.625-.185-.465-.272.16-.087.062-.143-.293-.159-.422-.02-.47-.01-.47.098 0 .132.443.217.517.098.035-.055.051-.026.042.077-.012.153-.043.164-.449.156m-.908.542c-.037.022-.067.09-.067.154 0 .09.02.093.106.021.113-.093.079-.249-.039-.175m-.097-3.561c-.065-.024-.116-.016-.116.015 0 .082.156.138.27.098.05-.018.09-.087.09-.15-.002-.098-.014-.104-.065-.022a.157.157 0 0 1-.18.059m-.08-.191c-.054 0-.116.026-.138.06-.022.035.041.064.139.062.098 0 .16-.027.138-.061-.021-.035-.083-.064-.138-.061m.311 2.101c-.392-.018-.633.146-.452.31.136.121.37.11.42-.021.034-.085.003-.098-.147-.061-.139.037-.175.026-.134-.04.038-.06.16-.074.4-.042.22.029.362.018.393-.032.052-.082.037-.087-.48-.114m-.454 1.088c-.06-.021-.109-.016-.109.016 0 .076.08.153.156.153.102-.003.067-.127-.047-.17m-.323-.83c-.082.122-.102.41-.024.33.028-.026.06-.137.073-.243.018-.15.007-.17-.05-.087m.03 1.072c-.058 0-.104.031-.104.074 0 .037.067.068.15.068.082 0 .128-.031.103-.071-.025-.04-.09-.071-.149-.071m-.322-3.213a.071.071 0 0 0-.072.071c0 .112.144.085.19-.037.024-.058.12-.108.215-.108.096 0 .173-.035.173-.077 0-.042-.104-.063-.234-.05-.142.013-.229.058-.217.111.01.048-.015.09-.055.09m.074 3c-.08 0-.144.033-.144.072 0 .04.065.072.144.072.08-.003.144-.035.144-.074 0-.037-.065-.07-.144-.07m-.11-4c-.06 0-.109.031-.109.071 0 .04.05.072.109.072.06 0 .108-.035.108-.072 0-.04-.049-.071-.108-.071m-.162 3.564c-.048.006-.089.043-.089.085 0 .042.059.058.13.034.072-.023.288-.013.482.022.364.066.543.04.543-.077 0-.04-.064-.05-.144-.024-.08.026-.145.021-.145-.013 0-.024-.101-.04-.249-.045-.148.005-.34.013-.528.018m-.071.44c-.09 0-.162.031-.162.071 0 .09.076.087.216-.003.088-.055.077-.068-.054-.068m-.36.002c-.09 0-.163.03-.163.069 0 .09.077.09.216 0 .088-.056.077-.069-.053-.069m-.429-3.76c-.104-.024-.17-.008-.17.04 0 .087.149.166.26.14.063-.016.408.106.558.196.043.026.057.002.034-.059-.026-.063.005-.105.077-.11l.371-.022c.834-.053 1.697.019 1.622.135-.021.034.107.06.284.056.259-.006.314-.027.28-.114-.032-.085-.008-.1.106-.072.082.022.188.014.236-.016.053-.031-.016-.071-.174-.1-.145-.03-.244-.08-.22-.117.023-.037.007-.068-.034-.068-.042 0-.077.023-.077.053 0 .029-.155.066-.343.082-.327.029-.449.031-.777.018-.08-.003-.274-.005-.43-.008-.158-.002-.31-.037-.335-.08-.033-.05-.057-.047-.078.014-.031.093-.849.114-1.19.032m-.035 4.633c-.11.038-.169.202-.074.199.039 0 .091-.053.115-.114.027-.069.012-.1-.041-.085m.244-4.083c-.528-.005-.604.032-.414.193.118.101.207.117.149.024-.059-.092.178-.166.278-.084.047.037.162.05.256.023.118-.031.154-.018.119.037-.073.117.018.104.142-.018.143-.143.073-.167-.53-.175m-.81-.518c-.186-.048-.309.1-.18.214.074.066.101.066.124 0 .016-.048.104-.087.197-.087.117-.003.175-.053.191-.164.017-.106-.012-.162-.082-.162-.06 0-.108.053-.108.117 0 .082-.044.105-.141.082m-.216 5.165c-.08 0-.144.032-.144.074 0 .037.065.069.144.069.08 0 .144-.034.144-.071 0-.043-.065-.072-.144-.072m-.119 1.622c-.152.061-.113.096.102.093.144-.005.17-.021.096-.069a.252.252 0 0 0-.198-.024m-.08-4.2c-.03-.002-.064.03-.079.075-.013.042.06.076.161.074.104 0 .188-.035.188-.074-.001-.037-.05-.07-.109-.07-.06-.002-.132-.002-.161-.004m0 1.15c-.09 0-.163.033-.163.072 0 .09.076.09.216-.002.088-.056.078-.07-.054-.07m-.388-3.212c-.08 0-.082.077-.004.199.062.098.29.047.395-.09.038-.045.046-.027.022.047-.03.09-.001.127.101.125.079 0 .143-.05.143-.109 0-.066.068-.108.185-.108.102-.003.165-.032.14-.072-.036-.058-.24-.055-.398.006h-.173c-.074-.006-.166.029-.204.084-.052.074-.076.074-.104.005-.02-.047-.066-.087-.103-.087m-.08-.495c-.226 0-.431.032-.456.072-.055.087.516.082.722-.008.105-.045.03-.064-.266-.064m-.468 2.993c-.043-.042-.138-.063-.212-.047-.13.026-.13.029-.003.076.206.077.31.064.215-.029M119 3.435c-.062.063-.054.31.011.307.178-.005.255-.135.146-.241-.061-.058-.132-.09-.156-.066m.008-.823c-.177-.03-.157.077.037.198.15.096.21.106.415.08.116-.016.082-.225-.036-.223-.06 0-.109-.034-.109-.076 0-.043-.04-.05-.09-.019a.367.367 0 0 1-.217.04m.057 2.13c-.369.003-.437.114-.108.175l.433.077c.132.026.217.01.217-.037 0-.043-.05-.077-.11-.077-.058 0-.107-.03-.107-.069 0-.04-.146-.071-.325-.069m-.145.627c-.19.037-.295.133-.199.18.038 0 .446 0 .922.003.984-.024 1.129-.005 1.072.14-.079.207.086.1.182-.114.093-.211.058-.391-.048-.246-.061.088-.282.12-.523.072-.236-.045-.25-.275-.018-.291.108-.008.165.029.165.103 0 .087.02.092.087.026.108-.108.465-.116.53-.013.028.042.11.06.185.04.076-.019.137-.003.137.037 0 .037-.064.087-.143.108-.252.07-.095.138.282.127.385-.01.483-.053.405-.177-.072-.114-.256-.09-.255.032 0 .11-.086.143-.168.063-.025-.026.023-.106.109-.18.189-.164.433-.18.373-.026-.023.058-.005.106.038.106.045 0 .081-.045.081-.098 0-.066.06-.085.19-.061.14.026.18.008.155-.064-.023-.071-.171-.1-.532-.1-.277 0-.576-.04-.67-.093-.122-.066-.187-.069-.221-.013-.028.045-.195.069-.395.056a2.47 2.47 0 0 0-.61.04c-.165.036-.273.034-.29-.011-.034-.098-.227.069-.227.196 0 .124.407.13.458.005.021-.053.039-.04.042.034a.125.125 0 0 1-.12.133c-.07.002-.28.013-.47.02-.189.009-.343-.002-.343-.026s-.082-.026-.181-.008m-.303-2.662c.022.056.008.111-.033.127-.13.043.015.111.158.074.158-.042.157-.042.096-.196-.024-.06-.094-.11-.152-.11-.065.002-.093.042-.07.105m.146 2.347a.35.35 0 0 1-.164.133c-.194.066.04.127.253.069.136-.038.177-.077.12-.112-.05-.029-.07-.084-.047-.121.023-.035.01-.066-.031-.064-.04 0-.1.042-.131.095m-.214-1.542c.024.023-.012.084-.082.137-.11.088-.098.096.112.077.13-.01.235-.042.235-.071l-.002-.109c0-.032-.069-.063-.152-.066-.084-.005-.134.008-.11.032m-.03-1.43c-.163.046-.266.165-.147.173.304.018.59.002.63-.037.026-.027-.039-.048-.144-.048-.106.003-.193-.027-.193-.06 0-.038-.065-.049-.147-.027m-.026 3.307c-.101.003-.185.035-.185.075 0 .04.064.071.14.068.077 0 .161-.031.186-.074.025-.04-.035-.069-.14-.069m-.148 1.406c-.066-.024-.108.002-.108.066 0 .058.049.103.108.103.06 0 .108-.03.108-.066 0-.035-.049-.08-.108-.103m-.075-1.829c-.23.003-.234.117-.005.17.234.055.394-.016.365-.165a2.636 2.636 0 0 1-.028-.172c-.01-.1-.151-.05-.151.056 0 .066-.068.108-.18.111m-.473-1.39c-.158-.01-.172.027-.075.178.055.085.084.085.18.003.133-.109.099-.17-.105-.18m-.248-.746c-.064 0-.112.063-.112.145 0 .077.034.143.076.14.042 0 .06-.029.038-.063-.021-.032.058-.082.176-.109.119-.023.215-.082.215-.124 0-.045-.049-.06-.108-.04-.067.027-.108.003-.108-.066 0-.058-.034-.087-.074-.06-.04.023-.055.073-.032.11.023.035-.008.067-.071.067m.086 2.214c-.217.003-.253.056-.081.12.062.023.149.005.194-.04.061-.061.032-.082-.113-.08m.06.8c-.14-.006-.255.023-.255.063 0 .037.132.066.294.064.355-.006.322-.12-.038-.127m-.23.807a.28.28 0 0 0-.243.08c-.102.124.074.14.327.028.154-.066.153-.069-.084-.108m-.206-3.888c-.058 0-.124.032-.149.072-.025.04.022.074.105.071.082 0 .148-.034.148-.074 0-.04-.046-.071-.104-.069m-.12 2.681c-.352.005-.181.146.192.156.254.008.397-.016.397-.066 0-.045.063-.063.144-.042.08.018.163.005.185-.032.022-.034-.033-.064-.123-.064-.127.003-.144-.015-.077-.084.144-.143.099-.193-.093-.103-.111.052-.167.127-.145.193.02.058-.013.042-.075-.035-.096-.121-.12-.127-.179-.034-.037.06-.137.108-.226.111m-.236.352c-.114-.042-.157.05-.066.14.076.072.314.05.314-.029 0-.04-.03-.071-.067-.069a.667.667 0 0 1-.18-.042m.12-2.286c-.25-.027-.333.037-.242.182.043.066.096.072.19.021.075-.045.213-.05.332-.018.157.042.205.029.205-.048 0-.055-.058-.106-.127-.108l-.358-.03m-.09 1.292c-.18.016-.286.114-.121.111.066 0 .12.032.12.074 0 .043.033.056.072.032.126-.082.078-.23-.071-.217m-.016.286c-.025-.027-.101-.013-.169.024s-.093.087-.057.108c.084.05.29-.071.226-.132m-.511-2.427c-.11-.016-.199-.005-.197.024.01.188.503.31.503.127 0-.064-.024-.114-.054-.116a6.888 6.888 0 0 0-.252-.035m.13 2.768c-.18.008-.326.043-.326.077 0 .032.146.056.326.053.178-.003.324-.035.324-.074 0-.043-.146-.066-.324-.056m-.163-1.733c-.044-.042-.117-.064-.163-.048-.108.035-.01.13.132.127.083 0 .09-.02.031-.08m-.264 3.621c-.182-.008-.348.016-.37.05-.022.035.146.061.373.058.482-.007.48-.084-.003-.108m-.7-3.67c-.05-.08-.065-.064-.066.063-.001.14.024.156.16.109.09-.03.22-.053.29-.05.07.005.126-.022.126-.054 0-.108-.233-.145-.34-.058-.083.072-.118.069-.17-.01m.096-.935c-.04-.042-.153-.06-.247-.042-.168.03-.168.032.037.114.224.087.336.05.21-.072m-.374 3.409c-.041-.024-.075-.008-.075.034 0 .12.307.05.349-.076.03-.09.018-.093-.082-.011-.065.056-.15.08-.192.053m.016-.646c-.064.003-.13.045-.147.098-.024.069.054.085.3.066.185-.016.337-.053.342-.082l.017-.143c.006-.05.097-.087.208-.084.11 0 .198-.024.198-.059 0-.034-.046-.06-.102-.06a.695.695 0 0 1-.221-.04c-.082-.03-.131.005-.16.114-.023.087-.08.143-.132.124-.051-.019-.114-.01-.14.016-.028.026-.1.05-.163.05m-.478 1.813c-.088.087-.04.164.1.161.08-.002.145-.031.145-.068 0-.08-.188-.151-.245-.093m-.014-1.487c.022.034 0 .08-.05.103-.05.018.006.037.126.04l.361.037c.16.04.464-.149.377-.23-.031-.032-.09-.02-.133.023-.052.053-.155.058-.305.019-.29-.077-.428-.074-.376.008m-.096-3.08c-.038-.038-.163-.054-.277-.04-.25.034-.143.119.142.11.128-.002.178-.028.135-.07m-.135.918c-.148.005-.278.045-.292.087-.021.06.188.069.504.016.182-.03.009-.114-.212-.103m-.253 1.775c-.22-.016-.218-.018-.143.088.081.116.296.169.346.087.026-.042.09-.058.145-.037.054.018.118.005.14-.034.025-.038.007-.07-.038-.07-.05.003-.064-.06-.037-.158.046-.161.046-.161-.084-.01a.381.381 0 0 1-.329.134m-.303-.637c-.062-.022-.114-.011-.114.029s.065.087.145.106c.079.02.145.005.144-.03 0-.037-.014-.063-.03-.063a5.15 5.15 0 0 0-.145-.042m-.177 2.548c-.083 0-.149.034-.149.074 0 .04.046.071.104.069.058 0 .124-.035.148-.074.025-.04-.02-.072-.103-.07m-.264-3.71c-.06 0-.108.033-.108.072 0 .04.05.072.108.07.06 0 .109-.035.109-.072 0-.04-.05-.072-.109-.07m-.14 1.814c-.06-.022-.11-.003-.11.04 0 .044.01.081.02.084.173.037.72.045.683.01-.028-.029-.017-.092.027-.145.043-.05.054-.13.025-.175-.038-.058-.074-.045-.122.04-.048.087-.121.111-.242.085-.096-.024-.174-.008-.174.029 0 .04-.05.053-.108.032m.035 1.87c-.086-.082-.118-.082-.19-.002-.068.077-.054.106.069.135.2.047.253-.008.121-.133m-.294-4.57c-.117.074-.08.199.043.149a.71.71 0 0 1 .2-.048c.045-.003.026-.037-.043-.074-.07-.04-.16-.05-.2-.027m.136 2.488c-.128.016-.243.069-.258.114-.03.09.079.1.326.029.245-.07.195-.175-.068-.143m-.595.201c-.058.003-.122.032-.145.069-.053.087.082.17.177.108.107-.066.086-.18-.032-.177m-.076.413c-.099.02-.18.069-.18.1 0 .037.081.064.18.061.105-.002.181-.045.181-.1 0-.067-.06-.085-.18-.061m-.183-.694c-.056-.084-.07-.074-.07.056 0 .09.032.161.071.159.09-.003.09-.077 0-.215m-.216.292c-.14.002-.188.079-.101.164.058.055.245-.024.245-.104 0-.034-.066-.063-.144-.06m-.615-2.345c-.057.003-.124.034-.148.074-.025.04.022.071.104.069.082 0 .149-.035.149-.074 0-.04-.047-.07-.105-.07m-.252 2.385c-.76.019-.902.185-.161.188.09.003.201.003.251.005.075-.013.236-.034.505-.074.296-.058-.082-.132-.595-.119m-.943.003c-.192.106-.176.177.041.185.132.003.18-.029.18-.13 0-.153-.03-.161-.221-.055m-.435-2.636c-.143.003-.186.082-.094.17.087.084.24.042.24-.067 0-.06-.065-.105-.146-.103m-.423 4.58c-.147-.03-.281-.023-.32.017-.044.042.052.063.251.053.32-.016.322-.016.07-.07m-.813.02c-.03.002-.055.036-.054.076 0 .111.413.074.457-.042.03-.077-.01-.095-.155-.072l-.248.037m-.108-1.873c-.036-.019-.108-.01-.16.024-.052.031-.066.076-.03.098.037.02.11.01.161-.024.052-.032.065-.077.029-.098m-.19 1.884c-.1.003-.198.034-.22.069-.021.034.042.06.142.058.1-.003.198-.032.22-.066.021-.035-.042-.064-.142-.061m-.76-4.642c-.156.061-.097.162.09.16.1-.003.181-.035.181-.072 0-.082-.155-.133-.272-.088m-.14 2.795c-.07-.066-.106-.064-.174.005-.066.069-.047.085.087.082.135-.002.154-.024.087-.087m-.094 1.842c-.014-.01-.088.005-.164.034-.123.048-.125.058-.02.095.102.037.254-.068.184-.13m-.896-1.897c-.059.024-.108.074-.108.109 0 .034.05.06.109.06a.112.112 0 0 0 .108-.108c-.001-.066-.042-.087-.109-.06m-1.94 1.918c-.061.161-.056.164.177.159.26-.008.277-.088.04-.19-.142-.062-.184-.054-.217.03m-1.656-1.402c-.02-.02-.085-.023-.144-.01-.09.024-.092.042-.01.114.094.082.244-.019.154-.104m-.627-.407c-.121 0-.218.024-.218.024.001.055.263.14.343.108.16-.06.095-.13-.125-.132m-.507-.032c-.079.024-.143.074-.143.114 0 .04.051.05.113.024l.145-.048c.016 0 .03-.032.03-.066 0-.037-.065-.048-.145-.024m-.115 1.932c-.037-.021-.109-.01-.16.024-.053.034-.066.076-.03.098.037.02.109.01.161-.024.052-.032.064-.077.029-.098m-.445.037c-.026.003-.052.082-.057.183-.01.185.079.24.136.084.038-.106-.01-.27-.08-.267m-1.764.243c-.116 0-.194.037-.194.09 0 .056.09.09.222.085.277-.01.251-.172-.028-.175m-7.306.172a.114.114 0 0 0-.108.112c0 .063.042.087.108.058.06-.024.109-.074.109-.109 0-.037-.05-.063-.109-.06m-.547.407c-.754.04-1.076.098-.914.164.098.04.708.019 1.293-.024.292-.029.577-.055.792-.077.214-.026.354-.076.354-.076 0-.098.01-.1.068-.01.09.137.166.134 3.25.023l1.662-.037c.439.01.982-.087.945-.175-.016-.037-.097-.06-.18-.05-.084.01-.047-.019.082-.066.335-.125.29-.22-.09-.188-.18.016-.326.063-.327.106 0 .05-.017.05-.054 0-.096-.138-.378-.159-.379-.03 0 .093-.015.099-.062.03-.073-.111-.614-.064-.856.076-.14.083-.154.077-.114-.029.035-.09.022-.105-.05-.058-.07.045-.084.03-.05-.058.055-.148-.123-.156-.404-.016-.2.1-.277.254-.087.175.06-.024.108-.019.108.01.001.114-.095.156-.188.082a.169.169 0 0 0-.188-.01c-.071.05-.446.087-.803.103l-.482.008c-.13-.005-.215-.019-.215-.04 0-.047-.038-.042-.105.013-.063.056-.169.072-.27.045a1.813 1.813 0 0 0-.383-.053c-.12-.002-.21-.037-.203-.076.009-.037-.191-.064-.451-.053-.256.008-.466.04-.466.071.001.114-.307.167-1.233.22m-2.64.119c-.13.019-.207.122-.09.12.056 0 .44-.004.853-.004.413-.002.78-.023.819-.047.143-.093-.126-.151-.457-.098-.28.042-.363.029-.491-.093-.178-.166-.312-.185-.251-.031.03.074-.01.108-.128.124l-.255.029m-.112-.201c-.196-.072-.393-.003-.266.092.059.043.162.048.245.014.129-.056.13-.066.021-.106m-.475.257c-.068-.067-.106-.064-.173.008-.067.068-.048.087.086.079.135-.005.154-.027.087-.087m-.409-.064c-.059-.021-.23.01-.38.069-.272.106-.272.106-.024.13.398.042.69-.104.404-.199m-1.23.095c-.282.01-.399.111-.187.156.179.038.52-.045.475-.113-.02-.032-.15-.05-.288-.043m-.909.05c-.43.064-.428.14 0 .12.242-.01.36-.043.33-.09-.025-.04-.175-.053-.33-.03m-.607.006c-.06.005-.108.04-.108.08 0 .036.05.068.109.065.059-.005.108-.04.108-.076 0-.04-.05-.072-.109-.07m-1.71.03c-.082.135-.07.201.033.196.05-.003.131-.072.18-.151.05-.082.146-.15.215-.153.102-.003.092.023-.05.14-.176.143-.176.143.488.114l.472-.04c.12-.019.192-.037.192-.058 0-.037-.058-.064-.127-.064a.468.468 0 0 1-.235-.063c-.084-.056-.065-.067.092-.048.11.01.218-.008.238-.042.022-.037-.004-.064-.056-.067-.05-.002-.166-.013-.256-.02-.104-.014-.163.013-.163.076.001.167-.31.217-.42.069-.104-.146-.487-.074-.602.111m-.927.064c-.04-.022-.072.005-.07.06 0 .074.115.1.433.093.257-.005.432-.04.432-.082s-.098-.069-.22-.064c-.162.008-.214-.018-.199-.105.012-.07-.033-.125-.105-.133-.07-.005-.126.016-.126.053 0 .035.041.064.09.064.05-.003.034.031-.036.076-.07.043-.16.061-.2.038m-1.17.121c-.091-.084-.161-.095-.274-.04-.194.096-.107.178.175.165.205-.011.212-.019.098-.125m-.815.03c-.36.034-.393.15-.037.132.161-.008.293-.045.293-.085 0-.037-.116-.058-.256-.048m-1.602.064c-.308.032-.163.159.162.143.276-.016.494-.14.235-.135l-.163-.01c-.043 0-.145 0-.234.002M.157 12.845c-.056-.058-.086-.156-.08-.291a6.687 6.687 0 0 0-.044-.685c-.029-.26-.029-.564 0-.667a.76.76 0 0 0-.006-.368c-.033-.103-.037-.22-.006-.267.03-.045.076-.19.107-.323a1.7 1.7 0 0 1 .105-.302L.31 9.79l.032-.085c.044-.1.09-.159.111-.111.024.06.029.055.024-.021-.003-.053.014-.09.04-.085.024.005.05-.024.057-.064a.179.179 0 0 1 .094-.113 1.39 1.39 0 0 0 .202-.156c.15-.143.477-.397.59-.427.051-.02.094-.063.093-.097-.002-.032.008-.043.021-.024.014.018.023.002.022-.04-.001-.04.021-.085.049-.095.028-.008.062-.058.074-.103.015-.064.038-.061.08.005.033.05.065.069.073.04.007-.027.112-.088.226-.114.115-.03.208-.08.207-.111-.005-.204.722-.228.813-.014.016.037.057.07.09.072.031.008.122.026.2.042a.482.482 0 0 0 .209.01l.27-.06c.471-.127 1.857-.498 1.907-.51.03-.03.66-.191 1.396-.355l3.185-.683 2.782-.545c.864-.156 1.99-.36 3.36-.606.298-.05.583-.1.632-.109l.253-.026.994-.156c.457-.077 1.302-.215 1.878-.31.576-.093 1.34-.212 1.697-.27l2.022-.299 2.095-.294c2.094-.296 7.078-.817 11.539-1.201 2.23-.175 4.33-.342 5.871-.46.77-.048 1.402-.085 1.842-.112.438-.02.685-.002.685-.002.011-.003.537-.03 1.192-.061.656-.032 1.597-.08 2.095-.103.497-.019 1.408-.05 2.023-.072l1.987-.077 4.551-.182 2.6-.106c.716-.032 2.08-.09 3.034-.13.953-.029 1.993-.06 2.312-.071l.686-.005c.285-.011 1.181-.05 1.734-.075l1.842-.071c.556-.027 1.726-.085 2.6-.13 2.777-.113 9.467-.391 13.724-.566l4.227-.148 1.083-.048c.537-.018 1.675-.053 2.529-.08l6.79-.182 7.442-.148L113.678 0h4.913c1.054.005 2.863.016 4.022.021 1.557.005 2.135.037 2.216.103.074.061.124.067.157.014a.092.092 0 0 1 .126-.03c.043.027.455.059.916.07.462.013 1.39.044 2.067.065l2.292.075c.586.015 1.046.052 1.026.087-.02.032-.003.06.039.06s.076-.031.076-.07c0-.043.162-.056.416-.035.23.016.62.04.867.053.321.01.447.04.434.103-.01.05.038.082.109.071.069-.01.126.014.126.053 0 .082.212.024.337-.095.046-.042.24-.08.43-.082.415-.005.371.082-.053.103-.382.019-.44.074-.147.138.125.029.228.071.227.095-.004.138-.135.204-.342.175-.129-.019-.23-.01-.226.018.028.188-.016.225-.18.149-.126-.061-.16-.125-.135-.252.033-.167-.048-.227-.159-.122a.228.228 0 0 1-.101.056c-.194.01-.362.116-.327.21.028.07.006.089-.069.06-.06-.024-.13-.01-.155.029-.03.045-.108.048-.217.005-.094-.037-.195-.045-.226-.018-.03.026-.034-.008-.01-.077.033-.087.01-.127-.077-.135l-.318-.037c-.293-.04-.603.06-.593.193.006.069-.043.109-.127.1-.075-.005-.135-.05-.135-.1 0-.1-.4.006-.477.125-.102.158 2.14.301 2.338.15.063-.047.09-.042.09.016 0 .045.03.066.064.048.036-.021.105.008.153.069.075.09.063.106-.069.106-.093-.003-.138.026-.11.074.027.042.093.06.149.04.056-.02.102-.006.102.031 0 .035.049.048.107.027.06-.022.11 0 .11.045 0 .05.051.034.124-.037.092-.088.102-.133.037-.154a.138.138 0 0 1-.089-.124c0-.024.092-.04.232-.05l.518-.009c.38.008.774.04.821.088.103.106-.098.14-.607.108-.428-.026-.54-.013-.515.061.017.053.132.1.253.106a.627.627 0 0 1 .32.09c.128.108.624-.087.684-.267.027-.082.098-.122.198-.106a.463.463 0 0 0 .256-.035c.07-.04.09-.029.066.04-.032.093-.07.106-.366.117-.173.008-.16.198.018.259.132.045.135.06.032.159-.085.082-.133.09-.195.026-.1-.103-.56-.124-.56-.026 0 .04-.073.071-.163.066-.118-.003-.135-.021-.064-.064.063-.037.071-.074.025-.103-.09-.06-.303.008-.303.095 0 .037-.082.064-.181.061-.1-.002-.181-.037-.181-.076 0-.04-.073-.072-.163-.075-.13 0-.142.014-.054.07.085.055.067.07-.084.068-.106 0-.21-.042-.23-.093-.023-.055-.057-.063-.096-.018-.103.122-.385.111-.338-.01.024-.062.015-.101-.02-.093-.034.01-.136-.024-.225-.074-.09-.05-.163-.072-.163-.048 0 .024.073.108.163.185.161.14.161.14-.042.064-.123-.048-.251-.053-.32-.016-.066.034-.207.034-.332-.003-.14-.042-.25-.04-.311.01a.23.23 0 0 1-.206.033c-.06-.024-.108-.016-.108.015 0 .016-.083.027-.216.032-.133 0-.317-.002-.519-.005-.722-.03-.943.071-.277.127.324.026.324.026-.03.06-.243.022-.385 0-.451-.065-.065-.067-.097-.07-.097-.014 0 .045-.041.067-.09.048-.05-.019-.083-.069-.072-.111.027-.125-.394-.106-.442.018-.023.059-.084.106-.134.106-.07-.002-.069-.018.007-.063.173-.109.03-.19-.28-.164-.217.018-.288.053-.26.127.021.053.007.098-.032.098-.038 0-.07-.05-.07-.109 0-.122-.082-.14-.185-.04-.038.04-.264.088-.502.112-.307.029-.402.02-.327-.03.127-.087.101-.119-.157-.182-.158-.037-.19-.027-.156.06.024.062.076.11.12.11.041 0 .059.018.038.036-.057.058-.28-.045-.241-.108.02-.032-.012-.077-.07-.098-.058-.021-.124-.01-.147.026-.024.037 0 .072.051.077.072.005.074.013.005.04-.048.02-.14-.013-.2-.074-.061-.061-.16-.093-.217-.07-.148.056-.134.168.02.175.08.003.092.019.034.04-.051.021-.142-.002-.2-.05-.057-.048-.106-.056-.106-.021 0 .037-.063.066-.14.066-.106 0-.121-.024-.064-.093.058-.069.047-.092-.04-.092-.065 0-.117.04-.117.09 0 .047-.081.092-.18.098-.098.005-.161-.019-.14-.053.021-.035.008-.064-.03-.064-.123 0-.158.217-.043.262.061.021.128.024.15.003.047-.048.316.172.316.26 0 0-.102.028-.266.033h-.636c-.686-.02-.91-.005-.938.064-.035.095.03.116.296.095.086-.005.178.024.204.064.026.042.097.077.156.077s.088-.032.064-.072c-.026-.04.035-.071.14-.071.1 0 .185.037.185.079 0 .053.042.048.122-.016.082-.066.104-.071.068-.01-.036.06-.005.09.094.09.083 0 .149-.035.149-.077 0-.04.03-.056.067-.032a.08.08 0 0 0 .109-.026c.022-.038.105-.05.185-.03.08.022.127.064.107.096-.053.084.228.158.399.106.212-.07.177-.157-.053-.143-.136.01-.148.005-.037-.016.183-.035.222-.164.05-.164-.062 0-.093-.032-.067-.072a.092.092 0 0 1 .124-.026c.051.032.063.008.034-.069-.054-.14.337-.175.423-.037.034.056.07.05.118-.019.054-.076.078-.076.106-.008.02.05.084.09.143.09.06 0 .087-.031.062-.071-.065-.103.016-.087.218.045.163.108.182.108.222.003.025-.064.093-.114.15-.114.058 0 .085.032.06.071-.026.043.067.074.23.082l.492.024.429.03c.29.02.181.1-.135.1-.19-.003-.258.026-.259.114-.001.098-.013.1-.065.018-.042-.066-.212-.103-.499-.111-.24-.005-.456-.03-.483-.058-.078-.077-.256.018-.201.108.033.058.014.056-.06-.005-.116-.093-.408-.048-.545.087-.068.066.004.096.318.135.272.035.422.024.457-.031.037-.059.065-.059.1-.003.064.103.38.106.444.003.035-.056.066-.05.106.015.046.074.079.074.17 0 .063-.05.116-.06.116-.02 0 .092.652.105.765.015.058-.048.103-.048.132 0 .014.021.235.042.62.058.387.01.937.027 1.608.043l5.17.195c.137.008.218.045.192.085-.028.045-.276.045-.666.003-.462-.053-.608-.045-.57.016.029.047.018.084-.024.082-.042 0-.076-.027-.076-.059 0-.031-.115-.06-.253-.063-.14-.003-.253.016-.253.045 0 .03-.07.071-.154.098-.122.034-.134.058-.055.111.066.045.007.056-.173.032-.15-.019-.294-.056-.32-.08-.046-.047.085-.068.251-.045.048.008.09-.015.09-.055 0-.058-.087-.095-.345-.122-.259-.008-.686-.021-1.37-.045-.363-.01-.693-.021-.932-.026-.239-.014-.387-.048-.387-.048 0-.034-.042-.03-.093.013-.05.04-.23.061-.4.048-.202-.016-.299.003-.281.055.017.05.314.08.866.09.965.019 1.027.127.088.157-.346.01-.648.023-.675.023-.334.04-1.239-.045-1.35-.127-.132-.095-.128-.1.05-.063.103.021.21.002.236-.037.069-.111-.301-.188-.422-.09-.077.06-.11.058-.138-.013-.029-.072-.053-.07-.111.013-.051.069-.05.119.002.15.147.093-.06.104-1.187.096-.625-.005-1.137.042-1.137.042 0 .03-.064.053-.144.053-.08 0-.144-.029-.144-.063 0-.019-.082-.03-.213-.037-.131.002-.31.002-.51.002-.502.024-.722.008-.722-.047 0-.045-.025-.067-.056-.045-.118.071-.8.124-1.46.116-.378-.003-1.321-.01-2.095-.018-.774-.008-1.486-.032-1.58-.061-.106-.035-.19-.021-.222.029-.027.045-.157.095-.287.114-.29.037-.348.087-.235.198.066.064.085.058.085-.018 0-.064.024-.075.071-.03.045.045.319.043.77-.002.516-.056.735-.05.837.01.107.067.163.067.242 0 .056-.045.102-.06.102-.031 0 .031-.057.098-.126.15-.119.09-.119.098.01.098a.313.313 0 0 0 .217-.1c.048-.061.263-.111.55-.13.372-.024.428-.016.27.04-.11.04-.2.098-.2.132 0 .095.608-.032.694-.148.068-.09.085-.087.127.019.029.074.093.105.156.082.06-.022.107-.006.107.037 0 .09.386.01.422-.088.014-.04.077-.04.157.003.093.05.143.045.17-.019.022-.053.056-.023.086.072.028.09.095.161.15.161.118 0 .13-.114.02-.182-.135-.082.046-.196.198-.127.074.034.39.058.706.053.467-.008.55.008.452.076-.179.13-.148.178.078.117.109-.027.36-.048.56-.045.207.005.4-.032.456-.085.079-.074.133-.066.297.05.192.138.206.138.335.019.136-.127.575-.127.495-.003-.06.095.071.077.183-.024.057-.053.078-.055.05-.008-.026.045-.001.101.055.122.14.053.2-.029.104-.143-.048-.058-.051-.095-.007-.095.04 0 .114.05.164.111.052.064.133.095.183.08.048-.022.108-.016.131.005.061.06.55.074.822.021.13-.026.253-.016.275.019.06.097.32.082.326-.019.004-.069.015-.069.04-.005.019.045.083.066.141.045.083-.03.087-.061.02-.14-.07-.085-.055-.09.09-.035a.59.59 0 0 0 .281.034c.087-.023.089-.015.012.035-.077.055-.07.077.03.116.072.03.152.01.187-.042.046-.069.073-.071.117-.003.04.064.344.09 1.07.098.558.006 1.05.032 1.094.058.044.03.3.038.572.027.272-.013.541.008.6.048.08.052.014.068-.234.063-.189-.003-.343.027-.343.064 0 .018.05.034.152.047.102.008.255.021.46.04l1.89.063c.518.014.671.043.703.125.021.058.077.108.122.108.045.003.063-.045.04-.103-.049-.132.106-.14.229-.016.053.056.086.061.086.016.001-.045.211-.077.505-.071.417.005.498.026.464.11-.03.078.014.101.181.096.122-.003.263.021.313.056.062.04.045.058-.055.055-.113-.002-.122.013-.044.066.058.037.197.059.314.05.178-.015.198-.002.125.083-.055.063-.166.079-.313.05-.128-.019-.283-.045-.35-.053-.076-.005-.106-.045-.082-.108.028-.07-.01-.104-.12-.109-.13-.005-.145.013-.078.098.127.156-.008.193-.4.103-.193-.045-.378-.06-.414-.042-.035.021-.605.018-1.265-.005-.806-.03-1.218-.008-1.255.044-.04.056-.072.05-.116-.018-.05-.077-.123-.082-.363-.024-.165.037-.335.048-.376.021-.1-.06-.715-.135-.715-.082 0 .021.072.07.162.109.154.066.153.069-.04.069-.124-.003-.186-.03-.157-.075.029-.044-.018-.063-.122-.047a.754.754 0 0 1-.311-.027.234.234 0 0 0-.24.04c-.054.053-.133.093-.178.093-.044 0-.017-.048.06-.103.176-.13-.12-.16-.44-.045-.105.037-.228.042-.274.013-.192-.13-1.349-.085-1.349.05 0 .069-.035.124-.078.122-.043 0-.057-.061-.03-.143.027-.08.013-.143-.031-.143a.077.077 0 0 0-.077.077c0 .042-.038.05-.09.016-.05-.032-.301-.067-.56-.072-.258-.008-.714-.018-1.011-.026-.727-.019-.816-.01-.922.071-.059.045-.09.042-.089-.008 0-.047-.148-.066-.407-.047-.224.013-.47-.008-.544-.048-.075-.04-.175-.048-.224-.019-.05.032-.17.045-.269.035-.14-.019-.162-.003-.096.063.048.048.253.088.458.088.205.002.334.026.286.055a.342.342 0 0 1-.223.019c-.075-.021-.136-.006-.136.034 0 .13-.225.162-.338.048-.076-.074-.2-.096-.395-.074-.223.029-.312.005-.406-.104-.125-.145-.41-.19-.482-.076-.047.076.162.166.256.11.035-.02.065-.004.065.038 0 .111-.263.09-.387-.032-.136-.135-.218-.14-.168-.008.028.069-.002.088-.097.061-.076-.018-.13-.071-.122-.114.008-.045-.09-.087-.22-.095-.128-.005-.234.019-.234.053 0 .037.038.066.084.066.224 0-.05.095-.308.109-.27.015-.422.113-.424.277 0 .035.067.045.15.022.124-.032.145-.014.113.105-.027.104-.01.133.064.104.056-.021.12-.008.144.031.064.101.178.006.133-.11-.023-.056-.089-.083-.154-.056-.076.029-.096.016-.06-.043.037-.06.324-.074 1.059-.045.639.024 1.059.011 1.15-.037.163-.087.404.03.454.22.024.087.102.114.311.103.377-.018.39-.021.39-.108 0-.043-.033-.056-.074-.032-.039.024-.071.01-.071-.032s.06-.077.138-.077c.101.003.127.04.099.146-.02.077-.006.143.034.143.039 0 .089-.066.11-.143.034-.127.094-.143.532-.13.308.008.44.032.35.064-.079.029-.298.04-.486.024-.274-.027-.334-.01-.301.071.03.077.157.098.539.08.276-.011.5.007.5.042 0 .037.054.045.12.021.084-.032.103-.019.065.045-.03.048-.121.071-.199.05-.158-.04-.361.013-.317.085.015.024-.359.04-.831.032-.671-.014-1.296.09-.733.116.076.005.091.021.036.042-.05.022-.088.09-.088.157.002.103.02.098.126-.024.112-.127.222-.143 1.1-.146.535-.002.932.01.883.03-.05.018-.073.06-.052.095.021.034.086.045.144.023.058-.02.092-.063.073-.092-.017-.03.283-.043.669-.027l1.007.037c.225.006.307.037.307.117 0 .082.05.098.198.069.136-.03.169-.022.103.023-.068.045-.002.067.212.07.17.005.322.044.337.09.015.042.06.081.097.081.04.003.037-.058-.01-.145-.043-.08-.106-.13-.139-.109-.034.019-.152-.013-.265-.074-.23-.119.482-.14 2.39-.055.517.02 1.22.05 1.563.066.344.01.608.045.588.076-.02.032-.3.045-.624.032-.323-.008-.62-.013-.66-.016l-.38.006c-.168-.003-.306.026-.306.066 0 .04.08.058.18.04.1-.016.18 0 .18.034 0 .032-.04.06-.09.063-.05 0-.025.03.053.064a.39.39 0 0 0 .29-.01c.215-.107 1.121-.059 1.198.063.034.053.062.066.063.026 0-.018.083-.034.214-.045l.5-.016c.383-.002.814.016 1.013.056.246.048.246.048.072.132-.096.048-.207.064-.247.04-.154-.095-1.255-.098-1.293-.003-.046.117-.465.067-.545-.06-.042-.072-.072-.064-.126.026-.038.066-.09.116-.117.114-.247-.04-.77-.013-.77.042 0 .037.143.053.331.034.324-.029.329-.029.234.12-.09.137-.102.14-.185.023-.05-.066-.09-.087-.09-.045 0 .053-.136.075-.362.059-.199-.011-.36.008-.36.042 0 .032-.046.024-.103-.024-.069-.06-.116-.063-.148-.013-.025.04-.102.071-.169.066-.09-.003-.075-.029.055-.098.097-.05.22-.074.271-.053.053.021.094-.013.094-.08 0-.063.042-.11.09-.102.194.029.343 0 .343-.07 0-.055-.473-.07-.632-.02-.054.016-.123-.04-.108-.088.028-.079-.327-.071-.379.008-.024.04.025.074.11.074.265.008.116.18-.17.199-.144.008-.265.047-.265.085 0 .09-.269.079-.324-.011-.025-.04-.107-.074-.181-.077a.254.254 0 0 1-.202-.119c-.042-.074-.083-.09-.113-.042-.025.04 0 .122.059.18.102.103.08.193-.049.19-.035 0-.046-.029-.023-.066.023-.034.006-.087-.039-.116-.045-.03-.11-.008-.145.045-.053.082-.062.082-.064-.006 0-.079-.021-.084-.087-.018a.357.357 0 0 1-.211.082c-.068-.003-.137.032-.15.071-.029.085-.275.008-.275-.082 0-.031.051-.108.114-.17.103-.1.096-.11-.077-.113-.158-.003-.183.021-.145.14.049.157-.07.199-.139.05-.033-.068-.05-.068-.083 0-.023.05-.112.088-.199.088-.114-.003-.13-.021-.06-.064.072-.045.058-.068-.06-.1-.108-.03-.145-.016-.12.048a.247.247 0 0 1-.028.19c-.05.08-.07.077-.107-.018-.035-.093-.089-.106-.255-.061a1.98 1.98 0 0 1-.54.034c-.18-.01-.348.008-.37.045-.024.037-.068.024-.1-.026-.04-.067-.224-.093-.603-.085-.473.005-.548-.01-.55-.116-.002-.114-.009-.114-.1.002-.056.077-.143.109-.213.082-.086-.034-.118-.005-.118.103 0 .085-.032.157-.072.16a8.27 8.27 0 0 1-.163.018c-.049.002-.148-.05-.217-.12-.119-.116-.372-.16-.775-.126-.29.023-.323.084-.1.182.187.08.158.088-.29.058-.274-.015-.523-.047-.554-.066-.03-.018-.078 0-.104.043-.028.045-.082.05-.131.013-.046-.035-.4-.058-.785-.053-.577.01-.708-.005-.744-.098-.04-.098-.054-.098-.115.013-.056.1-.1.111-.212.053-.103-.055-.14-.053-.14.01 0 .048-.065.03-.157-.05-.14-.121-.152-.121-.11-.01.036.1.006.124-.15.119-.176-.003-.182-.01-.053-.066.137-.058.136-.061-.018-.066-.09-.003-.162.026-.162.063 0 .087-.197.053-.303-.05-.122-.122-.226-.109-.176.021.033.085-.02.106-.264.103-.236-.002-.272-.018-.16-.066.113-.048.076-.06-.162-.063-.17-.003-.307.023-.307.055 0 .106-.25.069-.34-.05-.113-.143-.126.013-.017.214.062.114.05.138-.07.138-.1.002-.133.037-.104.108.032.08-.01.109-.164.109-.146 0-.178-.019-.107-.064.172-.108.032-.19-.275-.158-.161.015-.275.058-.253.092.023.037-.01.066-.073.066-.062 0-.112-.04-.112-.09 0-.06-.108-.084-.343-.071-.293.016-.312.01-.126-.042.33-.093.357-.098.397-.082.045.018.226.031.395.037.168.005.326-.016.326-.016 0-.07-.224-.254-.263-.217-.02.02-.13.01-.244-.021-.15-.04-.231-.027-.294.047-.1.122-.568.111-.679-.013-.051-.058-.124-.058-.253-.005-.162.068-.37.09-1.243.135-.21.01-.258.037-.224.124.038.095-.034.106-.58.071-.443-.029-.623-.015-.623.04 0 .045.084.08.185.077.101 0 .167.026.145.063-.051.082-.35.019-.416-.09-.045-.074-.851-.068-1.538.008a.804.804 0 0 1-.343-.031c-.09-.04-.14-.024-.17.052-.038.098-.06.098-.196.008-.19-.13-.366-.132-.317-.008.024.061-.035.098-.17.112-.155.013-.197-.006-.167-.085.031-.085-.043-.1-.4-.082-.456.024-.586-.045-.24-.13.354-.084.348-.1-.036-.084-.36.013-.487.082-.289.158.084.03-.395.08-.812.08-.887.005-1.01-.016-.506-.1l.276-.048c.013-.003-.027-.056-.09-.114-.084-.082-.146-.09-.252-.032a.78.78 0 0 1-.29.082c-.083.003-.15.037-.15.08 0 .042.042.052.091.023.064-.037.068-.029.015.03-.082.092-2.285.185-2.506.105-.094-.032-.126-.008-.125.098 0 .138-.01.138-.25.037-.137-.055-.232-.13-.212-.161.02-.035.002-.061-.04-.058a.075.075 0 0 0-.076.074c0 .037-.063.074-.14.074-.076.002-.16.037-.185.076a.164.164 0 0 1-.13.075c-.059.002-.054-.019.012-.061.062-.043.07-.082.024-.109-.042-.024-.123.005-.18.064-.058.058-.126.087-.15.063-.129-.124-2.374-.103-2.325.024.02.053.006.095-.032.098-.04 0-.07-.03-.07-.069 0-.085-.384-.085-.464-.003a.478.478 0 0 1-.21.077c-.085.013-.277.048-.427.074-.177.035-.27.027-.27-.026 0-.042.048-.08.108-.082.059-.003.108-.032.108-.064-.001-.124-.601-.047-.75.093a.528.528 0 0 1-.328.135c-.123 0-.143-.013-.059-.037.07-.021.126-.066.126-.103 0-.09-.198-.077-.257.02-.026.043-.108.064-.184.048-.075-.018-.136.003-.136.043 0 .04-.084.021-.188-.043-.192-.116-.875-.169-.935-.071-.02.03.006.069.057.087.05.016.026.037-.053.045-.88.08-1.117.257-.32.236.296-.008.602.01.681.04a.26.26 0 0 0 .247-.032c.076-.064.109-.064.132.005.016.048.063.087.101.085.04 0 .054-.03.033-.061-.044-.069.609-.09.72-.024.04.024.171.027.288.005.449-.087 4.38-.166 4.473-.09.066.053.101.048.122-.018.022-.061.218-.09.675-.095.355-.003 1.409-.011 2.342-.016 2.018-.016 1.895-.016 1.84.071-.024.04-.01.072.032.072s.077-.035.077-.072c0-.04.05-.074.112-.074.062-.003.093.03.068.069-.024.04-.01.071.032.071.042-.002.079-.058.082-.127.003-.069.021-.09.04-.045s.088.07.157.053c.33-.077.69-.095.917-.05.142.03.27.024.293-.013.054-.088.845-.008.914.09.037.055.053.053.054-.008 0 0 .213-.045.534-.064l1.183-.04c.864-.018 1.74-.005 1.787.04.03.03.105.024.17-.008.193-.098 1.169-.06 1.236.045.048.08.078.077.166-.01.065-.066.201-.098.349-.085l.495.019c.138-.003.348.031.464.079.165.063.218.063.24-.003.02-.058.512-.095.999-.1.242.008.483.013.666.018.181.013.301.035.301.064 0 .055.026.058.09.005.047-.04.511-.063.964-.069.227.003.45.006.617.006.168.007.278.04.278.04s.18.026.397.012c.277-.015.397.003.397.064 0 .058.028.063.09.013.116-.09.915-.153.964-.074.05.077.462.08.462 0 0-.034.146-.058.323-.053.215.008.325.043.325.103 0 .072.082.082.334.048.229-.034.349-.021.385.037.04.064.084.056.172-.029.116-.111.204-.12 1.31-.024l.345-.018c.15-.014.29.002.311.037.022.034.07.06.11.06.041.003.055-.026.033-.06-.051-.085.559-.059.62.026.056.077.782.12.782.042 0-.097.531-.142.736-.06.11.042.202.053.202.02 0-.031.077-.05.17-.044.104.008.158.05.137.103-.044.114.088.116.293.008.182-.093.784-.116.727-.027-.075.117.209.16.297.043a.338.338 0 0 1 .26-.109c.167.006.168.008.031.109-.134.095-.132.1.054.106.107.002.195-.027.195-.066 0-.04.065-.072.144-.07.08.003.144.046.144.096 0 .111.302.135.379.03.038-.051.07-.049.108.007.053.082.38.111.45.042.127-.127.433-.19.433-.09 0 .072.077.109.248.114.135.005.295.058.353.117.107.11.245-.027.161-.162-.054-.09.325-.074.487.024.087.053.19.085.229.077.04-.01.032.02-.018.069-.05.047-.09.113-.09.145 0 .058.04.045.485-.156.13-.058.236-.074.236-.034 0 .04.032.053.074.031.04-.023.054-.074.032-.11-.066-.11.354.087.444.208.071.096.085.096.123.003.046-.117.337-.14.336-.027 0 .043.07.043.18-.002.1-.037.18-.095.18-.127s.05-.037.109-.013c.145.063.138.164-.01.142-.066-.008-.132.022-.15.067-.02.058.043.068.228.037.162-.03.273-.016.302.031.025.045.086.006.14-.087.06-.103.098-.124.1-.058.003.095.011.095.074.002.038-.055.07-.074.07-.04.001.035.058.022.124-.028.083-.064.104-.064.068-.006-.037.059-.004.09.098.096.084.002.134.034.112.071-.023.035.209.093.516.14.307.043.698.1.867.125.168.026.325.02.346-.013.022-.035.096-.027.169.018.072.042.148.06.169.042.02-.018.341-.005.71.03.37.037 1.109.108 1.642.158.791.08.997.133 1.12.241.147.135.145.138-.118.106-.185-.021-.256-.058-.231-.12.066-.158-.097-.105-.198.07-.063.108-.116.14-.148.084-.07-.121-.447-.19-.513-.092-.042.06-.055.058-.055-.01 0-.125-.252-.138-.361-.017-.117.127-.244.114-.19-.018.048-.117-.16-.133-.325-.021-.147.1-.403.068-.449-.053-.046-.122-1.039-.175-1.117-.053-.024.037-.15.05-.28.031-.131-.015-.254-.005-.274.027-.02.029-.085.003-.145-.06-.06-.064-.139-.102-.175-.08-.037.02-.066.002-.066-.04s-.064-.08-.144-.085c-.177-.013-.19.109-.018.156.136.04-.492.014-1.777-.04-.6-.028-.835-.06-.876-.129-.046-.077-.084-.074-.189.01-.097.083-.228.096-.51.059-.356-.048-.421-.019-.36.156.01.03.106.048.216.04.11-.006.199.024.198.066 0 .042.05.08.112.082.067.003.092-.03.062-.08-.036-.058.005-.068.135-.029.103.03.207.022.232-.015.025-.04.076-.07.117-.067.04.003.049.04.02.085-.035.056-.013.069.068.042.066-.023.119-.018.119.008 0 .064.789.098.942.04.063-.024.207-.003.319.045.168.074.217.069.271-.021.06-.103.079-.103.203.016.094.09.137.103.137.04.001-.067.09-.077.315-.038.173.032.367.032.432 0 .074-.037.165-.023.243.03.109.076.103.079-.036.031-.11-.037-.161-.024-.161.043-.001.119.617.156.74.04.107-.096.246-.083.29.031.029.071.05.074.105 0 .053-.069.104-.069.217.003.178.108.445.14.446.05 0-.034.078-.072.173-.082.108-.01.162.01.143.055-.019.048.1.09.323.114.212.021.42.098.52.183.134.111.138.127.024.069a1.323 1.323 0 0 0-.376-.098c-.128-.013-.233-.053-.233-.088 0-.037-.065-.013-.144.053-.211.17-.18.217.146.225.215.006.27.027.21.082-.07.07-1.349-.013-2.604-.084-.628-.045-1.25-.09-1.711-.125-.462-.04-.762-.082-.749-.116.058-.146-.034-.146-.208 0l-20.099-.199c-6.826-.121-32.557.702-34.355.884l-14.797.717c-.06.003-.384.024-.721.048l-6.317.296c-.954.043-2.544.114-3.537.16-2.498.116-4.496.206-5.774.264l-4.909.227c-.873.043-1.912.09-2.31.109l-2.599.135c-2.83.188-4.65.307-5.775.38-1.124.086-1.551.133-1.595.162-.034.024-.25.035-.48.03-.229-.006-.425 0-.434.01-.018.003-1.755.19-3.876.42l-4.758.554-2.2.296c-1.22.183-1.967.297-3.676.553-.947.154-2.283.373-3.134.514l-2.557.468-1.476.273-2.325.463c-.11.026-.216.026-.236-.003-.018-.026-.073-.029-.122-.005-.108.053-.91.23-1.991.455-2.083.437-3.223.725-3.799.905l-1.064.299-.39.156c-.056.027-.215.098-.353.162-.138.06-.279.145-.312.19a.796.796 0 0 1-.175.154c-.179.11-.198.127-.221.187-.042.098-.279.215-.265.127.006-.044-.001-.079-.016-.079-.03 0-.032 0-.161.164-.082.106-.096.106-.11.016-.013-.093-.019-.093-.047.01-.036.13-.254.178-.27.061-.006-.034-.017-.04-.029-.013-.028.074-.134.133-.147.074-.006-.026-.087-.01-.18.035-.092.047-.174.058-.181.026-.023-.103-.055-.045-.038.069.013.087.007.103-.03.077-.026-.019-.059-.027-.07-.016-.013.005-.061.032-.109.055-.046.024-.157.075-.243.114-.108.045-.112.045-.125 0-.003-.042-.013-.05-.024-.016-.012.035-.027.014-.042-.06a.697.697 0 0 0-.064-.183c-.008-.021-.03-.042-.023-.09a.405.405 0 0 0 .02-.143c-.013-.127.013-.048.005-.323a105.43 105.43 0 0 1-.03-.566c-.003-.027.01.122.004.106-.011-.05-.022-.077-.029-.07-.014.017-.03-.02-.036-.076-.004-.055.003-.11.016-.127.014-.013.018-.08.01-.143l-.046-.524a5.336 5.336 0 0 0-.079-.569c-.032-.153-.028-.23-.056-.566-.032-.315-.054-.392-.069-.495l-.02-.132s-.006-.037-.011-.085c-.01-.095-.021-.233-.106-.788-.082-.522-.12-.678-.177-.794a.419.419 0 0 1-.047-.178c.002-.045-.017-.108-.046-.13-.041-.034-.052-.07-.042-.211.009-.106 0-.193-.025-.209-.056-.04-.126-.304-.109-.492.01-.1-.013-.199-.068-.257" id="Fill-1" fill="#FFF"/><path d="M109.325 8.02c.058 0 .172.014.25.03.079.016.144.006.144-.022 0-.08-.226-.114-.373-.058-.078.032-.087.05-.021.05" id="Fill-3" fill="#FFF"/><path d="M109.52 8.042c.198-.002.338-.024.314-.046-.024-.024-.184-.04-.357-.038-.173.004-.313.024-.313.048 0 .022.16.038.357.036" id="Fill-5" fill="#FFF"/><path d="M116.417 8.054c.2-.004.332-.108.136-.108-.113.002-.204.026-.203.056 0 .03.03.054.067.052" id="Fill-7" fill="#FFF"/><path d="m117.055 6.994.186.024c.067.01.151.02.186.024l.372-.004c.294-.016.285-.02-.155-.06-.394-.034-.792-.024-.59.016" id="Fill-9" fill="#FFF"/><path d="M121.49 7.029c.187-.006.309-.028.272-.05-.036-.02-.187-.016-.336.012-.27.048-.268.048.065.038" id="Fill-11" fill="#FFF"/><path d="M122.42 6.93c.31.003.694.003.852.005.178-.006.27.012.24.046-.026.03-.094.056-.15.056-.059 0-.13.028-.159.062-.038.046-.013.052.09.02.079-.024.21-.042.292-.038.122.002.13-.006.039-.046-.103-.048.1-.086.32-.062.031.004.056-.016.056-.044 0-.016-.083-.028-.215-.04l-.509-.024a11.063 11.063 0 0 0-1.08.02c-.302.03-.276.036.225.046" id="Fill-13" fill="#FFF"/><path d="M123.44 8.022c.094.022.192.028.22.012.082-.05-.054-.092-.227-.072-.158.02-.158.022.006.06" id="Fill-15" fill="#FFF"/><path d="M124.112 6.93c.256.003 1.208.021 2.39.043.615.006 1.073.026 1.017.04-.179.048-.103.126.12.122.194-.002.202-.008.061-.046-.176-.05-.097-.086.28-.126.11-.012-.25-.032-.799-.042l-1.397-.03c-.988-.034-1.73-.036-1.776-.004-.028.018.019.036.104.042" id="Fill-17" fill="#FFF"/><path d="M128.514 7.016c.3 0 .412-.01.249-.022a4.154 4.154 0 0 0-.547 0c-.136.011-.002.022.298.022" id="Fill-19" fill="#FFF"/><path d="M129.459 5.034c.337-.034.385-.072.093-.074-.131-.002-.26.02-.29.048-.03.03.053.04.197.026" id="Fill-21" fill="#FFF"/><path d="M129.268 6.042c.243.042.347.04.376-.004.026-.042.04-.04.045.008.013.13 1.125.098 1.256-.038.061-.062.073-.098.026-.078-.047.018-.103.012-.128-.014-.077-.082-.551-.012-.5.074.048.08-.221.042-.312-.044-.085-.08-.776-.104-.94-.032-.147.066-.135.076.177.128" id="Fill-23" fill="#FFF"/><path d="M129.476 7.042c.158.002.288-.024.288-.054 0-.032-.102-.04-.252-.02-.356.048-.368.072-.036.074" id="Fill-25" fill="#FFF"/><path d="M129.503 3.045c.235 0 .248-.008.1-.058-.12-.044-.197-.042-.27-.002-.072.044-.027.06.17.06" id="Fill-27" fill="#FFF"/><path d="M130.478 5.03c.666-.02.704-.06.06-.063-.279-.002-.52.016-.537.038-.017.022.197.034.477.026" id="Fill-29" fill="#FFF"/><path d="M130.579 7.022c.959.04 1.912.004 1.136-.046-.263-.016-.8-.022-1.19-.008-.709.024-.709.024.054.054" id="Fill-31" fill="#FFF"/><path d="M130.253 5.013c.307.026.614.02.583-.01-.035-.034-.674-.046-.674-.014 0 0 .04.02.09.024" id="Fill-33" fill="#FFF"/><path d="M131.104 6.066c.06-.018.123.008.148.058.044.09.518.136.518.05 0-.024.157-.042.35-.038.194.004.35.028.35.056 0 .026.044.02.096-.012.11-.068.745-.054.745.016 0 .026.09.012.2-.03a.774.774 0 0 1 .368-.04c.123.026.148.018.094-.028-.083-.074-2-.136-2.257-.074-.089.02-.156.016-.15-.008.027-.118-.014-.234-.084-.236-.042 0-.058.038-.034.088.068.136-.012.178-.24.124-.16-.036-.208-.03-.208.028 0 .044.042.064.104.046" id="Fill-35" fill="#FFF"/><g id="Group-39" transform="translate(131)"><mask id="mask-2" fill="#fff"><use xlink:href="#path-1"/></mask><path d="M.448.984C.736.988.947.912.837.846.764.802.134.88.134.932c0 .028.14.05.314.052" id="Fill-37" fill="#FFF" mask="url('#mask-2')"/></g><path d="M131.244 4.006c.43.06.706.06.706-.002 0-.024-.205-.046-.456-.052-.488-.012-.578.008-.25.054" id="Fill-40" fill="#FFF"/><path d="M133.046 4.003c.06.106.76.098.89-.01.096-.08.09-.082-.059-.03-.09.032-.186.044-.21.026-.038-.028-.69-.086-.666-.06l.045.074" id="Fill-42" fill="#FFF"/><path d="M132.5 2.017c.175.002.247-.008.16-.022a1.31 1.31 0 0 0-.32-.004c-.087.012-.015.024.16.026" id="Fill-44" fill="#FFF"/><path d="M133.51 3.022c.317-.022.323-.026.082-.046-.145-.012-.298-.002-.342.024-.047.028.064.036.26.022" id="Fill-46" fill="#FFF"/><g id="Group-50" transform="translate(134)"><mask id="mask-4" fill="#fff"><use xlink:href="#path-3"/></mask><path d="M.294.902C.466.922.589.906.642.86c.114-.1.475-.088.475.014-.001.074.202.118.408.092l.409-.022C3.313.896 3.358.832 2.047.782 1.13.748.927.722 1.01.626 1.032.6.997.592.93.61.833.634.828.65.907.688c.06.028-.094.044-.39.04C-.036.718-.2.846.294.902" id="Fill-48" fill="#FFF" mask="url('#mask-4')"/></g><path d="M134.388 2.05c.317-.007.474-.09.183-.099-.163-.004-.295.016-.295.046-.001.03.05.054.112.052" id="Fill-51" fill="#FFF"/><path d="M135.442 6.05c.078.018.183.01.233-.018.06-.036.013-.062-.143-.084-.253-.032-.322.046-.09.102" id="Fill-53" fill="#FFF"/><path d="M135.5 4.051c.169.002.194-.012.11-.062-.086-.054-.133-.054-.22-.004-.084.048-.06.064.11.066" id="Fill-55" fill="#FFF"/><path d="M135.082 6.968c.037 0 .096 0 .133.002.036-.004.066.03.066.076 0 .044.023.084.05.084.03 0 .04-.032.024-.076-.022-.058.034-.074.253-.066.434.016.43.016.351-.074-.043-.048-.08-.058-.102-.024-.018.028-.215.048-.437.04-.35-.008-.54.014-.338.038" id="Fill-57" fill="#FFF"/><path d="M135.477 4.044c.64-.018.68-.078.059-.09-.295-.004-.516.016-.516.048 0 .034.178.05.457.042" id="Fill-59" fill="#FFF"/><path d="M136.492 4.024c.636.014.643.014.198-.032a3.437 3.437 0 0 0-.658-.014c-.114.018.084.036.46.046" id="Fill-61" fill="#FFF"/><path d="M135.359 3.01c.089.021.23.04.314.04.1 0 .079-.02-.067-.059a1.032 1.032 0 0 0-.314-.038c-.053.008-.023.034.067.056" id="Fill-63" fill="#FFF"/><path d="M135.228 2.07c.401.036.541.022.57-.062.02-.064-.026-.096-.135-.096-.177-.004-.579.144-.435.158" id="Fill-65" fill="#FFF"/><path d="M136.218 6.007c.142.03.503.038.592.012.062-.02-.052-.042-.252-.05-.289-.014-.475.01-.34.038" id="Fill-67" fill="#FFF"/><path d="m136.246 2.044.658.012 2.911.106c.2.012.451.03.56.036.406.026.625.014.625-.036 0 0-.115-.03-.316-.046l-.836-.04a87.42 87.42 0 0 1-.812-.034c-.209-.012-.339-.04-.339-.04 0-.024-.059-.048-.131-.05-.072-.002-.131.022-.132.052 0 .032-.032.04-.073.018-.04-.02-.383-.058-.762-.072-.512-.024-.704-.052-.748-.11-.05-.068-.058-.068-.06-.002 0 .042-.018.062-.04.044-.02-.018-.137 0-.259.038-.133.04-.237.048-.26.018-.044-.062-.231-.02-.232.05 0 .026.11.052.246.056" id="Fill-69" fill="#FFF"/><path d="M136.293 4.024c.114.014.328.012.479-.004.222-.024.182-.034-.206-.048-.498-.016-.624.008-.273.052" id="Fill-71" fill="#FFF"/><path d="M137.013 2.008c.133.052.929.054.983.002.025-.024-.064-.034-.201-.022-.136.012-.255.006-.265-.014-.01-.02-.149-.028-.311-.018-.163.01-.255.034-.206.052" id="Fill-73" fill="#FFF"/><path d="M137.287 7c.082.051.485.055.486.005 0-.022-.122-.042-.273-.046h-.273l.06.04" id="Fill-75" fill="#FFF"/><path d="M137.489 6.04c.322-.023.33-.039.042-.077-.123-.016-.242-.002-.265.032-.027.04.048.056.223.044" id="Fill-77" fill="#FFF"/><path d="M137.5 3.015c.275.006.388-.002.25-.018a3.479 3.479 0 0 0-.5-.01c-.138.01-.025.022.25.028" id="Fill-79" fill="#FFF"/><path d="M137.513 7.017c.2.004.27-.006.159-.02a1.739 1.739 0 0 0-.364-.008c-.087.012.005.026.205.028" id="Fill-81" fill="#FFF"/><g id="Group-85" transform="translate(137)"><mask id="mask-6" fill="#fff"><use xlink:href="#path-5"/></mask><path d="M.065.818a.354.354 0 0 0 .195.07c.072.008.283.026.47.044.247.024.314.016.244-.03C.906.858-.012.716 0 .752l.065.066" id="Fill-83" fill="#FFF" mask="url('#mask-6')"/></g><g id="Group-88" transform="translate(137)"><mask id="mask-8" fill="#fff"><use xlink:href="#path-7"/></mask><path d="M.501.776c.348.01.409 0 .259-.04A1.317 1.317 0 0 0 .304.724C.08.76.107.766.501.776" id="Fill-86" fill="#FFF" mask="url('#mask-8')"/></g><path d="M138.278 7.042c.125.022.325.018.441-.008.213-.048.213-.048-.015-.042a1.181 1.181 0 0 1-.323-.032.355.355 0 0 0-.214.002c-.083.028-.05.052.111.08" id="Fill-89" fill="#FFF"/><path d="M138.25 7.016a1.11 1.11 0 0 1 .378.026c.18.046.227.04.227-.022.001-.098-.59-.128-.69-.036-.045.042-.017.052.085.032" id="Fill-91" fill="#FFF"/><path d="M138.5 3.017c.175.004.247-.004.16-.02a1.217 1.217 0 0 0-.32-.008c-.087.01-.015.024.16.028" id="Fill-93" fill="#FFF"/><path d="M139.503 7.04c.295.005.3.003.094-.051-.146-.04-.252-.04-.314-.006-.064.036.005.054.22.058" id="Fill-95" fill="#FFF"/><path d="m139.008 2.007.517.038c.464.02.631-.026.306-.086-.157-.028-.917.016-.823.048" id="Fill-97" fill="#FFF"/><path d="M139.196 6.012c.642.05.762.052.8.016.057-.054-.594-.106-.855-.068-.198.028-.194.032.055.052" id="Fill-99" fill="#FFF"/><path d="M139.291 4.973c.075-.014.137-.002.137.028s.038.042.084.026a.154.154 0 0 1 .142.028.265.265 0 0 0 .166.058c.06.002.006-.048-.119-.11-.249-.122-.546-.156-.546-.062 0 .032.061.048.136.032" id="Fill-101" fill="#FFF"/><path d="M140.502 4.031c.268.008.461 0 .43-.02-.07-.044-.793-.064-.865-.024-.028.016.167.036.435.044" id="Fill-103" fill="#FFF"/><path d="M139.437 5.077c.089.024.168.006.2-.042.082-.12-.042-.166-.204-.076-.13.072-.128.084.004.118" id="Fill-105" fill="#FFF"/><path d="M140.49 3.032c.267.008.468.004.446-.01-.07-.044-.802-.08-.87-.042-.035.02.155.044.423.052" id="Fill-107" fill="#FFF"/><path d="M140.421 5.05c.101-.028.207-.036.24-.016.03.02.056-.004.056-.056.001-.098-.286-.052-.415.066-.045.042-.013.042.12.006" id="Fill-109" fill="#FFF"/><path d="M140.271 5.099a.964.964 0 0 0 .255.01c.158-.02.411-.218.282-.222a.172.172 0 0 0-.133.072c-.029.044-.147.066-.283.052-.239-.024-.326.04-.12.088" id="Fill-111" fill="#FFF"/><path d="M141.085 5.103c.047.022.095.014.105-.018.013-.04.074-.038.202.006.22.076.428.048.43-.064 0-.044.032-.076.073-.074.042.004.087-.014.102-.038.015-.026-.03-.038-.1-.028-.07.008-.127.034-.127.056s-.07.036-.154.032c-.086-.002-.155-.028-.155-.056 0-.08-.135-.064-.209.024a.164.164 0 0 1-.16.05c-.118-.04-.124.056-.007.11" id="Fill-113" fill="#FFF"/><path d="M141.546 2.075c.25.004.262 0 .069-.03-.126-.018-.257-.062-.294-.096-.042-.042-.067-.03-.07.03-.001.072.069.094.295.096" id="Fill-115" fill="#FFF"/><path d="M142.42 7.038c.26.024.515.022.564-.006.064-.034-.064-.058-.43-.076-.663-.036-.76.024-.134.082" id="Fill-117" fill="#FFF"/><path d="M142.442 2.051c.101.004.208-.016.24-.044.032-.028-.024-.054-.124-.058-.101-.004-.208.014-.24.044-.032.028.024.054.124.058" id="Fill-119" fill="#FFF"/><path d="M143.319 2.008c.208.01.417.036.464.056.047.018.112.012.144-.018.032-.028.045-.054.03-.056l-.366-.048c-.186-.024-.408-.022-.494.002-.12.036-.068.05.222.064" id="Fill-121" fill="#FFF"/><path d="M144.5 7.036c.274.008.5-.002.5-.022 0-.022-.225-.044-.499-.052-.275-.006-.501.022-.501.022s.226.044.5.052" id="Fill-123" fill="#FFF"/><path d="M146.485 11.068c.266.02.497.022.514.004.039-.052-.758-.182-.892-.152-.23.056-.083.112.378.148" id="Fill-125" fill="#FFF"/><path d="M145.383 10.983a.863.863 0 0 1 .325.08c.076.052.09.04.055-.046-.033-.082-.109-.112-.265-.112-.3 0-.39.062-.115.078" id="Fill-127" fill="#FFF"/><path d="M147.14 11.005c.2.062.68.088.82.046.184-.058-.304-.152-.513-.1a.667.667 0 0 1-.308 0c-.075-.024-.138-.03-.139-.016 0 .014.064.046.14.07" id="Fill-129" fill="#FFF"/><g id="Group-133" transform="translate(147 8)"><mask id="mask-10" fill="#fff"><use xlink:href="#path-9"/></mask><path d="M.424 1.024a.116.116 0 0 1 .127.046c.029.046.049.038.054-.018.005-.05.1-.094.213-.1C.944.948.893.932.683.912.432.888.343.902.342.964c-.001.048.036.074.082.06" id="Fill-131" fill="#FFF" mask="url('#mask-10')"/></g></g></g></g></g></svg>