<svg width="176" height="26" xmlns="http://www.w3.org/2000/svg"><g id="Case-studies" stroke="none" stroke-width="1" fill="none" fill-rule="evenodd"><g id="Annotation-Copy" transform="translate(-920 -4931)" fill="#000" fill-rule="nonzero"><g id="The-right" transform="translate(920.815 4931.85)"><path id="Path" d="M7.665 24.15h3.43V3.43h7.665V.35H0v3.08h7.665zM38.71 24.15h3.43V.35h-3.43v10.395H26.18V.35h-3.43v23.8h3.43V13.825h12.53zM48.65 24.15h13.755l.63-3.08H52.08v-7.49h9.31v-2.94h-9.31V3.43h10.57L62.09.35H48.65z"/><path d="M76.09 24.15h3.43v-9.275H83.335l6.825 9.275h4.165l-7.56-9.975c2.765-1.12 4.585-3.5 4.585-6.685 0-3.99-2.87-7.14-8.12-7.14h-7.14v23.8Zm3.43-12.25V3.43h3.535c2.8 0 4.76 1.47 4.76 4.27 0 2.695-1.89 4.2-4.865 4.2h-3.43Z" id="Shape"/><path id="Path" d="M97.475 24.15h3.43V.35h-3.43zM118.37 24.5c3.465 0 6.335-.875 8.505-2.17V12.11h-8.155l-.7 2.975h5.845v5.145c-1.68.84-3.5 1.19-5.32 1.19-5.25 0-9.17-3.71-9.17-9.205 0-5.6 4.13-9.135 9.24-9.135 2.87 0 5.355.875 7.595 2.59l-.49-3.99C123.9.665 121.415 0 118.58 0c-7.42 0-12.74 5.25-12.74 12.25 0 6.86 5.145 12.25 12.53 12.25ZM148.19 24.15h3.43V.35h-3.43v10.395h-12.53V.35h-3.43v23.8h3.43V13.825h12.53zM163.275 24.15h3.43V3.43h7.665V.35h-18.76v3.08h7.665z"/></g></g></g></svg>