<?xml version="1.0" encoding="UTF-8"?>
<svg width="359px" height="53px" viewBox="0 0 359 53" version="1.1" xmlns="http://www.w3.org/2000/svg" xmlns:xlink="http://www.w3.org/1999/xlink">
    <title>COMPANY</title>
    <g id="Case-studies" stroke="none" stroke-width="1" fill="none" fill-rule="evenodd">
        <g id="Annotation-Copy" transform="translate(-1384.000000, -4979.000000)" fill="#FFFFFF" fill-rule="nonzero">
            <g id="COMPANY" transform="translate(1384.420500, 4979.807000)">
                <path d="M23.868,51.246 C16.38,51.246 10.53,49.023 6.318,44.577 C2.106,40.131 0,33.813 0,25.623 C0,20.241 0.9243,15.6195 2.7729,11.7585 C4.6215,7.8975 7.2189,4.9725 10.5651,2.9835 C13.9113,0.9945 17.784,-9.09494702e-13 22.1832,-9.09494702e-13 C24.8508,-9.09494702e-13 27.5418,0.7722 30.2562,2.3166 C31.2858,2.8782 32.3154,3.627 33.345,4.563 C34.1406,3.3462 34.9596,2.3868 35.802,1.6848 C36.6444,1.0764 37.1124,0.7488 37.206,0.702 L38.961,0.702 L38.961,14.04 L36.153,14.04 C35.5446,11.7936 34.632,9.7578 33.4152,7.9326 C32.292,6.1542 30.8997,4.68 29.2383,3.51 C27.5769,2.34 25.6698,1.755 23.517,1.755 C20.2878,1.755 17.6085,3.627 15.4791,7.371 C13.3497,11.115 12.285,17.199 12.285,25.623 C12.285,34.1874 13.4433,40.3065 15.7599,43.9803 C18.0765,47.6541 21.2472,49.491 25.272,49.491 C27.4716,49.491 29.5659,48.8709 31.5549,47.6307 C33.5439,46.3905 35.1585,44.7408 36.3987,42.6816 C37.6389,40.6224 38.259,38.4462 38.259,36.153 L40.014,36.153 C40.014,38.8206 39.3003,41.3127 37.8729,43.6293 C36.4455,45.9459 34.5033,47.7945 32.0463,49.1751 C29.5893,50.5557 26.8632,51.246 23.868,51.246 Z" id="Path"></path>
                <path d="M68.445,51.246 C63.8586,51.246 59.8455,50.2515 56.4057,48.2625 C52.9659,46.2735 50.31,43.3602 48.438,39.5226 C46.566,35.685 45.63,31.0518 45.63,25.623 C45.63,20.1942 46.566,15.561 48.438,11.7234 C50.31,7.8858 52.9659,4.9725 56.4057,2.9835 C59.8455,0.9945 63.8586,-9.09494702e-13 68.445,-9.09494702e-13 C73.0314,-9.09494702e-13 77.0445,0.9945 80.4843,2.9835 C83.9241,4.9725 86.58,7.8858 88.452,11.7234 C90.324,15.561 91.26,20.1942 91.26,25.623 C91.26,31.0518 90.324,35.685 88.452,39.5226 C86.58,43.3602 83.9241,46.2735 80.4843,48.2625 C77.0445,50.2515 73.0314,51.246 68.445,51.246 Z M68.445,49.842 C70.2702,49.842 71.9667,49.0698 73.5345,47.5254 C75.1023,45.981 76.401,43.407 77.4306,39.8034 C78.4602,36.1998 78.975,31.473 78.975,25.623 C78.975,19.773 78.4602,15.0462 77.4306,11.4426 C76.401,7.839 75.1023,5.265 73.5345,3.7206 C71.9667,2.1762 70.2702,1.404 68.445,1.404 C66.6198,1.404 64.9233,2.1762 63.3555,3.7206 C61.7877,5.265 60.489,7.839 59.4594,11.4426 C58.4298,15.0462 57.915,19.773 57.915,25.623 C57.915,31.473 58.4298,36.1998 59.4594,39.8034 C60.489,43.407 61.7877,45.981 63.3555,47.5254 C64.9233,49.0698 66.6198,49.842 68.445,49.842 Z" id="Shape"></path>
                <path d="M104.247,9.828 L104.247,47.034 L109.863,49.14 L109.863,50.193 L96.525,50.193 L96.525,49.14 L102.141,47.034 L102.141,3.159 L97.929,2.106 L97.929,1.053 L106.704,1.053 C109.1376,1.053 111.0681,1.5561 112.4955,2.5623 C113.9229,3.5685 115.1514,5.0544 116.181,7.02 L131.4846,36.2934 L143.208,7.02 C144.0036,4.9608 145.08,3.4515 146.4372,2.4921 C147.7944,1.5327 149.877,1.053 152.685,1.053 L160.056,1.053 L160.056,2.106 L155.844,3.159 L155.844,48.087 L160.056,49.14 L160.056,50.193 L140.049,50.193 L140.049,49.14 L144.261,48.087 L144.261,9.828 L127.764,50.895 L125.658,50.895 L104.247,9.828 Z" id="Path"></path>
                <path d="M167.076,49.14 L171.288,48.087 L171.288,3.159 L167.076,2.106 L167.076,1.053 L186.732,1.053 C194.5008,1.053 200.07,2.3283 203.4396,4.8789 C206.8092,7.4295 208.494,11.1852 208.494,16.146 C208.494,21.1068 206.8092,24.8625 203.4396,27.4131 C200.07,29.9637 194.5008,31.239 186.732,31.239 L182.871,31.239 L182.871,48.087 L187.083,49.14 L187.083,50.193 L167.076,50.193 L167.076,49.14 Z M186.732,29.484 C189.6804,29.484 192.0555,28.3608 193.8573,26.1144 C195.6591,23.868 196.56,20.5452 196.56,16.146 C196.56,11.7936 195.6591,8.4825 193.8573,6.2127 C192.0555,3.9429 189.6804,2.808 186.732,2.808 L182.871,2.808 L182.871,29.484 L186.732,29.484 Z" id="Shape"></path>
                <path d="M209.547,49.14 L215.163,47.034 L234.468,0.351 L236.574,0.351 L256.581,48.087 L260.091,49.14 L260.091,50.193 L251.667,50.193 C249.2334,50.193 247.2444,49.6431 245.7,48.5433 C244.1556,47.4435 243.009,46.0044 242.2602,44.226 L238.68,35.802 L221.9022,35.802 L217.269,47.034 L222.534,49.14 L222.534,50.193 L209.547,50.193 L209.547,49.14 Z M222.6042,34.047 L237.978,34.047 L230.256,15.5844 L222.6042,34.047 Z" id="Shape"></path>
                <path d="M268.515,12.987 L268.515,47.034 L274.131,49.14 L274.131,50.193 L260.793,50.193 L260.793,49.14 L266.409,47.034 L266.409,3.51 L261.495,2.106 L261.495,1.053 L268.866,1.053 C271.3464,1.053 273.2886,1.4976 274.6926,2.3868 C276.0966,3.276 277.4304,4.4694 278.694,5.967 L301.158,32.292 L301.158,4.212 L295.542,2.106 L295.542,1.053 L308.88,1.053 L308.88,2.106 L303.264,4.212 L303.264,51.246 L301.158,51.246 L268.515,12.987 Z" id="Path"></path>
                <path d="M324.324,49.14 L328.536,48.087 L328.536,31.941 L314.145,3.159 L310.635,2.106 L310.635,1.053 L319.41,1.053 C321.8436,1.053 323.7975,1.5678 325.2717,2.5974 C326.7459,3.627 327.951,5.1012 328.887,7.02 L339.2766,27.729 L349.947,4.212 L344.682,2.106 L344.682,1.053 L358.02,1.053 L358.02,2.106 L352.404,4.212 L340.119,31.239 L340.119,48.087 L344.331,49.14 L344.331,50.193 L324.324,50.193 L324.324,49.14 Z" id="Path"></path>
            </g>
        </g>
    </g>
</svg>